amiri-bold.sfdir

StartChar: exclam
Encoding: 33 33 314
Width: 476
Flags: W
LayerCount: 3
Fore
SplineSet
404 1333 m 0,0,1
 403 1320 403 1320 335 951 c 0,2,3
 271 594 271 594 271 473 c 2,4,-1
 271 442 l 1,5,-1
 207 442 l 1,6,-1
 207 473 l 2,7,8
 207 613 207 613 142 943 c 1,9,10
 72 1246 72 1246 73 1364 c 0,11,12
 74 1600 74 1600 238 1600 c 1,13,14
 424 1597 424 1597 404 1333 c 0,0,1
EndSplineSet
Refer: 315 -1 N 1 0 0 1 -87 65 2
EndChar

StartChar: numbersign
Encoding: 35 35 373
Width: 1705
Flags: W
LayerCount: 3
Fore
SplineSet
85 670 m 1,0,-1
 85 830 l 1,1,-1
 623.370957617 830 l 1,2,-1
 811.441323515 1488.24628064 l 1,3,-1
 965.042192969 1443.44602705 l 1,4,-1
 789.771899525 830 l 1,5,-1
 1093.37095762 830 l 1,6,-1
 1281.44132351 1488.24628064 l 1,7,-1
 1435.04219297 1443.44602705 l 1,8,-1
 1259.77189953 830 l 1,9,-1
 1620 830 l 1,10,-1
 1620 670 l 1,11,-1
 1214.62041021 670 l 1,12,-1
 1128.78707688 370 l 1,13,-1
 1620 370 l 1,14,-1
 1620 210 l 1,15,-1
 1082.63878906 210 l 1,16,-1
 898.570670333 -435.249778847 l 1,17,-1
 744.970209135 -390.449644331 l 1,18,-1
 916.246009321 210 l 1,19,-1
 612.638789063 210 l 1,20,-1
 428.570670333 -435.249778847 l 1,21,-1
 274.970209135 -390.449644331 l 1,22,-1
 446.246009321 210 l 1,23,-1
 85 210 l 1,24,-1
 85 370 l 1,25,-1
 492.37958979 370 l 1,26,-1
 578.212923123 670 l 1,27,-1
 85 670 l 1,0,-1
962.37958979 370 m 1,28,-1
 1048.21292312 670 l 1,29,-1
 744.62041021 670 l 1,30,-1
 658.787076877 370 l 1,31,-1
 962.37958979 370 l 1,28,-1
EndSplineSet
Layer: 2
SplineSet
115 700 m 1,0,-1
 115 800 l 1,1,-1
 646 800 l 1,2,-1
 832 1451 l 1,3,-1
 928 1423 l 1,4,-1
 750 800 l 1,5,-1
 1116 800 l 1,6,-1
 1302 1451 l 1,7,-1
 1398 1423 l 1,8,-1
 1220 800 l 1,9,-1
 1590 800 l 1,10,-1
 1590 700 l 1,11,-1
 1192 700 l 1,12,-1
 1089 340 l 1,13,-1
 1590 340 l 1,14,-1
 1590 240 l 1,15,-1
 1060 240 l 1,16,-1
 878 -398 l 1,17,-1
 782 -370 l 1,18,-1
 956 240 l 1,19,-1
 590 240 l 1,20,-1
 408 -398 l 1,21,-1
 312 -370 l 1,22,-1
 486 240 l 1,23,-1
 115 240 l 1,24,-1
 115 340 l 1,25,-1
 515 340 l 1,26,-1
 618 700 l 1,27,-1
 115 700 l 1,0,-1
985 340 m 1,28,-1
 1088 700 l 1,29,-1
 722 700 l 1,30,-1
 619 340 l 1,31,-1
 985 340 l 1,28,-1
EndSplineSet
EndChar

StartChar: dollar
Encoding: 36 36 493
Width: 996
Flags: W
HStem: -20 72<441 627> 1208 70<374 562>
VStem: 102 76<228 352> 138 154<870 1102> 344 70<-97 -17> 584 70<1279 1362> 728 168<171 414> 758 70<940 1055>
LayerCount: 4
Fore
SplineSet
539.172851562 1308.81054688 m 0,0,1
 622.958413955 1308.51488705 622.958413955 1308.51488705 721.443359375 1281.77832031 c 0,2,3
 793.434570312 1262.78076172 793.434570312 1262.78076172 829.408203125 1254.78417969 c 2,4,-1
 829.84375 1254.6875 l 1,5,-1
 829.956054688 1254.20605469 l 2,6,7
 854.004394531 1150.99023438 854.004394531 1150.99023438 853.994140625 979.83203125 c 2,8,-1
 853.994140625 978.818359375 l 1,9,-1
 853.106445312 976.819335938 l 1,10,11
 832.634324991 933.245332525 832.634324991 933.245332525 780.870117188 909.192382812 c 1,12,13
 744.842255402 909.57228567 744.842255402 909.57228567 736.216796875 917.428710938 c 1,14,15
 733.134568525 922.207376794 733.134568525 922.207376794 732.02734375 925.8515625 c 0,16,17
 721.342587761 1009.04369584 721.342587761 1009.04369584 661.2109375 1082.43652344 c 1,18,19
 581.699161781 1175.69807263 581.699161781 1175.69807263 476.829101562 1177.19140625 c 1,20,21
 391.659208879 1176.74996955 391.659208879 1176.74996955 343.0625 1140.39257812 c 1,22,23
 335.240117328 1125.33080289 335.240117328 1125.33080289 329.696289062 1108.32714844 c 0,24,25
 318.148473057 1071.64080259 318.148473057 1071.64080259 317.998046875 1029.83691406 c 0,26,27
 319.096183093 922.116215449 319.096183093 922.116215449 422.698242188 839.649414062 c 0,28,29
 454.020708995 814.885080411 454.020708995 814.885080411 563.616210938 747.704101562 c 0,30,31
 577.890236258 739.447091059 577.890236258 739.447091059 587.655273438 732.681640625 c 0,32,33
 603.700538114 722.095327767 603.700538114 722.095327767 636.630859375 702.697265625 c 0,34,35
 770.575637884 621.50295702 770.575637884 621.50295702 825.750976562 566.603515625 c 0,36,37
 920.536119925 470.755185426 920.536119925 470.755185426 921.99609375 361.833984375 c 1,38,39
 921.99609375 260.762296608 921.99609375 260.762296608 866.322908486 175.758262516 c 0,40,41
 862.824009662 170.466165054 862.824009662 170.466165054 859.8515625 166.131835938 c 0,42,43
 815.095310853 101.670765854 815.095310853 101.670765854 758.42578125 53.298828125 c 0,44,45
 642.894101532 -43.4664992163 642.894101532 -43.4664992163 488.859375 -50.8115234375 c 1,46,-1
 468.830078125 -50.8076171875 l 2,47,48
 363.789902255 -50.5160046575 363.789902255 -50.5160046575 182.580078125 -8.78125 c 0,49,50
 140.583007812 1.21923828125 140.583007812 1.21923828125 122.591796875 5.21484375 c 2,51,-1
 122.14453125 5.314453125 l 1,52,-1
 122.038085938 5.8173828125 l 2,53,54
 88.0634839396 167.179284219 88.0634839396 167.179284219 77.017578125 287.95703125 c 0,55,56
 76.0784742886 296.916651742 76.0784742886 296.916651742 76.0048828125 300.166015625 c 2,57,-1
 76.0048828125 300.849609375 l 1,58,-1
 76.412109375 301.990234375 l 2,59,60
 90.3168150397 340.927943886 90.3168150397 340.927943886 150.416594397 375.339769444 c 0,61,62
 161.329912215 381.440640581 161.329912215 381.440640581 165.8359375 382.778320312 c 0,63,64
 172.945470088 383.865726413 172.945470088 383.865726413 176.6875 384.7421875 c 0,65,-1
 177.232421875 384.80859375 l 1,66,67
 198.402974173 382.5170399 198.402974173 382.5170399 203.951171875 366.224609375 c 1,68,69
 241.752814668 188.719928614 241.752814668 188.719928614 366.60546875 119.712890625 c 0,70,71
 434.446777344 82.8002929688 434.446777344 82.8002929688 523.173828125 82.8115234375 c 0,72,73
 605.80195457 82.8102645724 605.80195457 82.8102645724 664.163728766 126.104243354 c 0,74,75
 669.250548834 130.001132068 669.250548834 130.001132068 672.879882812 133.143554688 c 1,76,77
 701.687118038 181.858492964 701.687118038 181.858492964 702.006835938 250.168945312 c 0,78,79
 701.031605351 357.72990575 701.031605351 357.72990575 617.305664062 424.33984375 c 0,80,81
 585.031956072 448.981248993 585.031956072 448.981248993 482.379882812 505.291015625 c 0,82,83
 461.133282778 517.40212003 461.133282778 517.40212003 446.379882812 525.298828125 c 0,84,85
 303.446275119 608.408132796 303.446275119 608.408132796 244.28515625 658.364257812 c 0,86,87
 112.52638736 772.254000443 112.52638736 772.254000443 112.006835938 910.16796875 c 0,88,89
 112.006835938 1008.5399316 112.006835938 1008.5399316 165.698285953 1091.02098174 c 0,90,91
 169.184211958 1096.32454402 169.184211958 1096.32454402 172.15234375 1100.67382812 c 0,92,93
 215.894878488 1163.97531805 215.894878488 1163.97531805 271.438476562 1211.5859375 c 0,94,95
 382.128068282 1304.47912551 382.128068282 1304.47912551 528.171875 1308.81054688 c 0,96,97
 534.173339844 1308.81347656 534.173339844 1308.81347656 539.172851562 1308.81054688 c 0,0,1
609.19140625 1396.80957031 m 2,98,99
 677.07916331 1395.3827351 677.07916331 1395.3827351 679.977539062 1382.11132812 c 0,100,-1
 430.036132812 -134.8125 l 1,101,-1
 388.828125 -134.809570312 l 2,102,103
 332.855395272 -134.383822973 332.855395272 -134.383822973 320.188476562 -120.538085938 c 1,104,105
 318.200652417 -116.716455215 318.200652417 -116.716455215 318.006835938 -115.83203125 c 0,106,-1
 568.08984375 1397.41308594 l 1,107,-1
 609.19140625 1396.80957031 l 2,98,99
EndSplineSet
Layer: 2
SplineSet
614.44140625 1366 m 2,0,1
 669.46875 1365.42089844 669.46875 1365.42089844 683.64453125 1361.95507812 c 0,2,3
 709.251953125 1358.62792969 709.251953125 1358.62792969 713.651367188 1351.03808594 c 2,4,-1
 714.377929688 1346.95800781 l 1,5,-1
 703.791015625 1258.41894531 l 1,6,7
 718.602539062 1254.98828125 718.602539062 1254.98828125 733.774414062 1250.96582031 c 0,8,9
 805.057617188 1231.98730469 805.057617188 1231.98730469 840.5078125 1224 c 2,10,-1
 858.93359375 1219.90527344 l 1,11,-1
 863.217773438 1224 l 2,12,13
 887.9140625 1119.37695312 887.9140625 1119.37695312 888 950 c 2,14,-1
 888 943.633789062 l 1,15,-1
 885.4140625 937.815429688 l 2,16,17
 873.176757812 912.32421875 873.176757812 912.32421875 837.6640625 910.045898438 c 2,18,-1
 836.833007812 910 l 1,19,-1
 836 910 l 2,20,21
 793.046875 910 793.046875 910 777.7734375 920.859375 c 0,22,23
 773.665039062 924.040039062 773.665039062 924.040039062 770.787109375 926.787109375 c 2,24,-1
 769.279296875 928.293945312 l 1,25,-1
 768 930 l 2,26,27
 761.455078125 939.4765625 761.455078125 939.4765625 758.895507812 948.723632812 c 2,28,-1
 758.440429688 950.546875 l 1,29,-1
 758.215820312 952.411132812 l 2,30,31
 748.536132812 1016.93066406 748.536132812 1016.93066406 693.94140625 1074.50585938 c 0,32,33
 684.7734375 1084.35253906 684.7734375 1084.35253906 675.208984375 1092.92285156 c 1,34,-1
 611.108398438 725.3359375 l 1,35,36
 625.602539062 715.883789062 625.602539062 715.883789062 656.365234375 697.766601562 c 0,37,38
 793.56640625 614.588867188 793.56640625 614.588867188 851.212890625 557.212890625 c 0,39,40
 954.421875 452.922851562 954.421875 452.922851562 956 332.137695312 c 1,41,42
 955.0703125 180.75 955.0703125 180.75 826.390625 80.1064453125 c 1,43,44
 707.84375 -12.7060546875 707.84375 -12.7060546875 545.37109375 -19.96875 c 1,45,-1
 524 -20 l 2,46,47
 505.002929688 -20 505.002929688 -20 483.528320312 -18.7119140625 c 1,48,-1
 469.459960938 -104 l 1,49,-1
 444 -104 l 2,50,51
 381.65234375 -104 381.65234375 -104 360.473632812 -93.4326171875 c 0,52,53
 356.162109375 -91.28515625 356.162109375 -91.28515625 353.22265625 -89.4560546875 c 2,54,-1
 352.04296875 -88.625 l 1,55,-1
 351.038085938 -90 l 1,56,57
 344.288085938 -87.005859375 344.288085938 -87.005859375 344 -84.966796875 c 2,58,-1
 344 -78.6455078125 l 1,59,-1
 352.50390625 -2.537109375 l 1,60,61
 296.732421875 7.1123046875 296.732421875 7.1123046875 231.15234375 22.0263671875 c 0,62,63
 189.370117188 32.001953125 189.370117188 32.001953125 171.4921875 36 c 2,64,-1
 152.637695312 40.189453125 l 1,65,-1
 148.647460938 36 l 2,66,67
 114.326171875 195.46484375 114.326171875 195.46484375 103.150390625 314.985351562 c 0,68,69
 102.060546875 325.666992188 102.060546875 325.666992188 102 330 c 2,70,-1
 102 335.196289062 l 1,71,-1
 103.748046875 340.08984375 l 2,72,73
 115.3515625 369.614257812 115.3515625 369.614257812 164.12890625 381.202148438 c 2,74,-1
 165.431640625 381.508789062 l 1,75,-1
 166.7578125 381.698242188 l 2,76,77
 171.897460938 382.475585938 171.897460938 382.475585938 174.723632812 383.104492188 c 2,78,-1
 179.01171875 384.176757812 l 1,79,-1
 183.426757812 383.965820312 l 2,80,81
 198.82421875 382.786132812 198.82421875 382.786132812 210.150390625 377.221679688 c 0,82,83
 229.869140625 366.021484375 229.869140625 366.021484375 236.78125 344.46484375 c 2,84,-1
 237.124023438 343.296875 l 1,85,-1
 237.372070312 342.10546875 l 2,86,87
 270.236328125 202.314453125 270.236328125 202.314453125 377.609375 145.546875 c 1,88,-1
 449.1015625 552.32421875 l 1,89,90
 333.82421875 621.166992188 333.82421875 621.166992188 280.546875 666.161132812 c 0,91,92
 138.538085938 788.850585938 138.538085938 788.850585938 138 940 c 1,93,94
 138.924804688 1087.20996094 138.924804688 1087.20996094 263.572265625 1184.88085938 c 1,95,96
 377.372070312 1273.69824219 377.372070312 1273.69824219 532.5859375 1278 c 1,97,-1
 544 1278 l 2,98,99
 558.696289062 1278 558.696289062 1278 573.873046875 1277.234375 c 1,100,-1
 588.614257812 1366.37988281 l 1,101,-1
 614.44140625 1366 l 2,0,1
571.186523438 483.143554688 m 1,102,-1
 505.184570312 112.671875 l 1,103,104
 516.380859375 112.030273438 516.380859375 112.030273438 528 112 c 0,105,106
 624.705078125 112.697265625 624.705078125 112.697265625 681.493164062 165.920898438 c 1,107,108
 727.658203125 212.038085938 727.658203125 212.038085938 728 280 c 1,109,110
 727.015625 373.643554688 727.015625 373.643554688 654.53125 431.358398438 c 0,111,112
 633.171875 447.89453125 633.171875 447.89453125 571.186523438 483.143554688 c 1,102,-1
490.26171875 801.34375 m 1,113,-1
 552.298828125 1146.875 l 1,114,115
 542.22265625 1147.87109375 542.22265625 1147.87109375 531.858398438 1148 c 0,116,117
 407.541992188 1148 407.541992188 1148 369.349609375 1077.22949219 c 0,118,119
 365.499023438 1069.29003906 365.499023438 1069.29003906 362.553710938 1061.50683594 c 0,120,121
 352.146484375 1032.50878906 352.146484375 1032.50878906 352 999.627929688 c 0,122,123
 353.163085938 905.993164062 353.163085938 905.993164062 445.672851562 832.48046875 c 0,124,125
 458.950195312 821.858398438 458.950195312 821.858398438 490.26171875 801.34375 c 1,113,-1
EndSplineSet
Layer: 3
SplineSet
514 1278 m 0,0,1
 597 1278 597 1278 696 1251 c 0,2,3
 768 1232 768 1232 804 1224 c 1,4,5
 828 1121 828 1121 828 950 c 1,6,7
 824 941 824 941 806 940 c 0,8,9
 770 940 770 940 762 948 c 0,10,11
 759 952 759 952 758 956 c 0,12,13
 748 1039 748 1039 687 1113 c 0,14,15
 608 1207 608 1207 502 1208 c 0,16,17
 345 1208 345 1208 304 1080 c 0,18,19
 292 1043 292 1043 292 1000 c 0,20,21
 292 892 292 892 397 809 c 0,22,23
 427 785 427 785 538 717 c 0,24,25
 552 709 552 709 562 702 c 0,26,27
 577 692 577 692 611 672 c 0,28,29
 745 591 745 591 800 536 c 0,30,31
 895 441 895 441 896 332 c 0,32,33
 896 181 896 181 777 80 c 0,34,35
 667 -13 667 -13 514 -20 c 0,36,37
 503 -20 503 -20 494 -20 c 0,38,39
 390 -20 390 -20 208 22 c 0,40,41
 166 32 166 32 148 36 c 1,42,43
 114 197 114 197 103 318 c 0,44,45
 102 327 102 327 102 330 c 1,46,47
 107 344 107 344 141 352 c 0,48,49
 148 353 148 353 152 354 c 0,50,51
 173 353 173 353 178 336 c 1,52,53
 215 158 215 158 341 89 c 0,54,55
 409 52 409 52 498 52 c 0,56,57
 608 52 608 52 674 126 c 0,58,59
 728 188 728 188 728 280 c 0,60,61
 728 388 728 388 643 455 c 0,62,63
 612 479 612 479 508 536 c 0,64,65
 487 548 487 548 472 556 c 0,66,67
 329 639 329 639 270 689 c 0,68,69
 138 802 138 802 138 940 c 0,70,71
 138 1087 138 1087 253 1185 c 0,72,73
 358 1274 358 1274 503 1278 c 0,74,75
 509 1278 509 1278 514 1278 c 0,0,1
584 1366 m 17,76,77
 652 1365 652 1365 654 1352 c 1,78,-1
 414 -104 l 1,79,80
 358 -104 358 -104 346 -90 c 0,81,82
 344 -87 344 -87 344 -86 c 2,83,-1
 584 1366 l 17,76,77
EndSplineSet
Comment: "From Linux Libertine, svn trunk@143" 
Colour: aabbcc
EndChar

StartChar: percent
Encoding: 37 37 494
Width: 1334
Flags: W
HStem: -14 50<903 1043> 578 48<877 1015> 650 50<326 462> 1242 48<299 437>
VStem: 80 128<816 1142> 542 132<799 1141> 656 128<152 476> 1118 132<133 477>
LayerCount: 4
Fore
SplineSet
401.775390625 1182.00097656 m 1,0,1
 330.635742188 1181.70898438 330.635742188 1181.70898438 296.537109375 1123.99023438 c 0,2,3
 292.002929688 1114.80078125 292.002929688 1114.80078125 288.1875 1105.41992188 c 0,4,5
 268.163085938 1054.25585938 268.163085938 1054.25585938 268 991.833984375 c 0,6,7
 268.57421875 888.26953125 268.57421875 888.26953125 322.279296875 803.154296875 c 1,8,9
 369.909179688 730.638671875 369.909179688 730.638671875 422 730 c 0,10,11
 492.091796875 730 492.091796875 730 520.947265625 812.547851562 c 0,12,13
 525.930664062 827.131835938 525.930664062 827.131835938 529.854492188 843.110351562 c 0,14,15
 541.888671875 893.268554688 541.888671875 893.268554688 542 952 c 0,16,17
 541.509765625 1055.13476562 541.509765625 1055.13476562 493.350585938 1130.23632812 c 1,18,19
 452.345703125 1180.68554688 452.345703125 1180.68554688 401.775390625 1182.00097656 c 1,0,1
410 1290 m 1,20,21
 557.193359375 1289.16308594 557.193359375 1289.16308594 651.087890625 1187.875 c 1,22,23
 733.650390625 1094.86914062 733.650390625 1094.86914062 734 967.84375 c 1,24,25
 733.280273438 829.572265625 733.280273438 829.572265625 647.711914062 729.399414062 c 1,26,27
 552.9921875 621.5625 552.9921875 621.5625 410.115234375 620 c 1,28,29
 271.776367188 620.865234375 271.776367188 620.865234375 176.037109375 722.563476562 c 1,30,31
 81.47265625 825.749023438 81.47265625 825.749023438 80 967.57421875 c 1,32,33
 80.763671875 1108.48339844 80.763671875 1108.48339844 177.374023438 1201.81542969 c 1,34,35
 272.03125 1289.61328125 272.03125 1289.61328125 410 1290 c 1,20,21
979.771484375 548.000976562 m 1,36,37
 907.14453125 547.610351562 907.14453125 547.610351562 871.405273438 468.580078125 c 0,38,39
 867.932617188 460.750976562 867.932617188 460.750976562 865.029296875 453.306640625 c 0,40,41
 844.169921875 396.864257812 844.169921875 396.864257812 844 328 c 0,42,43
 844.583984375 233.615234375 844.583984375 233.615234375 899.151367188 156.01953125 c 1,44,45
 947.737304688 96.5205078125 947.737304688 96.5205078125 1000 96 c 0,46,47
 1070.44628906 96 1070.44628906 96 1098.43847656 160.2734375 c 0,48,49
 1103.6875 175.162109375 1103.6875 175.162109375 1107.69042969 191.833007812 c 0,50,51
 1117.90039062 236.412109375 1117.90039062 236.412109375 1118 288.12890625 c 0,52,53
 1117.51074219 402.047851562 1117.51074219 402.047851562 1069.3359375 483.462890625 c 1,54,55
 1029.64550781 546.294921875 1029.64550781 546.294921875 979.771484375 548.000976562 c 1,36,37
988 656 m 1,56,57
 1135.29199219 655.0703125 1135.29199219 655.0703125 1228.20507812 543.013671875 c 1,58,59
 1309.65527344 441.95703125 1309.65527344 441.95703125 1310 304 c 1,60,61
 1309.28125 176.219726562 1309.28125 176.219726562 1223.66210938 84.25390625 c 1,62,63
 1128.90039062 -12.58984375 1128.90039062 -12.58984375 986.115234375 -14.0009765625 c 1,64,65
 847.776367188 -13.21484375 847.776367188 -13.21484375 752.037109375 79.126953125 c 1,66,67
 657.47265625 173.9140625 657.47265625 173.9140625 656 304.196289062 c 1,68,69
 656.771484375 457.446289062 656.771484375 457.446289062 754.493164062 558.915039062 c 1,70,71
 850.127929688 655.576171875 850.127929688 655.576171875 988 656 c 1,56,57
130.077148438 0.6865234375 m 2,72,73
 128.962890625 0.3330078125 128.962890625 0.3330078125 128 -0.5556640625 c 2,74,-1
 128 26.544921875 l 1,75,-1
 1098.78320312 1247.33398438 l 1,76,-1
 1099.36230469 1247.54785156 l 2,77,78
 1128.43261719 1270.42285156 1128.43261719 1270.42285156 1160.50195312 1271.97167969 c 0,79,-1
 1162 1272 l 1,80,81
 1209.1015625 1272 1209.1015625 1272 1225.40917969 1266.23632812 c 0,82,83
 1232.18359375 1263.65625 1232.18359375 1263.65625 1237.15527344 1260.78710938 c 0,84,85
 1238.62988281 1260.25097656 1238.62988281 1260.25097656 1240.328125 1259.51464844 c 0,86,87
 1240.76660156 1257.43945312 1240.76660156 1257.43945312 1241.01269531 1256.28808594 c 0,88,89
 1245.52929688 1250.08984375 1245.52929688 1250.08984375 1247.21289062 1248 c 2,90,-1
 1265.89550781 1229.31738281 l 1,91,-1
 283.576171875 0.7724609375 l 1,92,93
 263.674804688 -15.5703125 263.674804688 -15.5703125 216.006835938 -21.9443359375 c 0,94,95
 203.046875 -23.9423828125 203.046875 -23.9423828125 194 -24.0009765625 c 0,96,97
 187.40625 -23.9072265625 187.40625 -23.9072265625 182.2578125 -23.4462890625 c 0,98,99
 175.630859375 -22.787109375 175.630859375 -22.787109375 170.512695312 -21.8447265625 c 0,100,101
 166.251953125 -20.7392578125 166.251953125 -20.7392578125 163.358398438 -19.8974609375 c 0,102,103
 156.798828125 -18.5849609375 156.798828125 -18.5849609375 152 -17.0595703125 c 0,104,105
 147.89453125 -15.314453125 147.89453125 -15.314453125 145.287109375 -14.0009765625 c 2,106,-1
 142.287109375 -11.5 l 2,107,108
 139.607421875 -9.896484375 139.607421875 -9.896484375 138.041992188 -8.8427734375 c 2,109,-1
 130.077148438 0.6865234375 l 2,72,73
EndSplineSet
Layer: 2
SplineSet
346.819335938 1211.19238281 m 1,0,1
 302.704149677 1210.70644867 302.704149677 1210.70644867 271.038085938 1188.65429688 c 1,2,3
 262.504981964 1172.86486723 262.504981964 1172.86486723 255.549804688 1153.90625 c 0,4,5
 234.163623907 1094.46325964 234.163623907 1094.46325964 233.99609375 1021.83496094 c 0,6,7
 234.57100711 909.889873345 234.57100711 909.889873345 292.83984375 817.493164062 c 1,8,9
 349.284008374 731.502653211 349.284008374 731.502653211 417.170898438 730.809570312 c 0,10,11
 454.909599094 731.275561055 454.909599094 731.275561055 482.454101562 748.758789062 c 1,12,13
 495.002687392 774.035003375 495.002687392 774.035003375 503.134765625 807.088867188 c 0,14,15
 515.894779892 860.188255123 515.894779892 860.188255123 516.00390625 922.165039062 c 0,16,17
 515.503014773 1043.03781108 515.503014773 1043.03781108 463.154296875 1131.51757812 c 1,18,19
 413.614210436 1209.53958604 413.614210436 1209.53958604 346.819335938 1211.19238281 c 1,0,1
405.168945312 1320.80761719 m 0,20,21
 538.754507679 1319.87479936 538.754507679 1319.87479936 623.791015625 1218.55761719 c 1,22,23
 699.648559257 1125.56567246 699.648559257 1125.56567246 699.998046875 997.8359375 c 0,24,25
 699.996886165 902.224748602 699.996886165 902.224748602 658.847402866 829.578386932 c 0,26,27
 634.990538341 788.025438565 634.990538341 788.025438565 595.97265625 742.426757812 c 0,28,29
 510.184205362 643.518130435 510.184205362 643.518130435 423.415432469 625.505168198 c 0,30,31
 393.745556144 619.554439314 393.745556144 619.554439314 354.828125 619.189453125 c 0,32,33
 229.205065335 620.062479806 229.205065335 620.062479806 142.229492188 712.41015625 c 1,34,35
 55.3818094732 807.400250559 55.3818094732 807.400250559 54.0048828125 938.165039062 c 1,36,37
 54.470301317 1027.26775684 54.470301317 1027.26775684 89.6064453125 1098.6328125 c 0,38,39
 119.820440721 1158.44228895 119.820440721 1158.44228895 177.875976562 1219.41796875 c 0,40,41
 260.237006662 1304.68783762 260.237006662 1304.68783762 351.705744304 1317.4710074 c 0,42,43
 376.230840782 1320.75349255 376.230840782 1320.75349255 405.168945312 1320.80761719 c 0,20,21
924.818359375 547.190429688 m 1,44,45
 879.641101166 546.705584351 879.641101166 546.705584351 847.314453125 523.615234375 c 1,46,47
 839.180253123 508.86348407 839.180253123 508.86348407 832.484375 491.732421875 c 0,48,49
 810.170772082 431.439208493 810.170772082 431.439208493 809.997070312 357.8359375 c 0,50,51
 810.581720186 245.895774166 810.581720186 245.895774166 869.8359375 153.498046875 c 1,52,53
 927.265130267 67.4952872852 927.265130267 67.4952872852 995.169921875 66.8076171875 c 0,54,55
 1032.2498869 67.2579320296 1032.2498869 67.2579320296 1059.05761719 84.1806640625 c 1,56,57
 1072.82271899 112.286667621 1072.82271899 112.286667621 1081.10253906 149.946289062 c 0,58,59
 1091.90572525 200.127003536 1091.90572525 200.127003536 1092.00488281 258.166992188 c 0,60,61
 1091.50056018 380.027343051 1091.50056018 380.027343051 1039.15332031 468.520507812 c 1,62,63
 990.60760599 545.537831134 990.60760599 545.537831134 924.818359375 547.190429688 c 1,44,45
983.172851562 656.811523438 m 0,64,65
 1116.75249506 655.874326795 1116.75249506 655.874326795 1200.79296875 554.553710938 c 1,66,67
 1275.65495354 461.562070996 1275.65495354 461.562070996 1275.99414062 333.831054688 c 0,68,69
 1275.99296839 236.501890893 1275.99296839 236.501890893 1233.6159891 162.49897175 c 0,70,71
 1210.1169177 122.005608707 1210.1169177 122.005608707 1172.48339844 78.021484375 c 2,72,-1
 1171.45800781 76.8271484375 l 1,73,-1
 1170.43164062 75.65625 l 2,74,75
 1085.16436571 -21.6485714845 1085.16436571 -21.6485714845 997.07134002 -38.962909872 c 0,76,77
 968.110104818 -44.458218902 968.110104818 -44.458218902 930.829101562 -44.8095703125 c 0,78,79
 805.206041898 -43.9365436318 805.206041898 -43.9365436318 718.23046875 48.4111328125 c 1,80,81
 631.382782196 143.402808071 631.382782196 143.402808071 630.005859375 274.166015625 c 1,82,83
 630.497443662 366.254498912 630.497443662 366.254498912 668.610351562 439.75390625 c 0,84,85
 699.458760168 497.847825458 699.458760168 497.847825458 755.720703125 556.291992188 c 0,86,87
 838.731674033 641.234211219 838.731674033 641.234211219 931.626536351 653.693525492 c 0,88,89
 955.5023237 656.757083761 955.5023237 656.757083761 983.172851562 656.811523438 c 0,64,65
1224.32421875 1276.03417969 m 1,90,-1
 239.98046875 4.333984375 l 1,91,-1
 238.49609375 2.4794921875 l 2,92,93
 197.174881463 -49.1720231715 197.174881463 -49.1720231715 168.477723425 -51.5678692598 c 0,94,95
 156.098452338 -52.6013802497 156.098452338 -52.6013802497 155.196289062 -52.767578125 c 0,96,97
 146.013322697 -54.810546875 146.013322697 -54.810546875 138.828125 -54.810546875 c 0,98,99
 134.742675781 -54.810546875 134.742675781 -54.810546875 131.162109375 -54.298828125 c 0,100,101
 127.178026978 -53.567434465 127.178026978 -53.567434465 124.505859375 -52.7646484375 c 0,102,103
 121.100258087 -51.5695501499 121.100258087 -51.5695501499 118.967773438 -50.7470703125 c 0,104,105
 116.02699112 -49.2941640312 116.02699112 -49.2941640312 114.317382812 -48.1630859375 c 0,106,107
 111.949084554 -46.2037616714 111.949084554 -46.2037616714 110.748046875 -45.1044921875 c 0,108,109
 108.798334267 -43.1558332203 108.798334267 -43.1558332203 107.74609375 -42.1064453125 c 0,110,111
 105.976693841 -40.0512404347 105.976693841 -40.0512404347 105.166015625 -39.001953125 c 0,112,113
 104.054016993 -37.1664976528 104.054016993 -37.1664976528 103.62109375 -36.419921875 c 0,114,115
 103.081948151 -34.7643168191 103.081948151 -34.7643168191 102.00390625 -33.8359375 c 1,116,-1
 102.000976562 -27.0986328125 l 1,117,-1
 1085.72753906 1248.48144531 l 1,118,-1
 1091.79492188 1255.45898438 l 2,119,120
 1131.89088732 1301.56888088 1131.89088732 1301.56888088 1153.91416863 1302.67083541 c 0,121,122
 1155.20369377 1302.73091381 1155.20369377 1302.73091381 1157.13769531 1302.8125 c 0,123,124
 1201.09994151 1302.41476492 1201.09994151 1302.41476492 1209.77929688 1292.58203125 c 0,125,126
 1211.4515548 1290.48119536 1211.4515548 1290.48119536 1212.81152344 1288.53710938 c 0,127,128
 1218.77134557 1281.67463065 1218.77134557 1281.67463065 1221.75097656 1278.60449219 c 2,129,-1
 1224.32421875 1276.03417969 l 1,90,-1
EndSplineSet
Layer: 3
SplineSet
372 1242 m 0,0,1
 272 1242 272 1242 230 1126 c 0,2,3
 208 1066 208 1066 208 992 c 0,4,5
 208 880 208 880 267 787 c 0,6,7
 323 700 323 700 392 700 c 0,8,9
 496 700 496 700 529 836 c 0,10,11
 542 889 542 889 542 952 c 0,12,13
 542 1073 542 1073 489 1162 c 1,14,15
 440 1241 440 1241 372 1242 c 0,0,1
380 1290 m 0,16,17
 513 1290 513 1290 598 1188 c 0,18,19
 674 1096 674 1096 674 968 c 0,20,21
 674 841 674 841 595 749 c 0,22,23
 510 651 510 651 380 650 c 0,24,25
 255 650 255 650 168 743 c 0,26,27
 81 837 81 837 80 968 c 0,28,29
 80 1109 80 1109 169 1202 c 0,30,31
 254 1290 254 1290 380 1290 c 0,16,17
950 578 m 0,32,33
 851 578 851 578 807 464 c 0,34,35
 784 403 784 403 784 328 c 0,36,37
 784 216 784 216 844 123 c 0,38,39
 901 36 901 36 970 36 c 0,40,41
 1076 36 1076 36 1107 179 c 0,42,43
 1118 229 1118 229 1118 288 c 0,44,45
 1118 410 1118 410 1065 499 c 1,46,47
 1017 577 1017 577 950 578 c 0,32,33
958 626 m 0,48,49
 1091 626 1091 626 1175 524 c 0,50,51
 1250 432 1250 432 1250 304 c 128,-1,52
 1250 176 1250 176 1171 84 c 0,53,54
 1086 -13 1086 -13 956 -14 c 0,55,56
 831 -14 831 -14 744 79 c 0,57,58
 657 173 657 173 656 304 c 0,59,60
 656 445 656 445 746 538 c 0,61,62
 832 626 832 626 958 626 c 0,48,49
1196 1248 m 1,63,-1
 230 0 l 2,64,65
 218 -15 218 -15 180 -22 c 0,66,67
 171 -24 171 -24 164 -24 c 0,68,69
 160 -24 160 -24 156.5 -23.5 c 128,-1,70
 153 -23 153 -23 150 -22 c 128,-1,71
 147 -21 147 -21 144.5 -20 c 128,-1,72
 142 -19 142 -19 140 -17.5 c 128,-1,73
 138 -16 138 -16 136.5 -14.5 c 128,-1,74
 135 -13 135 -13 133.5 -11.5 c 128,-1,75
 132 -10 132 -10 131 -8.5 c 128,-1,76
 130 -7 130 -7 129.5 -6 c 0,77,78
 128 -6 128 -6 128 -4 c 2,79,-1
 128 -2 l 1,80,-1
 1092 1248 l 1,81,82
 1112 1271 1112 1271 1132 1272 c 0,83,84
 1176 1272 1176 1272 1184 1262 c 0,85,86
 1185 1261 1185 1261 1187 1258 c 0,87,88
 1193 1251 1193 1251 1196 1248 c 1,63,-1
EndSplineSet
Comment: "From Linux Libertine, svn trunk@143" 
Colour: aabbcc
EndChar

StartChar: ampersand
Encoding: 38 38 495
Width: 1366
Flags: MW
HStem: -6 86<398 684 1029 1214> 578 46<927 1014 1194 1310> 1240 72<525 711>
VStem: 106 172<188 473> 322 146<890 1185> 770 136<931 1189>
LayerCount: 4
Fore
SplineSet
775.103515625 170.962890625 m 1,0,1
 719.58314701 230.044186684 719.58314701 230.044186684 646.186523438 327.963867188 c 0,2,3
 564.177246094 437.474121094 564.177246094 437.474121094 511.1640625 517.497070312 c 2,4,-1
 458.83984375 596.482421875 l 1,5,6
 377.032648062 539.943133293 377.032648062 539.943133293 341.862304688 506.5 c 1,7,8
 308.166633975 457.809018497 308.166633975 457.809018497 304.325230017 386.098989436 c 0,9,10
 304.01849894 379.412479945 304.01849894 379.412479945 303.993164062 373.831054688 c 0,11,12
 305.135788877 210.657560806 305.135788877 210.657560806 434.580078125 144.723632812 c 1,13,14
 502.103317589 112.007245032 502.103317589 112.007245032 587.171875 110.810546875 c 1,15,16
 680.747503726 111.423684831 680.747503726 111.423684831 775.103515625 170.962890625 c 1,0,1
600.829101562 1209.19042969 m 0,17,18
 546.467770512 1208.73720414 546.467770512 1208.73720414 509.354492188 1182.41308594 c 1,19,20
 494.930934555 1152.31784617 494.930934555 1152.31784617 493.99609375 1115.82128906 c 1,21,22
 495.626248479 987.915445026 495.626248479 987.915445026 597.37109375 801.360351562 c 1,23,24
 670.465778001 844.414004128 670.465778001 844.414004128 707.314453125 880.43359375 c 1,25,26
 741.943611372 934.352662694 741.943611372 934.352662694 743.918829908 1022.57186174 c 0,27,28
 743.994205748 1026.87661899 743.994205748 1026.87661899 744.00390625 1030.16601562 c 0,29,30
 743.256353992 1116.79342393 743.256353992 1116.79342393 691.248046875 1170.39550781 c 1,31,32
 651.743270857 1208.76479943 651.743270857 1208.76479943 600.829101562 1209.19042969 c 0,17,18
641.171875 1342.81054688 m 0,33,34
 821.474905804 1342.019112 821.474905804 1342.019112 893.82421875 1242.51367188 c 1,35,36
 930.711387784 1188.56169032 930.711387784 1188.56169032 931.994140625 1117.83203125 c 1,37,38
 931.995570966 1023.92872786 931.995570966 1023.92872786 873.23260455 934.690935463 c 0,39,40
 868.010692223 926.82678514 868.010692223 926.82678514 863.092773438 919.798828125 c 0,41,42
 805.959201703 839.005316793 805.959201703 839.005316793 728.548828125 775.572265625 c 0,43,44
 693.992389612 747.682217526 693.992389612 747.682217526 646.4296875 715.577148438 c 1,45,46
 757.812327614 533.49778644 757.812327614 533.49778644 920.670898438 348.848632812 c 1,47,48
 967.543475333 429.621910135 967.543475333 429.621910135 987.211914062 492.384765625 c 0,49,50
 990.535963707 504.977161737 990.535963707 504.977161737 992.004882812 512.361328125 c 1,51,52
 990.013231196 541.835261951 990.013231196 541.835261951 923.754882812 545.194335938 c 0,53,54
 907.01184601 546.251417789 907.01184601 546.251417789 902.569335938 547.219726562 c 2,55,-1
 902.250976562 547.299804688 l 1,56,-1
 902.112304688 547.592773438 l 2,57,58
 893.402664375 567.927728004 893.402664375 567.927728004 900.3828125 588.913085938 c 2,59,-1
 900.745117188 589.948242188 l 1,60,-1
 901.442382812 591.340820312 l 2,61,62
 905.759766842 599.497042808 905.759766842 599.497042808 910.1171875 606.13671875 c 2,63,-1
 942.5859375 654.809570312 l 1,64,-1
 1113.17382812 654.8125 l 2,65,66
 1131.86175938 654.897790014 1131.86175938 654.897790014 1310.07421875 663.80859375 c 0,67,68
 1322.55331143 664.767885556 1322.55331143 664.767885556 1333.17089844 664.80859375 c 0,69,-1
 1333.671875 664.670898438 l 1,70,71
 1340.73928745 657.769328223 1340.73928745 657.769328223 1336.97070312 621.452148438 c 1,72,73
 1336.97070312 621.452148438 1336.97070312 621.452148438 1306.59172125 572.43968722 c 1,74,75
 1290.51841241 551.043990062 1290.51841241 551.043990062 1281.56640625 547.333984375 c 2,76,-1
 1281.14160156 547.192382812 l 1,77,78
 1233.41728848 546.773600724 1233.41728848 546.773600724 1167.69335938 523.377929688 c 1,79,-1
 1162.42285156 521.37109375 l 1,80,81
 1151.47056621 503.807565183 1151.47056621 503.807565183 1137.79101562 481.813476562 c 0,82,83
 1067.30104473 369.140673283 1067.30104473 369.140673283 989.231445312 272.958007812 c 1,84,85
 1088.28802461 169.458560748 1088.28802461 169.458560748 1122.67089844 144.674804688 c 0,86,87
 1156.47762311 120.810546875 1156.47762311 120.810546875 1181.17285156 120.810546875 c 0,88,89
 1204.00715467 121.249592462 1204.00715467 121.249592462 1226.23046875 141.065429688 c 1,90,91
 1232.3571985 149.918401188 1232.3571985 149.918401188 1235.04003906 155.500976562 c 2,92,-1
 1261.50097656 212.818359375 l 1,93,-1
 1285.17382812 212.8125 l 1,94,95
 1310.79908955 211.70385143 1310.79908955 211.70385143 1326.83789062 189.502929688 c 1,96,97
 1331.6756768 180.92260823 1331.6756768 180.92260823 1331.99414062 175.830078125 c 2,98,-1
 1331.99316406 174.798828125 l 1,99,-1
 1331.07714844 172.754882812 l 2,100,101
 1312.30381321 131.829372736 1312.30381321 131.829372736 1281.74609375 92.5322265625 c 0,102,103
 1220.26173171 13.8855436718 1220.26173171 13.8855436718 1158.48177351 -12.0624441264 c 0,104,105
 1153.94508075 -13.9423936939 1153.94508075 -13.9423936939 1149.74414062 -15.603515625 c 0,106,107
 1107.61785221 -30.6377669874 1107.61785221 -30.6377669874 1062.82714844 -30.810546875 c 0,108,109
 964.848989673 -29.6806747908 964.848989673 -29.6806747908 856.220703125 86.419921875 c 1,110,-1
 833.405273438 112.088867188 l 1,111,112
 702.734665083 1.80290109045 702.734665083 1.80290109045 555.1875 -27.7685546875 c 0,113,114
 509.567939223 -36.7047969784 509.567939223 -36.7047969784 468.826171875 -36.8125 c 0,115,116
 260.446289062 -36.8081054688 260.446289062 -36.8081054688 155.225585938 78.4189453125 c 1,117,118
 80.3662195494 162.465287812 80.3662195494 162.465287812 80.0029296875 286.1640625 c 0,119,120
 80.0029296875 375.795885037 80.0029296875 375.795885037 130.228072677 455.474467604 c 0,121,122
 141.192287487 472.691563959 141.192287487 472.691563959 153.901367188 489.963867188 c 0,123,124
 219.111152001 577.656733349 219.111152001 577.656733349 305.624023438 639.086914062 c 0,125,126
 345.065962496 666.560216747 345.065962496 666.560216747 397.012695312 695.80078125 c 1,127,128
 334.866527523 806.103131 334.866527523 806.103131 315.057617188 875.735351562 c 0,129,130
 296.145795152 942.420692491 296.145795152 942.420692491 296.005859375 1008.16699219 c 0,131,132
 296.704323845 1091.33620759 296.704323845 1091.33620759 341.615234375 1161.2265625 c 0,133,134
 377.262137259 1215.8058594 377.262137259 1215.8058594 426.404296875 1260.79492188 c 0,135,136
 511.453613546 1337.74447729 511.453613546 1337.74447729 622.149196565 1342.42004923 c 0,137,138
 631.391567171 1342.81042947 631.391567171 1342.81042947 641.171875 1342.81054688 c 0,33,34
EndSplineSet
Layer: 2
SplineSet
769.703290944 190.995702344 m 1,0,1
 716.460923249 249.164153798 716.460923249 249.164153798 647.986848521 340.517548664 c 0,2,3
 565.337431179 450.982377594 565.337431179 450.982377594 511.99050023 531.431206403 c 2,4,-1
 475.942704042 585.842974235 l 1,5,6
 397.811739225 530.451655624 397.811739225 530.451655624 367.180640998 497.799319634 c 1,7,8
 308.356481431 430.363915072 308.356481431 430.363915072 308 344 c 1,9,10
 309.128840931 198.566857418 309.128840931 198.566857418 422.377096686 140.852777483 c 1,11,12
 483.84794678 111.123113868 483.84794678 111.123113868 562.174412709 110 c 1,13,14
 647.80853002 110.647784146 647.80853002 110.647784146 733.045153413 164.405940085 c 0,15,16
 753.414027665 177.25270686 753.414027665 177.25270686 769.703290944 190.995702344 c 1,0,1
626 1210 m 0,17,18
 560.069329158 1209.07152961 560.069329158 1209.07152961 523.012081995 1162.01365625 c 1,19,20
 499.302921998 1128.12060318 499.302921998 1128.12060318 498.002253432 1085.84346927 c 1,21,22
 499.744866966 973.943781408 499.744866966 973.943781408 583.592376531 811.987705009 c 1,23,24
 667.879294208 865.176160191 667.879294208 865.176160191 700.213179716 911.900104739 c 0,25,26
 739.729394203 971.098948811 739.729394203 971.098948811 740 1060 c 0,27,28
 739.273896718 1134.89874189 739.273896718 1134.89874189 695.68767161 1179.88592152 c 1,29,30
 664.821216281 1209.61256589 664.821216281 1209.61256589 626 1210 c 0,17,18
616 1342 m 0,31,32
 811.237117652 1341.1589044 811.237117652 1341.1589044 892.473684225 1229.35184458 c 1,33,34
 934.588695541 1167.92477986 934.588695541 1167.92477986 936 1088.21125713 c 1,35,36
 934.932864224 917.439434523 934.932864224 917.439434523 766.937205972 779.732331946 c 0,37,38
 719.619873151 741.542765782 719.619873151 741.542765782 648.898824228 696.295992832 c 1,39,40
 752.477597008 528.012751552 752.477597008 528.012751552 900.217664055 357.719732545 c 1,41,42
 961.050778447 456.043432618 961.050778447 456.043432618 984.175264797 529.337967527 c 0,43,44
 985.756076056 535.345415735 985.756076056 535.345415735 986.761549391 539.434323385 c 1,45,46
 973.516373856 544.748664509 973.516373856 544.748664509 947.467521566 546.038287497 c 0,47,48
 926.950967571 547.417304305 926.950967571 547.417304305 920.723931249 548.895724996 c 2,49,-1
 906.960940208 552.336472756 l 1,50,-1
 900.887864833 565.157409658 l 2,51,52
 887.210212677 595.729612399 887.210212677 595.729612399 897.684249309 626.910512742 c 2,53,-1
 898.31427871 628.710596746 l 1,54,-1
 899.16718427 630.416407865 l 2,55,56
 902.349672142 636.479690963 902.349672142 636.479690963 905.03849117 640.641005887 c 2,57,-1
 913.944487245 654 l 1,58,-1
 1088 654 l 2,59,60
 1105.86716114 654.090823419 1105.86716114 654.090823419 1282.99602529 662.937268043 c 0,61,62
 1296.87596895 663.96977912 1296.87596895 663.96977912 1308 664 c 2,63,-1
 1317.6139516 664 l 1,64,-1
 1325.43714581 658.412004136 l 2,65,66
 1345.62534481 643.991861993 1345.62534481 643.991861993 1342.5088969 609.591867629 c 0,67,68
 1342.2901314 606.840850129 1342.2901314 606.840850129 1342.21188154 605.653451197 c 0,69,70
 1341.73512589 597.401623464 1341.73512589 597.401623464 1340.82621143 588.775544711 c 2,71,-1
 1340.75371433 588.104946604 l 1,72,-1
 1340.65115093 587.438284472 l 2,73,74
 1340.57676103 586.954750154 1340.57676103 586.954750154 1340.59451565 585.058694896 c 0,75,76
 1340.83767606 559.091052716 1340.83767606 559.091052716 1317.56869658 550.279660073 c 0,77,78
 1316.02616867 549.730816332 1316.02616867 549.730816332 1315.48683298 549.539501058 c 2,79,-1
 1310.86832981 548 l 1,80,-1
 1306 548 l 2,81,82
 1263.43122494 547.56455835 1263.43122494 547.56455835 1202.3258126 525.832165679 c 0,83,84
 1194.70359242 522.94732179 1194.70359242 522.94732179 1188.42237653 520.33955947 c 1,85,86
 1176.35978671 501.241762157 1176.35978671 501.241762157 1141.46310173 445.137120669 c 0,87,88
 1070.82603715 332.21779801 1070.82603715 332.21779801 1000.37896907 247.22518353 c 1,89,90
 1084.88753045 159.761690139 1084.88753045 159.761690139 1114.36895639 138.460710867 c 0,91,92
 1140.4013216 120.44430537 1140.4013216 120.44430537 1156 120 c 1,93,94
 1180.00242365 121.871775998 1180.00242365 121.871775998 1215.07277509 167.097033454 c 0,95,96
 1227.84801514 184.355136433 1227.84801514 184.355136433 1232.76121846 194.571745324 c 2,97,-1
 1240.80502832 212 l 1,98,-1
 1260 212 l 2,99,100
 1275.14290577 211.635470982 1275.14290577 211.635470982 1287.89680539 206.906675956 c 0,101,102
 1310.40686169 197.416195502 1310.40686169 197.416195502 1325.62715605 176.131934646 c 0,103,-1
 1326.43994912 174.8999682 l 1,104,105
 1335.65967221 158.841242144 1335.65967221 158.841242144 1336 146 c 2,106,-1
 1336 139.588160184 l 1,107,-1
 1333.37894937 133.736512262 l 1,108,109
 1284.3466399 26.7670731979 1284.3466399 26.7670731979 1184.64488777 -13.0502312356 c 1,110,111
 1137.73804546 -29.8323616293 1137.73804546 -29.8323616293 1088 -30 c 0,112,113
 977.40100464 -28.9351488762 977.40100464 -28.9351488762 859.810647371 96.8070420374 c 1,114,-1
 854.954665143 102.270022044 l 1,115,116
 730.232299323 2.5360955101 730.232299323 2.5360955101 585.864746851 -26.4211677113 c 0,117,118
 537.532210946 -35.8959510284 537.532210946 -35.8959510284 494 -36 c 0,119,120
 272.754894262 -35.2437893429 272.754894262 -35.2437893429 158.79318159 88.8291492036 c 1,121,122
 76.3668677971 181.218764385 76.3668677971 181.218764385 76 316 c 1,123,124
 77.1643973636 499.768833144 77.1643973636 499.768833144 266.731502504 634.5317186 c 0,125,126
 319.94937929 671.589502822 319.94937929 671.589502822 396.377244254 712.168574347 c 1,127,128
 332.806840928 825.123985114 332.806840928 825.123985114 312.148456574 897.778383478 c 0,129,130
 292.144306215 968.264988386 292.144306215 968.264988386 292 1038 c 0,131,132
 292.87645324 1169.45524534 292.87645324 1169.45524534 389.846179804 1258.22216913 c 1,133,134
 483.190086709 1341.62522705 483.190086709 1341.62522705 616 1342 c 0,31,32
EndSplineSet
Layer: 3
SplineSet
812 190 m 1,0,1
 754 249 754 249 672 358.5 c 128,-1,2
 590 468 590 468 537 548 c 2,3,-1
 484 628 l 1,4,5
 382 558 382 558 345 518 c 0,6,7
 278 443 278 443 278 344 c 0,8,9
 278 180 278 180 409 114 c 0,10,11
 476 81 476 81 562 80 c 0,12,13
 656 80 656 80 749 139 c 0,14,15
 786 162 786 162 812 190 c 1,0,1
626 1240 m 0,16,17
 545 1240 545 1240 499 1180 c 0,18,19
 469 1139 469 1139 468 1086 c 0,20,21
 469 958 469 958 572 770 c 1,22,23
 684 835 684 835 725 895 c 0,24,25
 770 961 770 961 770 1060 c 0,26,27
 770 1147 770 1147 717 1201 c 0,28,29
 678 1240 678 1240 626 1240 c 0,16,17
616 1312 m 0,30,31
 796 1312 796 1312 868 1212 c 0,32,33
 905 1159 905 1159 906 1088 c 0,34,35
 906 932 906 932 748 803 c 0,36,37
 695 760 695 760 608 706 c 1,38,39
 725 509 725 509 904 308 c 1,40,41
 985 431 985 431 1013 521 c 0,42,43
 1017 536 1017 536 1018 542 c 0,44,45
 1018 573 1018 573 949 576 c 0,46,47
 932 577 932 577 928 578 c 1,48,49
 919 597 919 597 926 617 c 0,50,51
 928 621 928 621 930 624 c 1,52,-1
 1088 624 l 2,53,54
 1105 624 1105 624 1285 633 c 0,55,56
 1297 634 1297 634 1308 634 c 1,57,58
 1315 629 1315 629 1311 592 c 0,59,60
 1309 579 1309 579 1306 578 c 1,61,62
 1259 578 1259 578 1192 554 c 0,63,64
 1176 548 1176 548 1168 544 c 0,65,66
 1167 543 1167 543 1116 461 c 0,67,68
 1038 336 1038 336 960 246 c 1,69,70
 1062 139 1062 139 1097 114 c 0,71,72
 1131 90 1131 90 1156 90 c 0,73,74
 1194 90 1194 90 1239 149 c 0,75,76
 1254 169 1254 169 1260 182 c 1,77,78
 1285 182 1285 182 1301 159 c 0,79,80
 1306 151 1306 151 1306 146 c 1,81,82
 1263 50 1263 50 1174 15 c 0,83,84
 1133 0 1133 0 1088 0 c 0,85,86
 991 0 991 0 882 117 c 1,87,88
 858 144 l 1,89,90
 731 33 731 33 580 3 c 0,91,92
 535 -6 535 -6 494 -6 c 0,93,94
 286 -6 286 -6 181 109 c 0,95,96
 106 192 106 192 106 316 c 0,97,98
 106 484 106 484 284 610 c 0,99,100
 344 652 344 652 438 700 c 1,101,102
 363 828 363 828 341 906 c 0,103,104
 322 972 322 972 322 1038 c 0,105,106
 322 1156 322 1156 410 1236 c 0,107,108
 494 1312 494 1312 616 1312 c 0,30,31
EndSplineSet
Comment: "From Linux Libertine, svn trunk@143" 
Colour: aabbcc
EndChar

StartChar: quotesingle
Encoding: 39 39 366
Width: 569
Flags: W
LayerCount: 3
Fore
SplineSet
285 1474 m 0,0,1
 399.391130534 1472.56801638 399.391130534 1472.56801638 385.858740921 1329.09204709 c 2,2,-1
 338.242556116 836 l 1,3,-1
 230.757443884 836 l 1,4,-1
 183.141259079 1329.09204709 l 2,5,6
 181.76357451 1344.05955507 181.76357451 1344.05955507 181.712765957 1356.67904029 c 0,7,8
 181.712765957 1438.52898556 181.712765957 1438.52898556 239.70221027 1464.87421649 c 0,9,10
 260.463581158 1473.7965392 260.463581158 1473.7965392 285 1474 c 0,0,1
EndSplineSet
Layer: 2
SplineSet
356 1332 m 2,0,-1
 311 866 l 1,1,-1
 258 866 l 1,2,-1
 213 1332 l 2,3,4
 202 1444 202 1444 285 1444 c 0,5,6
 367 1444 367 1444 356 1332 c 2,0,-1
EndSplineSet
EndChar

StartChar: parenleft
Encoding: 40 40 302
Width: 940
Flags: W
LayerCount: 4
Fore
SplineSet
593.419784957 887.391887648 m 0,0,1
 409.057872144 340.114269635 409.057872144 340.114269635 596.406276647 -217.609403822 c 0,2,3
 692.467648528 -503.577684923 692.467648528 -503.577684923 850.66707892 -726.922204254 c 1,4,5
 888.444755153 -785.058572814 888.444755153 -785.058572814 849.741724389 -823.502187916 c 0,6,7
 811.038693624 -861.945803019 811.038693624 -861.945803019 756.478663803 -806.900528422 c 0,8,9
 653.532204907 -700.60354024 653.532204907 -700.60354024 569.437088771 -581.22397441 c 0,10,11
 269.309863656 -150.819872748 269.309863656 -150.819872748 270.488673764 340.532317824 c 128,-1,12
 271.667483873 831.884508396 271.667483873 831.884508396 569.448121045 1257.23965885 c 0,13,14
 654.368973811 1377.61310917 654.368973811 1377.61310917 756.631586312 1483.05799318 c 1,15,16
 809.678273209 1536.10468008 809.678273209 1536.10468008 849.654097472 1498.90009277 c 0,17,18
 889.629921736 1461.69550546 889.629921736 1461.69550546 850.798710445 1403.11701891 c 1,19,20
 687.042030387 1163.84263683 687.042030387 1163.84263683 593.419784957 887.391887648 c 0,0,1
EndSplineSet
Layer: 2
SplineSet
593.428710938 -196.19140625 m 0,0,1
 691.318283524 -486.886184514 691.318283524 -486.886184514 851.833007812 -713.490234375 c 0,2,3
 868.960605158 -738.838074666 868.960605158 -738.838074666 867.01162986 -751.405289083 c 0,4,5
 865.166808435 -760.283696607 865.166808435 -760.283696607 859.748046875 -770.1328125 c 0,6,7
 845.028508451 -795.289950063 845.028508451 -795.289950063 817.899414062 -822.180664062 c 0,8,9
 788.627459619 -850.72049177 788.627459619 -850.72049177 771.387243059 -836.58574778 c 0,10,11
 769.853045111 -835.083197681 769.853045111 -835.083197681 752.241210938 -816.599609375 c 0,12,13
 651.206542969 -712.559082031 651.206542969 -712.559082031 568.173828125 -594.517578125 c 0,14,15
 273.331045188 -171.67233083 273.331045188 -171.67233083 274.002929688 310.168945312 c 0,16,17
 274.939769653 761.736798018 274.939769653 761.736798018 533.459526579 1161.72762758 c 0,18,19
 554.372261743 1194.00063125 554.372261743 1194.00063125 576.25390625 1225.25585938 c 0,20,21
 671.874668827 1360.8492508 671.874668827 1360.8492508 787.625976562 1480.19335938 c 2,22,-1
 788.634765625 1481.23242188 l 1,23,-1
 789.606445312 1482.20410156 l 2,24,25
 831.713970753 1524.311627 831.713970753 1524.311627 850.835516021 1511.47988659 c 0,26,27
 854.104360682 1509.0275634 854.104360682 1509.0275634 856.73828125 1506.61425781 c 0,28,29
 873.900110411 1490.31669343 873.900110411 1490.31669343 860.518997298 1462.6608883 c 0,30,31
 854.586664537 1450.8567905 854.586664537 1450.8567905 845.116210938 1436.72265625 c 0,32,33
 684.316232066 1201.74898153 684.316232066 1201.74898153 590.65625 925.204101562 c 0,34,35
 496.165291294 644.721751826 496.165291294 644.721751826 495.993164062 369.83203125 c 0,36,37
 496.341586331 93.5732568814 496.341586331 93.5732568814 593.428710938 -196.19140625 c 0,0,1
EndSplineSet
Layer: 3
SplineSet
567.5 -226.5 m 128,-1,1
 665 -517 665 -517 826 -744 c 0,2,3
 851 -781 851 -781 831 -800.5 c 128,-1,4
 811 -820 811 -820 778 -786 c 0,5,6
 677 -682 677 -682 594 -564 c 0,7,8
 299 -142 299 -142 300 340 c 152,-1,9
 301 822 301 822 594 1240 c 0,10,11
 677 1358 677 1358 778 1462 c 0,12,13
 811 1495 811 1495 831 1476 c 128,-1,14
 851 1457 851 1457 826 1420 c 0,15,16
 660 1178 660 1178 565 897 c 128,-1,17
 470 616 470 616 470 340 c 256,18,0
 470 64 470 64 567.5 -226.5 c 128,-1,1
EndSplineSet
EndChar

StartChar: parenright
Encoding: 41 41 303
Width: 940
Flags: W
LayerCount: 3
Fore
SplineSet
89.3329210797 -726.922204254 m 1,0,1
 248.036937332 -502.566946174 248.036937332 -502.566946174 343.932707085 -216.603381304 c 0,2,3
 530.946519547 341.076447838 530.946519547 341.076447838 346.580215043 887.391887648 c 0,4,5
 252.456781255 1164.84676917 252.456781255 1164.84676917 89.2012895555 1403.11701891 c 1,6,7
 51.4003878273 1461.31210753 51.4003878273 1461.31210753 90.1699781135 1498.85074068 c 0,8,9
 128.9395684 1536.38937382 128.9395684 1536.38937382 183.368413688 1483.05799318 c 1,10,11
 286.471342332 1376.59978605 286.471342332 1376.59978605 370.551878955 1257.23965885 c 0,12,13
 668.656076643 830.89020358 668.656076643 830.89020358 669.512082783 339.537873397 c 128,-1,14
 670.368088923 -151.814456787 670.368088923 -151.814456787 370.562911229 -581.22397441 c 0,15,16
 285.637655113 -701.605301568 285.637655113 -701.605301568 183.527420749 -806.894261315 c 0,17,18
 130.37244024 -861.65999881 130.37244024 -861.65999881 88.0569959161 -821.980004189 c 1,19,20
 52.0959005933 -783.946096764 52.0959005933 -783.946096764 89.3329210797 -726.922204254 c 1,0,1
EndSplineSet
Layer: 2
SplineSet
372.5 -226.5 m 128,-1,1
 470 64 470 64 470 340 c 256,2,3
 470 616 470 616 375 897 c 128,-1,4
 280 1178 280 1178 114 1420 c 0,5,6
 89 1457 89 1457 109 1476 c 128,-1,7
 129 1495 129 1495 162 1462 c 0,8,9
 263 1358 263 1358 346 1240 c 0,10,11
 639 822 639 822 640 340 c 152,-1,12
 641 -142 641 -142 346 -564 c 0,13,14
 263 -682 263 -682 162 -786 c 0,15,16
 129 -820 129 -820 109 -800.5 c 128,-1,17
 89 -781 89 -781 114 -744 c 0,18,0
 275 -517 275 -517 372.5 -226.5 c 128,-1,1
EndSplineSet
EndChar

StartChar: asterisk
Encoding: 42 42 376
Width: 1025
Flags: W
LayerCount: 3
Fore
SplineSet
631.687684471 1098.10066121 m 1,0,-1
 856.939974234 991.06588522 l 1,1,2
 933.78540394 953.312224452 933.78540394 953.312224452 928.637880014 894.144522278 c 0,3,4
 926.407260939 874.485803589 926.407260939 874.485803589 915.662045423 856.460556757 c 0,5,6
 879.656825862 796.451857488 879.656825862 796.451857488 810.025532222 821.644216728 c 0,7,8
 789.005406569 829.603435486 789.005406569 829.603435486 769.22099147 843.83542892 c 2,9,-1
 574.394867263 988.585762165 l 1,10,-1
 597.866977261 746.823029189 l 1,11,12
 605.164156427 660.519131253 605.164156427 660.519131253 550.547002338 634.859326522 c 0,13,14
 533.147791005 627.211466608 533.147791005 627.211466608 513 627 c 0,15,16
 446.643669446 627 446.643669446 627 430.352773302 693.618756665 c 0,17,18
 424.665260359 718.335179458 424.665260359 718.335179458 427.133022739 746.823029189 c 2,19,-1
 450.605132737 988.585762165 l 1,20,-1
 255.88972004 843.917684561 l 2,21,22
 183.747190544 791.347852753 183.747190544 791.347852753 132.735910059 829.725694802 c 0,23,24
 118.784430513 840.907161742 118.784430513 840.907161742 109.276039938 856.561871621 c 0,25,26
 72.5946774517 916.585919325 72.5946774517 916.585919325 130.008163675 966.501918538 c 0,27,28
 146.829087535 980.691689351 146.829087535 980.691689351 168.060025766 991.06588522 c 2,29,-1
 393.312315529 1098.10066121 l 1,30,-1
 168.020974648 1205.95289886 l 2,31,32
 90.2928481269 1244.1425323 90.2928481269 1244.1425323 96.4749749571 1304.0146701 c 0,33,34
 98.9517809139 1323.11699948 98.9517809139 1323.11699948 109.40154499 1340.64350028 c 0,35,36
 146.334166617 1401.07869931 146.334166617 1401.07869931 217.352828886 1373.56091917 c 0,37,38
 236.701669861 1366.06377497 236.701669861 1366.06377497 255.77900853 1352.16457108 c 2,39,-1
 450.58225745 1207.43123353 l 1,40,-1
 427.133451644 1448.17230647 l 1,41,42
 419.936811502 1533.38383518 419.936811502 1533.38383518 473.921975601 1559.58578829 c 0,43,44
 491.933706185 1567.78197586 491.933706185 1567.78197586 513 1568 c 0,45,46
 578.833067245 1568 578.833067245 1568 594.787942535 1501.2044166 c 0,47,48
 600.326997798 1476.55126315 600.326997798 1476.55126315 597.866548356 1448.17230647 c 2,49,-1
 574.41774255 1207.43123353 l 1,50,-1
 769.11027996 1352.08231544 l 2,51,52
 841.169904087 1404.60975066 841.169904087 1404.60975066 892.027360362 1367.09903532 c 0,53,54
 910.325979795 1352.70285064 910.325979795 1352.70285064 921.167925712 1330.26409068 c 0,55,56
 957.209811738 1253.6074736 957.209811738 1253.6074736 856.839257623 1205.88598878 c 2,57,-1
 631.687684471 1098.10066121 l 1,0,-1
EndSplineSet
Layer: 2
SplineSet
562 1098 m 1,0,-1
 844 964 l 2,1,2
 923 926 923 926 890 872 c 0,3,4
 857 817 857 817 787 868 c 2,5,-1
 538 1053 l 1,6,-1
 568 744 l 2,7,8
 576 657 576 657 513 657 c 0,9,10
 449 657 449 657 457 744 c 2,11,-1
 487 1053 l 1,12,-1
 238 868 l 2,13,14
 168 816 168 816 135 872 c 0,15,16
 102 926 102 926 181 964 c 2,17,-1
 463 1098 l 1,18,-1
 181 1233 l 2,19,20
 102 1271 102 1271 135 1325 c 128,-1,21
 168 1379 168 1379 238 1328 c 2,22,-1
 487 1143 l 1,23,-1
 457 1451 l 2,24,25
 449 1538 449 1538 513 1538 c 0,26,27
 576 1538 576 1538 568 1451 c 2,28,-1
 538 1143 l 1,29,-1
 787 1328 l 2,30,31
 857 1380 857 1380 890 1325 c 128,-1,32
 923 1270 923 1270 844 1233 c 2,33,-1
 562 1098 l 1,0,-1
EndSplineSet
EndChar

StartChar: plus
Encoding: 43 43 304
Width: 2050
Flags: W
LayerCount: 4
Fore
SplineSet
1085 -405 m 1,0,-1
 965 -405 l 1,1,-1
 965 280 l 1,2,-1
 280 280 l 1,3,-1
 280 400 l 1,4,-1
 965 400 l 1,5,-1
 965 1085 l 1,6,-1
 1085 1085 l 1,7,-1
 1085 400 l 1,8,-1
 1770 400 l 1,9,-1
 1770 280 l 1,10,-1
 1085 280 l 1,11,-1
 1085 -405 l 1,0,-1
EndSplineSet
EndChar

StartChar: comma
Encoding: 44 44 371
Width: 756
Flags: W
LayerCount: 4
Fore
SplineSet
351.178842905 -506.594476814 m 1,0,1
 319.516512803 -527.648154367 319.516512803 -527.648154367 295.5664918 -522.163463897 c 0,2,3
 246.952618539 -511.030611558 246.952618539 -511.030611558 240.572806011 -466.068966582 c 1,4,5
 237.710079613 -435.297642956 237.710079613 -435.297642956 262.802411071 -409.166569543 c 0,6,7
 491.049112461 -171.471187578 491.049112461 -171.471187578 437.833198145 21.6312805757 c 1,8,9
 385.929998561 -23.6294949878 385.929998561 -23.6294949878 312.149665603 -23.4081848281 c 128,-1,10
 238.369332645 -23.1868746683 238.369332645 -23.1868746683 184.286796564 30.2867965644 c 1,11,12
 130.433173328 85.2871805318 130.433173328 85.2871805318 130.646074901 161.694043793 c 128,-1,13
 130.858976473 238.100907055 130.858976473 238.100907055 188.843292225 293.755468827 c 1,14,15
 248.084740608 348.907444703 248.084740608 348.907444703 329.921849815 346.528568954 c 128,-1,16
 411.758959022 344.149693206 411.758959022 344.149693206 464.399131449 303.695411932 c 0,17,18
 605.818902941 192.58641059 605.818902941 192.58641059 581.885027195 -91.6248743492 c 1,19,20
 569.651010117 -221.459744486 569.651010117 -221.459744486 492.666215708 -341.255080251 c 128,-1,21
 415.681421299 -461.050416016 415.681421299 -461.050416016 351.178842905 -506.594476814 c 1,0,1
EndSplineSet
Layer: 2
SplineSet
312.295898438 -511.142578125 m 0,0,1
 275.996004061 -536.443739967 275.996004061 -536.443739967 253.7265625 -511.576171875 c 1,2,3
 238.992354478 -492.996876826 238.992354478 -492.996876826 248.719726562 -471.390625 c 0,4,5
 261.682106557 -445.336557019 261.682106557 -445.336557019 295.483398438 -409.953125 c 0,6,7
 315.768430436 -389.001418001 315.768430436 -389.001418001 331.390625 -370.86328125 c 0,8,9
 345.540135661 -354.382434551 345.540135661 -354.382434551 358.312160642 -336.98423069 c 128,-1,10
 371.084185622 -319.586026828 371.084185622 -319.586026828 382.629451663 -301.083170677 c 128,-1,11
 394.174717704 -282.580314526 394.174717704 -282.580314526 403.927682126 -263.324978737 c 128,-1,12
 413.680646549 -244.069642947 413.680646549 -244.069642947 421.7804126 -224.199123802 c 128,-1,13
 429.880178652 -204.328604657 429.880178652 -204.328604657 435.773602048 -183.848843971 c 128,-1,14
 441.667025443 -163.369083285 441.667025443 -163.369083285 445.480811038 -142.763608177 c 128,-1,15
 449.294596632 -122.158133069 449.294596632 -122.158133069 450.487998532 -101.086654518 c 128,-1,16
 451.681400432 -80.0151759668 451.681400432 -80.0151759668 450.3687251 -59.3074519273 c 128,-1,17
 449.056049769 -38.5997278877 449.056049769 -38.5997278877 444.708949704 -17.5692385024 c 128,-1,18
 440.36184964 3.46125088287 440.36184964 3.46125088287 433.083007812 23.66015625 c 0,19,20
 427.674970046 36.654919785 427.674970046 36.654919785 420.540039062 37.953125 c 1,21,22
 366.975591987 -17.6306273725 366.975591987 -17.6306273725 321.679981211 -23.3769913626 c 0,23,24
 309.478107985 -24.7897903223 309.478107985 -24.7897903223 289.831054688 -24.806640625 c 0,25,26
 225.206497495 -23.9837395769 225.206497495 -23.9837395769 179.75 20.8974609375 c 1,27,28
 134.412924179 67.3943473486 134.412924179 67.3943473486 134.004882812 131.166992188 c 1,29,30
 134.735854999 176.339246344 134.735854999 176.339246344 159.548828125 216.903320312 c 0,31,32
 185.24345524 257.882363176 185.24345524 257.882363176 223.96484375 294.994140625 c 0,33,34
 278.056810216 346.353843073 278.056810216 346.353843073 335.117219059 347.860845036 c 0,35,36
 341.847633083 347.981753097 341.847633083 347.981753097 348.204101562 347.806640625 c 0,37,38
 426.483886719 345.802734375 426.483886719 345.802734375 471.689453125 310.654296875 c 0,39,40
 601.042480469 210.387207031 601.042480469 210.387207031 577.983398438 -59.408203125 c 1,41,42
 566.107384887 -184.618644702 566.107384887 -184.618644702 488.580078125 -305.809570312 c 0,43,44
 465.055265307 -342.306849193 465.055265307 -342.306849193 442.2890625 -373.153320312 c 0,45,46
 370.091518701 -470.288449055 370.091518701 -470.288449055 312.295898438 -511.142578125 c 0,0,1
EndSplineSet
Layer: 3
SplineSet
334 -482 m 0,0,1
 301 -505 301 -505 279.5 -481 c 128,-1,2
 258 -457 258 -457 286 -428 c 0,3,4
 539 -168 539 -168 459 54 c 24,5,6
 450 78 450 78 436 63 c 0,7,8
 389 6 389 6 315 6 c 0,9,10
 251 6 251 6 205.5 51.5 c 128,-1,11
 160 97 160 97 160 161 c 128,-1,12
 160 225 160 225 209.5 272 c 128,-1,13
 259 319 259 319 323 317 c 0,14,15
 401 315 401 315 446 280 c 0,16,17
 575 180 575 180 552 -89 c 0,18,19
 541 -211 541 -211 467.5 -325.5 c 128,-1,20
 394 -440 394 -440 334 -482 c 0,0,1
EndSplineSet
EndChar

StartChar: hyphen
Encoding: 45 45 370
Width: 1600
Flags: W
LayerCount: 3
Fore
SplineSet
250 250 m 1,0,-1
 250 430 l 1,1,-1
 1350 430 l 1,2,-1
 1350 250 l 1,3,-1
 250 250 l 1,0,-1
EndSplineSet
Layer: 2
SplineSet
280 280 m 1,0,-1
 280 400 l 1,1,-1
 1320 400 l 1,2,-1
 1320 280 l 1,3,-1
 280 280 l 1,0,-1
EndSplineSet
EndChar

StartChar: slash
Encoding: 47 47 360
Width: 706
Flags: W
LayerCount: 4
Fore
SplineSet
146.562877722 -435.247506002 m 1,0,-1
 -7.03803824904 -390.447238844 l 1,1,-1
 529.437122278 1488.247506 l 1,2,-1
 683.038038249 1443.44723884 l 1,3,-1
 146.562877722 -435.247506002 l 1,0,-1
EndSplineSet
Layer: 2
SplineSet
132.192382812 -437.999023438 m 1,0,-1
 3.6689453125 -400.521484375 l 1,1,-1
 543.809570312 1491.00292969 l 1,2,-1
 672.327148438 1453.51855469 l 1,3,-1
 132.192382812 -437.999023438 l 1,0,-1
EndSplineSet
Layer: 3
SplineSet
126 -398 m 1,0,-1
 30 -370 l 1,1,-1
 550 1451 l 1,2,-1
 646 1423 l 1,3,-1
 126 -398 l 1,0,-1
EndSplineSet
EndChar

StartChar: zero
Encoding: 48 48 483
Width: 1092
Flags: W
HStem: -6 74<448 636> 1208 74<458 646>
VStem: 110 176<346 931> 806 176<344 942>
LayerCount: 4
Fore
SplineSet
585.846679688 1148.00488281 m 1,0,1
 486.510742188 1146.4609375 486.510742188 1146.4609375 420.018554688 1027.7265625 c 1,2,3
 346.188476562 877.252929688 346.188476562 877.252929688 346.276855469 635.5546875 c 128,-1,4
 346.365234375 393.856445312 346.365234375 393.856445312 423.000976562 238.444335938 c 1,5,6
 485.458984375 129.384765625 485.458984375 129.384765625 566.150390625 127.995117188 c 1,7,8
 674.336914062 129.678710938 674.336914062 129.678710938 740.377929688 265.54296875 c 1,9,10
 805.83203125 417.073242188 805.83203125 417.073242188 805.7265625 658.021484375 c 128,-1,11
 805.62109375 898.969726562 805.62109375 898.969726562 726.395507812 1047.96484375 c 1,12,13
 665.122070312 1146.67773438 665.122070312 1146.67773438 585.846679688 1148.00488281 c 1,0,1
912.802734375 1106.95117188 m 1,14,15
 1032.46875 936.580078125 1032.46875 936.580078125 1042 672.5078125 c 1,16,-1
 1042 638 l 2,17,18
 1041.50390625 374.700195312 1041.50390625 374.700195312 928.6484375 194.114257812 c 1,19,20
 797.217491097 -6 797.217491097 -6 587.337749455 -5.49951171875 c 128,-1,21
 377.458007812 -4.9990234375 377.458007812 -4.9990234375 248.62890625 161.067382812 c 1,22,23
 110.336537544 347.1354128 110.336537544 347.1354128 110.416315647 624.217608744 c 128,-1,24
 110.49609375 901.299804688 110.49609375 901.299804688 223.3515625 1081.88574219 c 1,25,26
 354.517176811 1281.58501617 354.517176811 1281.58501617 569.754682155 1281.28225418 c 128,-1,27
 784.9921875 1280.97949219 784.9921875 1280.97949219 912.802734375 1106.95117188 c 1,14,15
EndSplineSet
Layer: 2
SplineSet
530.823242188 1177.19140625 m 1,0,1
 472.945067158 1177.19026067 472.945067158 1177.19026067 425.802263868 1139.08391838 c 0,2,3
 421.093732628 1135.11555544 421.093732628 1135.11555544 418.083984375 1132.16210938 c 0,4,5
 403.542388755 1112.15848499 403.542388755 1112.15848499 387.756835938 1080.06542969 c 0,6,7
 312.188875739 920.832188537 312.188875739 920.832188537 311.998046875 669.8359375 c 0,8,9
 311.998046875 409.194824219 311.998046875 409.194824219 391.885742188 242.418945312 c 1,10,11
 462.448556034 100.630308798 462.448556034 100.630308798 561.171875 98.8095703125 c 1,12,13
 618.55322213 98.80840971 618.55322213 98.80840971 666.192537737 135.996450386 c 0,14,15
 671.032375448 139.931906861 671.032375448 139.931906861 674.157226562 142.893554688 c 0,16,17
 693.274846731 169.502852522 693.274846731 169.502852522 712.736328125 214.819335938 c 0,18,19
 779.835905327 374.899605373 779.835905327 374.899605373 780.004882812 620.166015625 c 0,20,21
 780.003417969 884.798828125 780.003417969 884.798828125 697.126953125 1045.5625 c 1,22,23
 627.567733867 1175.42615838 627.567733867 1175.42615838 530.823242188 1177.19140625 c 1,0,1
571.171875 1312.80957031 m 0,24,25
 764.768045019 1311.68909088 764.768045019 1311.68909088 883.831054688 1137.50976562 c 1,26,27
 998.760496072 967.454167407 998.760496072 967.454167407 1007.99609375 701.87109375 c 1,28,-1
 1007.99511719 667.833007812 l 2,29,30
 1007.47047614 401.435057219 1007.47047614 401.435057219 895.375 215.763671875 c 0,31,32
 870.623783271 175.328072287 870.623783271 175.328072287 840.533203125 137.708007812 c 0,33,34
 737.182690093 8.9463680558 737.182690093 8.9463680558 628.335182598 -22.3011737216 c 0,35,36
 598.331545235 -30.7377898802 598.331545235 -30.7377898802 562.977539062 -34.7998046875 c 0,37,38
 541.389641267 -36.7620591522 541.389641267 -36.7620591522 520.829101562 -36.80859375 c 0,39,40
 337.195949482 -35.7120214912 337.195949482 -35.7120214912 217.1796875 130.4765625 c 1,41,42
 100.239329749 294.515540841 100.239329749 294.515540841 86.0087890625 549.029296875 c 0,43,44
 84.0377700115 579.57050018 84.0377700115 579.57050018 84.005859375 608.16796875 c 0,45,46
 84.5319643475 874.565665569 84.5319643475 874.565665569 196.625976562 1060.23828125 c 0,47,48
 221.37811445 1100.67380429 221.37811445 1100.67380429 251.467773438 1138.29394531 c 0,49,50
 354.818558847 1267.05592442 354.818558847 1267.05592442 463.665793965 1298.30270051 c 0,51,52
 493.669523074 1306.73914917 493.669523074 1306.73914917 529.0234375 1310.80078125 c 0,53,54
 550.596585787 1312.76306487 550.596585787 1312.76306487 571.171875 1312.80957031 c 0,24,25
EndSplineSet
Layer: 3
SplineSet
556 1208 m 0,0,1
 438 1208 438 1208 363 1054 c 0,2,3
 286 893 286 893 286 640 c 0,4,5
 286 379 286 379 366 212 c 1,6,7
 436 69 436 69 536 68 c 0,8,9
 664 68 664 68 738 242 c 0,10,11
 806 403 806 403 806 650 c 0,12,13
 806 915 806 915 723 1076 c 1,14,15
 654 1207 654 1207 556 1208 c 0,0,1
546 1282 m 0,16,17
 739 1282 739 1282 858 1107 c 0,18,19
 973 938 973 938 982 672 c 0,20,21
 982 655 982 655 982 638 c 0,22,23
 982 374 982 374 873 194 c 0,24,25
 765 16 765 16 588 -4 c 0,26,27
 567 -6 567 -6 546 -6 c 0,28,29
 363 -6 363 -6 243 161 c 0,30,31
 126 324 126 324 112 579 c 0,32,33
 110 609 110 609 110 638 c 0,34,35
 110 902 110 902 219 1082 c 0,36,37
 327 1260 327 1260 504 1280 c 0,38,39
 525 1282 525 1282 546 1282 c 0,16,17
EndSplineSet
Comment: "From Linux Libertine, svn trunk@143" 
Colour: aabbcc
EndChar

StartChar: one
Encoding: 49 49 484
Width: 646
Flags: W
HStem: -6 58<121 253 436 568> 1244 40G<413 426>
VStem: 266 158<65 1116>
LayerCount: 4
Fore
SplineSet
83.5625 1121.00585938 m 0,0,1
 175.392578125 1162.39550781 175.392578125 1162.39550781 334.22265625 1237.984375 c 0,2,3
 431.965820312 1282.29199219 431.965820312 1282.29199219 438.803710938 1284 c 2,4,-1
 442.38671875 1284 l 1,5,-1
 451.232421875 1284 l 1,6,-1
 452.380859375 1284 l 1,7,8
 487.618164062 1281.83691406 487.618164062 1281.83691406 499.34375 1251.95703125 c 2,9,-1
 500.565429688 1246.58691406 l 1,10,-1
 488.892578125 1168.24511719 l 1,11,12
 484.12109375 1114.4140625 484.12109375 1114.4140625 484.080078125 1057.97851562 c 2,13,-1
 484.080078125 232.02734375 l 2,14,15
 484.172851562 152.569335938 484.172851562 152.569335938 491.44140625 125.336914062 c 1,16,17
 513.080078125 117.416992188 513.080078125 117.416992188 572.493164062 112.834960938 c 0,18,19
 585.0078125 112.048828125 585.0078125 112.048828125 592.080078125 112 c 2,20,-1
 605.994140625 112 l 1,21,-1
 614.981445312 90.7568359375 l 2,22,23
 634.59375 61.7626953125 634.59375 61.7626953125 627.592773438 10.35546875 c 1,24,25
 623.426757812 -0.03515625 623.426757812 -0.03515625 615.505859375 -6 c 2,26,-1
 606.05078125 -6.58203125 l 1,27,-1
 590.926757812 -6 l 2,28,29
 563.624023438 -4.9267578125 563.624023438 -4.9267578125 517.188476562 -1.998046875 c 0,30,31
 422.09375 3.958984375 422.09375 3.958984375 370.080078125 4 c 0,32,33
 341.3203125 3.908203125 341.3203125 3.908203125 174.67578125 -5 c 2,34,-1
 173.877929688 -5 l 1,35,-1
 173.080078125 -5 l 2,36,37
 165.5703125 -5.1357421875 165.5703125 -5.1357421875 159.80078125 -5.962890625 c 2,38,-1
 145.2421875 -7.8203125 l 1,39,-1
 134.8671875 -6 l 2,40,41
 125.353515625 -2.0537109375 125.353515625 -2.0537109375 121.743164062 3.056640625 c 0,42,43
 118.1328125 12.0361328125 118.1328125 12.0361328125 118.548828125 21.9951171875 c 0,44,45
 119.1015625 36.7890625 119.1015625 36.7890625 121.762695312 52.7978515625 c 0,46,47
 125.823242188 75.4921875 125.823242188 75.4921875 132.080078125 88 c 2,48,-1
 141.080078125 112 l 1,49,-1
 156.080078125 112 l 2,50,51
 206.108398438 112.265625 206.108398438 112.265625 249.25390625 124.872070312 c 0,52,53
 254.2734375 125.978515625 254.2734375 125.978515625 257.227539062 126.782226562 c 1,54,55
 266.004882812 158.24609375 266.004882812 158.24609375 266.080078125 232.024414062 c 2,56,-1
 266.080078125 1039.93847656 l 2,57,58
 266.006835938 1052.53417969 266.006835938 1052.53417969 257.774414062 1055.96679688 c 1,59,-1
 257.455078125 1056.02539062 l 2,60,61
 255.10546875 1056 255.10546875 1056 254.1015625 1056 c 0,62,63
 224.288085938 1055.42480469 224.288085938 1055.42480469 124.671875 1019.8515625 c 2,64,-1
 107.641601562 1013.4375 l 1,65,-1
 94.076171875 1031.28515625 l 2,66,67
 66.3681640625 1066.74316406 66.3681640625 1066.74316406 64.1318359375 1105.90429688 c 2,68,-1
 64 1107.76367188 l 1,69,-1
 64.203125 1110 l 2,70,71
 66.0986328125 1116.72753906 66.0986328125 1116.72753906 75.91796875 1119.6484375 c 0,72,73
 79.955078125 1120.44921875 79.955078125 1120.44921875 83.5625 1121.00585938 c 0,0,1
EndSplineSet
Layer: 2
SplineSet
92.19921875 1152.58886719 m 0,0,1
 181.817497993 1192.9019513 181.817497993 1192.9019513 340.80078125 1268.40820312 c 0,2,3
 435.737710036 1313.35259731 435.737710036 1313.35259731 440.6875 1314.7421875 c 0,4,-1
 445.219726562 1314.80859375 l 1,5,6
 458.89581656 1311.90061975 458.89581656 1311.90061975 465.958007812 1282.20019531 c 0,7,-1
 454.9765625 1205.50390625 l 1,8,9
 450.03515076 1148.17661467 450.03515076 1148.17661467 449.994140625 1087.83300781 c 2,10,-1
 449.99609375 261.834960938 l 2,11,12
 450.130976213 146.450800408 450.130976213 146.450800408 459.942382812 114.271484375 c 1,13,14
 467.631130849 92.8094026047 467.631130849 92.8094026047 565.259765625 83.8046875 c 0,15,16
 579.306070951 82.8524036956 579.306070951 82.8524036956 587.169921875 82.8076171875 c 2,17,-1
 587.579101562 82.8076171875 l 1,18,19
 598.617905667 68.1044992812 598.617905667 68.1044992812 593.935546875 38.2373046875 c 1,20,-1
 594.048836489 36.4413109785 l 1,21,22
 595.739525398 28.3692620702 595.739525398 28.3692620702 572.358574929 -1.17993788229 c 0,23,24
 571.035992426 -2.84274463824 571.035992426 -2.84274463824 570.508789062 -3.5048828125 c 2,25,-1
 543.657226562 -37.0751953125 l 1,26,-1
 536.77734375 -36.810546875 l 2,27,28
 510.751464844 -35.80859375 510.751464844 -35.80859375 463.747070312 -32.80859375 c 0,29,30
 367.770507812 -26.80859375 367.770507812 -26.80859375 314.826171875 -26.8115234375 c 0,31,32
 285.296749111 -26.8983999814 285.296749111 -26.8983999814 117.864257812 -35.8115234375 c 0,33,34
 108.498540374 -35.9225885921 108.498540374 -35.9225885921 101.03125 -36.7939453125 c 0,35,-1
 100.25 -36.6015625 l 1,36,37
 97.7699318995 -34.1223739602 97.7699318995 -34.1223739602 96.0766893934 -30.785066797 c 128,-1,38
 94.3834468874 -27.4477596338 94.3834468874 -27.4477596338 93.4730293566 -23.236058203 c 128,-1,39
 92.5626118257 -19.0243567722 92.5626118257 -19.0243567722 92.4407206434 -13.938082422 c 128,-1,40
 92.3188294612 -8.85180807183 92.3188294612 -8.85180807183 92.9849512316 -2.87790195299 c 128,-1,41
 93.651073002 3.09600416585 93.651073002 3.09600416585 95.107421875 9.9609375 c 0,42,43
 95.2946744211 10.8031949039 95.2946744211 10.8031949039 95.1333549705 12.1266967615 c 0,44,45
 94.3465366176 18.5819354032 94.3465366176 18.5819354032 110.476885335 40.3702648516 c 0,46,47
 111.697879044 42.0092475084 111.697879044 42.0092475084 112.173828125 42.6474609375 c 2,48,-1
 142.291992188 82.8125 l 1,49,-1
 151.173828125 82.8115234375 l 2,50,51
 195.826987726 83.0301082428 195.826987726 83.0301082428 235.301757812 93.2685546875 c 1,52,53
 239.965771099 135.575963884 239.965771099 135.575963884 240.00390625 202.166015625 c 2,54,-1
 240.001953125 1010.16308594 l 2,55,56
 239.141529007 1077.56948084 239.141529007 1077.56948084 207.607421875 1084.20800781 c 0,57,58
 202.37575283 1085.09104206 202.37575283 1085.09104206 198.829101562 1085.19042969 c 0,59,60
 163.933368355 1084.6217683 163.933368355 1084.6217683 59.734375 1045.39160156 c 2,61,-1
 58.6904296875 1044.99804688 l 1,62,-1
 58.2734375 1045.37109375 l 2,63,64
 39.5077373415 1063.13010437 39.5077373415 1063.13010437 38.0068359375 1080.04296875 c 0,65,-1
 38.0146484375 1080.40917969 l 1,66,67
 38.0146484375 1080.40917969 38.0146484375 1080.40917969 68.0492764702 1128.53275311 c 1,68,69
 83.5661294006 1148.98468882 83.5661294006 1148.98468882 92.19921875 1152.58886719 c 0,0,1
EndSplineSet
Layer: 3
SplineSet
266 232 m 2,0,-1
 266 1040 l 2,1,2
 266 1109 266 1109 233 1115 c 0,3,4
 228 1116 228 1116 224 1116 c 0,5,6
 190 1116 190 1116 84 1076 c 1,7,8
 65 1093 65 1093 64 1110 c 1,9,10
 65 1121 65 1121 68 1122 c 0,11,12
 157 1162 157 1162 317 1238 c 0,13,14
 412 1283 412 1283 416 1284 c 2,15,-1
 420 1284 l 2,16,17
 433 1283 433 1283 440 1252 c 1,18,19
 429 1176 l 1,20,21
 424 1119 424 1119 424 1058 c 2,22,-1
 424 232 l 2,23,24
 424 116 424 116 434 84 c 0,25,26
 440 62 440 62 540 53 c 0,27,28
 554 52 554 52 562 52 c 1,29,30
 573 39 573 39 568 9 c 0,31,32
 566 -1 566 -1 562 -6 c 1,33,34
 536 -5 536 -5 489 -2 c 0,35,36
 393 4 393 4 340 4 c 0,37,38
 312 4 312 4 143 -5 c 0,39,40
 134 -5 134 -5 126 -6 c 1,41,42
 114 6 114 6 121 39 c 0,43,44
 123 48 123 48 126 52 c 1,45,46
 181 52 181 52 229 68 c 0,47,48
 251 76 251 76 254 84 c 0,49,50
 266 123 266 123 266 232 c 2,0,-1
EndSplineSet
Comment: "From Linux Libertine, svn trunk@143" 
Colour: aabbcc
EndChar

StartChar: two
Encoding: 50 50 475
Width: 1090
Flags: W
LayerCount: 3
Fore
SplineSet
978 384 m 1,0,1
 964 325 964 325 861 9 c 0,2,3
 859 3 859 3 858 0 c 1,4,-1
 130 0 l 1,5,6
 117 14 117 14 112 36 c 1,7,8
 141 68 141 68 195 127 c 0,9,10
 355 299 355 299 432 403 c 0,11,12
 482 470 482 470 528 542 c 0,13,14
 644 726 644 726 644 898 c 0,15,16
 644 1003 644 1003 567 1073 c 1,17,18
 505 1128 505 1128 430 1128 c 0,19,20
 310 1128 310 1128 211 1000 c 0,21,22
 202 988 202 988 200 986 c 1,23,24
 185 986 185 986 169 1006 c 0,25,26
 158 1019 158 1019 158 1034 c 1,27,28
 189 1104 189 1104 268 1172 c 0,29,30
 399 1284 399 1284 558 1284 c 0,31,32
 719 1284 719 1284 817 1185 c 1,33,34
 906 1093 906 1093 906 948 c 0,35,36
 905 778 905 778 754 600 c 1,37,38
 543 355 543 355 378 204 c 1,39,-1
 722 204 l 2,40,41
 819 204 819 204 874 305 c 0,42,43
 883 321 883 321 910 382 c 1,44,45
 917 395 917 395 938 396 c 1,46,47
 963 395 963 395 978 384 c 1,0,1
EndSplineSet
EndChar

StartChar: three
Encoding: 51 51 481
Width: 1090
Flags: W
LayerCount: 3
Fore
SplineSet
576 1284 m 0,0,1
 671 1284 671 1284 755 1236 c 1,2,3
 877 1164 877 1164 878 1028 c 1,4,5
 878 891 878 891 741 791 c 0,6,7
 698 759 698 759 660 744 c 1,8,9
 732 739 732 739 809 695 c 0,10,11
 957 609 957 609 958 440 c 1,12,13
 958 253 958 253 808 125 c 0,14,15
 679 15 679 15 498 -7 c 0,16,17
 461 -12 461 -12 424 -12 c 0,18,19
 280 -12 280 -12 181 45 c 0,20,21
 166 54 166 54 156 62 c 1,22,23
 137 95 137 95 132 148 c 1,24,25
 132 200 132 200 172 232 c 0,26,27
 200 254 200 254 236 254 c 0,28,29
 284 254 284 254 344 184 c 0,30,31
 348 179 348 179 356 169 c 0,32,33
 362 163 362 163 364 160 c 0,34,35
 440 73 440 73 504 72 c 1,36,37
 640 72 640 72 678 228 c 0,38,39
 692 284 692 284 692 356 c 0,40,41
 692 488 692 488 622 572 c 0,42,43
 562 643 562 643 476 644 c 0,44,45
 430 644 430 644 364 626 c 1,46,47
 349 646 349 646 348 674 c 1,48,-1
 348 692 l 1,49,50
 513 721 513 721 592 799 c 0,51,52
 644 851 644 851 644 916 c 0,53,54
 644 1034 644 1034 572 1095 c 0,55,56
 523 1136 523 1136 456 1136 c 0,57,58
 359 1136 359 1136 259 1053 c 0,59,60
 243 1040 243 1040 236 1032 c 1,61,62
 220 1037 220 1037 213 1076 c 0,63,64
 212 1083 212 1083 212 1088 c 1,65,66
 304 1209 304 1209 436 1259 c 1,67,68
 506 1284 506 1284 576 1284 c 0,0,1
EndSplineSet
EndChar

StartChar: four
Encoding: 52 52 487
Width: 986
Flags: W
HStem: -12 42G<654 717> 348 114<158 604 762 906> 1248 40G<724 742>
VStem: 604 158<-11 348 462 1048>
LayerCount: 4
Fore
SplineSet
61.55859375 318 m 1,0,1
 22.4040913708 341.928046406 22.4040913708 341.928046406 22 386 c 2,2,-1
 22 396.13671875 l 1,3,-1
 678.07421875 1237.84472656 l 1,4,5
 723.204829412 1287.53306803 723.204829412 1287.53306803 772.289861447 1287.76653401 c 128,-1,6
 821.374893481 1288 821.374893481 1288 822 1251.70214844 c 2,7,-1
 822 492 l 1,8,-1
 912 492 l 2,9,10
 949.286138679 492 949.286138679 492 964.171052286 428.250226374 c 0,11,12
 979.055965894 364.500452747 979.055965894 364.500452747 948.055664062 318 c 1,13,-1
 822 318 l 1,14,-1
 822 5.54296875 l 1,15,-1
 785.130859375 -7.466796875 l 1,16,17
 756.190709708 -11.9544635511 756.190709708 -11.9544635511 683.476291112 -10.4281686154 c 128,-1,18
 610.761872515 -8.90187367963 610.761872515 -8.90187367963 604 8.3115234375 c 1,19,-1
 604 318 l 1,20,-1
 61.55859375 318 l 1,0,1
604 959.047851562 m 1,21,-1
 248.533203125 492 l 1,22,-1
 604 492 l 1,23,-1
 604 959.047851562 l 1,21,-1
EndSplineSet
Layer: 2
SplineSet
746.423828125 1315.23632812 m 0,0,1
 752.85290407 1318.61166662 752.85290407 1318.61166662 757.172851562 1318.81152344 c 0,2,3
 780.464428622 1317.05160292 780.464428622 1317.05160292 786.962890625 1292.16699219 c 0,4,5
 787.903697198 1286.50685491 787.903697198 1286.50685491 787.995117188 1281.83300781 c 2,6,-1
 787.99609375 492.811523438 l 1,7,-1
 907.171875 492.809570312 l 1,8,9
 921.020025742 490.851177191 921.020025742 490.851177191 930.955078125 451.212890625 c 0,10,11
 935.874324286 429.577442278 935.874324286 429.577442278 935.993164062 409.83203125 c 128,-1,12
 935.99463816 390.006898281 935.99463816 390.006898281 929.432730882 378.111481736 c 0,13,14
 925.966304433 372.057959262 925.966304433 372.057959262 921.901367188 365.890625 c 2,15,-1
 889.431640625 317.1875 l 1,16,-1
 787.997070312 317.190429688 l 1,17,-1
 787.99609375 -12.4970703125 l 1,18,-1
 722.426757812 -38.734375 l 1,19,20
 697.008846038 -42.7556486736 697.008846038 -42.7556486736 652.799804688 -42.810546875 c 1,21,22
 582.961656535 -39.4313072681 582.961656535 -39.4313072681 578.061523438 -26.2861328125 c 0,23,-1
 578.005859375 317.190429688 l 1,24,-1
 14.5517578125 317.19140625 l 1,25,-1
 14.3671875 317.3046875 l 1,26,27
 -3.53552935899 329.649075032 -3.53552935899 329.649075032 -3.994140625 356.166992188 c 2,28,-1
 -3.9931640625 360.712890625 l 1,29,-1
 658.806640625 1229.4921875 l 2,30,31
 710.88806703 1298.4744757 710.88806703 1298.4744757 746.423828125 1315.23632812 c 0,0,1
578.002929688 1005.01757812 m 1,32,-1
 188.16796875 492.8125 l 1,33,-1
 578.00390625 492.810546875 l 1,34,-1
 578.002929688 1005.01757812 l 1,32,-1
EndSplineSet
Layer: 3
SplineSet
732 1288 m 0,0,1
 755 1288 755 1288 761 1262 c 0,2,3
 762 1257 762 1257 762 1252 c 2,4,-1
 762 462 l 1,5,-1
 882 462 l 2,6,7
 895 462 895 462 905 421 c 0,8,9
 910 400 910 400 910 380 c 0,10,11
 910 360 910 360 902 348 c 1,12,-1
 762 348 l 1,13,-1
 762 -2 l 1,14,15
 747 -8 l 1,16,17
 723 -12 723 -12 678 -12 c 1,18,19
 608 -9 608 -9 604 4 c 1,20,-1
 604 348 l 1,21,-1
 40 348 l 1,22,23
 22 359 22 359 22 386 c 1,24,-1
 672 1238 l 2,25,26
 699 1274 699 1274 723 1285 c 0,27,28
 728 1288 728 1288 732 1288 c 0,0,1
604 1048 m 25,29,-1
 158 462 l 1,30,-1
 604 462 l 1,31,-1
 604 1048 l 25,29,-1
EndSplineSet
Comment: "From Linux Libertine, svn trunk@143" 
Colour: aabbcc
EndChar

StartChar: five
Encoding: 53 53 488
Width: 906
Flags: W
HStem: -10 80<275 519> 678 112<235 502> 1112 158<298 701> 1248 40G<558 746>
VStem: 650 172<254 533>
LayerCount: 4
Fore
SplineSet
777.71875 1289.05566406 m 1,0,1
 798.093649716 1286.64484242 798.093649716 1286.64484242 816.655273438 1269.55761719 c 1,2,-1
 818.833007812 1273 l 1,3,4
 833.87052375 1259.96628631 833.87052375 1259.96628631 805.642781406 1186.0080455 c 128,-1,5
 777.415039062 1112.04980469 777.415039062 1112.04980469 756.77734375 1084.95214844 c 1,6,-1
 749.020507812 1065.59375 l 1,7,8
 621.716723117 1052.0525795 621.716723117 1052.0525795 504 1052 c 2,9,-1
 360.59375 1052 l 1,10,-1
 303.510742188 796.581054688 l 1,11,12
 389.995916971 819.733364922 389.995916971 819.733364922 474 820 c 0,13,14
 658.055664062 819.17578125 658.055664062 819.17578125 769.88382264 701.012106052 c 128,-1,15
 881.711981219 582.848430854 881.711981219 582.848430854 882 436 c 1,16,17
 881.095703125 252.694335938 881.095703125 252.694335938 739.653808594 134.449707031 c 0,18,19
 567.276946982 -9.65638049576 567.276946982 -9.65638049576 342 -10 c 0,20,21
 216.456033335 -9.54588799802 216.456033335 -9.54588799802 122.061523438 36.6025390625 c 1,22,-1
 121.059570312 36 l 1,23,24
 94.1943359375 50.9248046875 94.1943359375 50.9248046875 82.197265625 75.0463867188 c 128,-1,25
 70.2001953125 99.16796875 70.2001953125 99.16796875 70 112.39453125 c 0,26,27
 71.0224609375 208.134765625 71.0224609375 208.134765625 129.14453125 249.815429688 c 0,28,29
 155.291015625 267.766601562 155.291015625 267.766601562 182 267.999023438 c 0,30,31
 236.665039062 266.778320312 236.665039062 266.778320312 283.315429688 198.859375 c 1,32,33
 309.041015625 169.524414062 309.041015625 169.524414062 315.307617188 163.004882812 c 1,34,35
 358.80078125 130.262695312 358.80078125 130.262695312 444.129882812 130.529296875 c 128,-1,36
 529.458984375 130.795898438 529.458984375 130.795898438 587.096679688 187.037109375 c 1,37,38
 649.6953125 256.412109375 649.6953125 256.412109375 649.486328125 366.014648438 c 128,-1,39
 649.27734375 475.6171875 649.27734375 475.6171875 588.881835938 549.879882812 c 1,40,41
 505.995117188 647.583007812 505.995117188 647.583007812 358 648 c 0,42,43
 250.907708038 647.519802379 250.907708038 647.519802379 193.033203125 615.366210938 c 1,44,-1
 180.512695312 619.5390625 l 2,45,46
 149.663863715 630.814699366 149.663863715 630.814699366 145.756835938 677.666015625 c 1,47,-1
 262.530273438 1269.99707031 l 1,48,-1
 267.174804688 1270 l 1,49,-1
 586.520507812 1270 l 1,50,-1
 777.71875 1289.05566406 l 1,0,1
EndSplineSet
Layer: 2
SplineSet
469.169921875 820.807617188 m 0,0,1
 640.733596039 819.988302583 640.733596039 819.988302583 750.764648438 704.59375 c 1,2,3
 841.619738723 607.66637943 841.619738723 607.66637943 847.99609375 481.885742188 c 0,4,5
 847.993713142 473.282284823 847.993713142 473.282284823 847.99609375 465.833984375 c 0,6,7
 847.994636614 342.335841965 847.994636614 342.335841965 781.307682096 238.643528956 c 0,8,9
 778.637688842 234.523503685 778.637688842 234.523503685 776.563476562 231.389648438 c 0,10,11
 728.35364283 159.391888624 728.35364283 159.391888624 662.958984375 100.6328125 c 0,12,13
 532.361117683 -14.3517286985 532.361117683 -14.3517286985 356.008789062 -36.7998046875 c 0,14,15
 320.906738281 -40.8120117188 320.906738281 -40.8120117188 286.829101562 -40.80859375 c 0,16,17
 187.190379954 -40.4098195766 187.190379954 -40.4098195766 98.443359375 -2.736328125 c 0,18,19
 89.0802236764 1.53570694135 89.0802236764 1.53570694135 82.3603515625 5.306640625 c 0,20,21
 63.0114416095 19.5979885131 63.0114416095 19.5979885131 50.080078125 52.6572265625 c 0,22,23
 44.2033653356 69.2430053718 44.2033653356 69.2430053718 44.0029296875 82.1640625 c 0,24,25
 44.0042129608 114.163766032 44.0042129608 114.163766032 51.7093270164 130.213343744 c 0,26,27
 59.8736032125 146.497050323 59.8736032125 146.497050323 75.8369140625 167.609375 c 0,28,29
 110.4983422 212.880416082 110.4983422 212.880416082 138.115234375 228.047851562 c 0,30,31
 156.409450293 238.811590279 156.409450293 238.811590279 177.170898438 238.80859375 c 0,32,33
 218.053056385 237.615638867 218.053056385 237.615638867 255.794921875 191.553710938 c 0,34,35
 285.236908876 155.294141454 285.236908876 155.294141454 289.75 150.612304688 c 0,36,37
 340.533203125 100.819335938 340.533203125 100.819335938 437.172851562 100.810546875 c 0,38,39
 512.504055136 100.81178855 512.504055136 100.81178855 568.323113796 145.030588944 c 0,40,41
 573.075182943 148.918295934 573.075182943 148.918295934 576.423828125 151.983398438 c 1,42,43
 619.543127313 217.750416665 619.543127313 217.750416665 623.678468938 332.192512793 c 0,44,45
 623.98571991 341.677002203 623.98571991 341.677002203 624.002929688 350.1640625 c 0,46,47
 623.28552457 456.006250705 623.28552457 456.006250705 556.2109375 538.439453125 c 1,48,49
 465.392089844 647.214355469 465.392089844 647.214355469 302.827148438 647.189453125 c 0,50,51
 235.494918075 646.910133908 235.494918075 646.910133908 162.389648438 627.27734375 c 0,52,53
 145.144247462 622.336259914 145.144247462 622.336259914 136.748046875 617.874023438 c 2,54,-1
 135.19140625 617.008789062 l 1,55,56
 122.332903156 622.918328274 122.332903156 622.918328274 120.012695312 646.001953125 c 0,57,-1
 120.079101562 646.823242188 l 1,58,59
 228.073242188 1198.80712891 228.073242188 1198.80712891 236.073242188 1240.79882812 c 2,60,-1
 247.506835938 1300.81152344 l 1,61,-1
 583.099609375 1300.8125 l 1,62,-1
 765.418945312 1318.84179688 l 1,63,-1
 765.65625 1318.68261719 l 2,64,65
 769.532093301 1316.09863218 769.532093301 1316.09863218 772.16061217 1314.34175478 c 128,-1,66
 774.789131038 1312.58487738 774.789131038 1312.58487738 777.413972791 1310.82145323 c 128,-1,67
 780.038814544 1309.05802907 780.038814544 1309.05802907 781.689628735 1307.93191501 c 128,-1,68
 783.340442927 1306.80580095 783.340442927 1306.80580095 784.732730025 1305.83628251 c 128,-1,69
 786.125017122 1304.86676406 786.125017122 1304.86676406 786.851783322 1304.32122889 c 128,-1,70
 787.578549521 1303.77569371 787.578549521 1303.77569371 787.827148438 1303.52636719 c 0,71,72
 789.789681286 1298.69455829 789.789681286 1298.69455829 789.993164062 1295.83105469 c 0,73,74
 789.386381571 1271.73810464 789.386381571 1271.73810464 764.244140625 1212.13671875 c 0,75,76
 743.157166247 1162.52314297 743.157166247 1162.52314297 708.176895717 1121.18255889 c 0,77,78
 706.497757804 1119.20897215 706.497757804 1119.20897215 705.666015625 1118.234375 c 2,79,-1
 684.728515625 1093.80761719 l 1,80,-1
 678.993164062 1093.19824219 l 2,81,82
 565.895507812 1081.18798828 565.895507812 1081.18798828 448.829101562 1081.19042969 c 2,83,-1
 319.923828125 1081.18847656 l 1,84,-1
 260.373046875 783.43359375 l 1,85,86
 337.318173016 812.825067384 337.318173016 812.825067384 443.072265625 819.806640625 c 0,87,88
 458.396054214 820.770730875 458.396054214 820.770730875 469.169921875 820.807617188 c 0,0,1
EndSplineSet
Layer: 3
SplineSet
444 790 m 0,0,1
 615 790 615 790 725 674 c 0,2,3
 816 578 816 578 822 452 c 0,4,5
 822 444 822 444 822 436 c 0,6,7
 822 253 822 253 680 126 c 0,8,9
 556 16 556 16 381 -6 c 0,10,11
 346 -10 346 -10 312 -10 c 0,12,13
 213 -10 213 -10 124 28 c 0,14,15
 115 32 115 32 108 36 c 1,16,17
 89 49 89 49 76 83 c 0,18,19
 70 99 70 99 70 112 c 0,20,21
 70 173 70 173 115 198 c 0,22,23
 132 208 132 208 152 208 c 0,24,25
 192 208 192 208 230 161 c 0,26,27
 260 124 260 124 264 120 c 0,28,29
 315 70 315 70 412 70 c 0,30,31
 513 70 513 70 580 148 c 0,32,33
 650 232 650 232 650 380 c 0,34,35
 650 486 650 486 582 569 c 0,36,37
 491 678 491 678 328 678 c 0,38,39
 261 678 261 678 187 658 c 0,40,41
 169 653 169 653 160 648 c 1,42,43
 148 652 148 652 146 676 c 1,44,45
 254 1228 254 1228 262 1270 c 1,46,-1
 558 1270 l 1,47,-1
 740 1288 l 1,48,49
 761 1274 761 1274 762 1273 c 0,50,51
 764 1269 764 1269 764 1266 c 0,52,53
 764 1244 764 1244 739 1185 c 0,54,55
 722 1145 722 1145 704 1124 c 1,56,57
 591 1112 591 1112 474 1112 c 2,58,-1
 306 1112 l 1,59,60
 234 752 l 1,61,62
 310 782 310 782 418 789 c 0,63,64
 433 790 433 790 444 790 c 0,0,1
EndSplineSet
Comment: "From Linux Libertine, svn trunk@143" 
Colour: aabbcc
EndChar

StartChar: six
Encoding: 54 54 489
Width: 988
Flags: W
HStem: -12 66<416 606> 692 98<368 618> 1236 58<774 843>
VStem: 100 172<239 627> 728 170<220 569>
LayerCount: 4
Fore
SplineSet
646.4375 610.155273438 m 1,0,1
 590.278320312 661.640625 590.278320312 661.640625 497.173545121 661.462873097 c 128,-1,2
 404.068769929 661.285121193 404.068769929 661.285121193 340.391601562 598.298828125 c 1,3,4
 332.064453125 534.677734375 332.064453125 534.677734375 332 476 c 0,5,6
 332.423828125 334.939453125 332.423828125 334.939453125 388.99609375 222.467773438 c 1,7,8
 450.573242188 115.344726562 450.573242188 115.344726562 536.688964844 115.205078125 c 128,-1,9
 622.8046875 115.065429688 622.8046875 115.065429688 675.665039062 183.3515625 c 1,10,11
 726.818359375 259.154296875 726.818359375 259.154296875 728 368.1171875 c 1,12,13
 727.349609375 533.034179688 727.349609375 533.034179688 646.4375 610.155273438 c 1,0,1
382.424804688 772.0546875 m 1,14,15
 474.660036336 819.692298231 474.660036336 819.692298231 562 820 c 0,16,17
 784.828125 818.932617188 784.828125 818.932617188 892.694335938 642.485351562 c 1,18,19
 957.72265625 532.678710938 957.72265625 532.678710938 957.492675781 390.221679688 c 128,-1,20
 957.262695312 247.764648438 957.262695312 247.764648438 837.14959179 118.085223036 c 0,21,22
 717.036488267 -11.5942023651 717.036488267 -11.5942023651 529.949884759 -11.3586246201 c 128,-1,23
 342.86328125 -11.123046875 342.86328125 -11.123046875 221.596837772 122.679327985 c 0,24,25
 100.330394294 256.481702844 100.330394294 256.481702844 100 440 c 0,26,27
 100.627929688 729.249023438 100.627929688 729.249023438 255.946289062 936.928710938 c 1,28,29
 277.28125 954.66015625 277.28125 954.66015625 299.826171875 969.981445312 c 1,30,31
 439.497070312 1119.375 439.497070312 1119.375 657.912109375 1222.97851562 c 0,32,33
 757.424241822 1269.69888151 757.424241822 1269.69888151 860.260742188 1296.57324219 c 1,34,-1
 869.641601562 1294 l 2,35,36
 904.763671875 1283.73144531 904.763671875 1283.73144531 911.606445312 1238.26464844 c 0,37,38
 911.778320312 1236.63574219 911.778320312 1236.63574219 911.8515625 1235.94726562 c 2,39,-1
 914.25390625 1186.4375 l 1,40,-1
 891.297851562 1178.95507812 l 1,41,42
 501.700195312 1059.28613281 501.700195312 1059.28613281 382.424804688 772.0546875 c 1,14,15
EndSplineSet
Layer: 2
SplineSet
305.365234375 621.94921875 m 1,0,1
 298.049154384 561.232755248 298.049154384 561.232755248 297.99609375 505.834960938 c 0,2,3
 298.425533152 350.848961416 298.425533152 350.848961416 357.8828125 226.4140625 c 1,4,5
 427.52337269 86.5844696976 427.52337269 86.5844696976 535.170898438 84.8095703125 c 0,6,7
 595.017311298 84.8083239796 595.017311298 84.8083239796 640.903508988 121.197893358 c 0,8,9
 644.155584683 123.880531277 644.155584683 123.880531277 646.201171875 125.704101562 c 0,10,11
 648.345996453 128.876303571 648.345996453 128.876303571 649.6015625 130.811523438 c 0,12,13
 699.746098268 210.504548169 699.746098268 210.504548169 701.940736706 333.247065162 c 0,14,15
 701.984599648 336.206779166 701.984599648 336.206779166 702.00390625 338.1640625 c 0,16,17
 702.005371094 515.581542969 702.005371094 515.581542969 611.26171875 601.379882812 c 1,18,19
 546.662041727 660.821499393 546.662041727 660.821499393 450.829101562 661.190429688 c 0,20,21
 364.039570388 660.72713751 364.039570388 660.72713751 305.365234375 621.94921875 c 1,0,1
557.172851562 820.811523438 m 0,22,23
 763.720214844 820.811523438 763.720214844 820.811523438 862.8515625 657.471679688 c 1,24,25
 923.721452395 554.621234914 923.721452395 554.621234914 923.993164062 435.831054688 c 0,26,27
 923.995567842 311.491969648 923.995567842 311.491969648 861.620729355 210.427219434 c 0,28,29
 834.862848626 167.49634187 834.862848626 167.49634187 796.170898438 122.655273438 c 0,30,31
 694.416202763 3.94162748718 694.416202763 3.94162748718 582.994850807 -26.9832996253 c 0,32,33
 552.629266203 -35.2555158653 552.629266203 -35.2555158653 517.022460938 -39.794921875 c 0,34,35
 491.922477038 -42.8120143057 491.922477038 -42.8120143057 466.831054688 -42.8076171875 c 0,36,37
 301.197696846 -41.8476113074 301.197696846 -41.8476113074 188.212890625 91.4365234375 c 1,38,39
 91.291578634 207.361161627 91.291578634 207.361161627 76.0087890625 363.999023438 c 0,40,41
 74.0464047324 388.514828332 74.0464047324 388.514828332 74.00390625 410.1640625 c 0,42,43
 74.00390625 642.338522337 74.00390625 642.338522337 175.878495542 818.839644689 c 0,44,45
 202.42977902 864.541385295 202.42977902 864.541385295 235.75390625 909.087890625 c 0,46,47
 264.628148822 947.851461618 264.628148822 947.851461618 296.359375 982.58984375 c 0,48,49
 439.724459146 1140.82167826 439.724459146 1140.82167826 646.434650782 1244.34962642 c 0,50,51
 655.972960747 1249.11219147 655.972960747 1249.11219147 664.736328125 1253.37792969 c 0,52,53
 764.665574666 1301.61977561 764.665574666 1301.61977561 852.658203125 1324.73632812 c 0,54,-1
 853.545898438 1324.74511719 l 1,55,56
 872.787367764 1315.01650314 872.787367764 1315.01650314 877.985351562 1266.02636719 c 2,57,-1
 882.268554688 1223.16308594 l 1,58,-1
 827.541992188 1205.32324219 l 2,59,60
 625.064651198 1139.31825842 625.064651198 1139.31825842 492.311050373 1023.47869077 c 0,61,62
 468.133145611 1002.18027125 468.133145611 1002.18027125 450.092773438 982.29296875 c 0,63,64
 382.529916305 907.323335279 382.529916305 907.323335279 339.283796593 780.469242727 c 0,65,66
 331.233119228 756.627522534 331.233119228 756.627522534 325.077148438 733.555664062 c 1,67,68
 410.605580307 800.1178894 410.605580307 800.1178894 514.881835938 816.784179688 c 0,69,70
 537.029299835 820.810056638 537.029299835 820.810056638 557.172851562 820.811523438 c 0,22,23
EndSplineSet
Layer: 3
SplineSet
282 612 m 1,0,1
 272 542 272 542 272 476 c 0,2,3
 272 321 272 321 332 196 c 1,4,5
 401 55 401 55 510 54 c 0,6,7
 609 54 609 54 671 151 c 0,8,9
 727 240 727 240 728 368 c 0,10,11
 728 546 728 546 637 632 c 0,12,13
 573 692 573 692 476 692 c 0,14,15
 372 692 372 692 306 635 c 0,16,17
 293 624 293 624 282 612 c 1,0,1
532 790 m 0,18,19
 738 790 738 790 837 627 c 0,20,21
 898 525 898 525 898 406 c 0,22,23
 898 248 898 248 795 129 c 0,24,25
 693 10 693 10 542 -9 c 0,26,27
 517 -12 517 -12 492 -12 c 0,28,29
 327 -12 327 -12 214 122 c 0,30,31
 117 237 117 237 102 394 c 0,32,33
 100 418 100 418 100 440 c 0,34,35
 100 719 100 719 250 919 c 0,36,37
 270 946 270 946 292 970 c 0,38,39
 427 1119 427 1119 641 1223 c 0,40,41
 740 1271 740 1271 828 1294 c 1,42,43
 847 1286 847 1286 852 1236 c 1,44,45
 398 1088 398 1088 298 700 c 1,46,47
 382 769 382 769 490 786 c 0,48,49
 512 790 512 790 532 790 c 0,18,19
EndSplineSet
Comment: "From Linux Libertine, svn trunk@143" 
Colour: aabbcc
EndChar

StartChar: seven
Encoding: 55 55 490
Width: 904
Flags: W
HStem: -10 42G<269 289> 1120 146<160 764>
LayerCount: 4
Fore
SplineSet
916.599609375 1272 m 1,0,1
 955.48168176 1269.89611063 955.48168176 1269.89611063 956.357421875 1253.33105469 c 0,2,3
 956.357421875 1210.59098364 956.357421875 1210.59098364 908.74609375 1120.71289062 c 0,4,5
 902.1953125 1108.34667969 902.1953125 1108.34667969 895.536132812 1094.56445312 c 2,6,-1
 366.7890625 0.20703125 l 1,7,-1
 361.880859375 -3.4169921875 l 1,8,9
 345.724609375 -9.8984375 345.724609375 -9.8984375 309.444824219 -9.73486328125 c 128,-1,10
 273.165039062 -9.5712890625 273.165039062 -9.5712890625 232.72265625 9.0830078125 c 1,11,12
 206.509855253 15.769124844 206.509855253 15.769124844 202.588867188 26.9853515625 c 1,13,-1
 201.2109375 49.85546875 l 1,14,15
 314.706301511 221.328228717 314.706301511 221.328228717 439.731445312 452.323242188 c 1,16,17
 581.56640625 725.584960938 581.56640625 725.584960938 677.212890625 928.7734375 c 1,18,-1
 753.083984375 1060 l 1,19,-1
 292.357421875 1060 l 2,20,21
 238.608398438 1059.18945312 238.608398438 1059.18945312 212.3671875 1028.87597656 c 1,22,23
 195.045898438 1000.59082031 195.045898438 1000.59082031 179.220703125 949.590820312 c 1,24,-1
 179.034179688 947.67578125 l 1,25,-1
 178.817382812 946.220703125 l 1,26,27
 167.155273438 924.399414062 167.155273438 924.399414062 132.791992188 924.436035156 c 128,-1,28
 98.4287109375 924.47265625 98.4287109375 924.47265625 73.88671875 938.694335938 c 1,29,-1
 50 950.637695312 l 1,30,-1
 57.7646484375 966 l 1,31,32
 111.336914062 1136.49511719 111.336914062 1136.49511719 139.029296875 1265.98730469 c 1,33,-1
 144.130859375 1266 l 1,34,-1
 778.357421875 1266 l 1,35,-1
 912.357421875 1272 l 1,36,-1
 916.599609375 1272 l 1,0,1
EndSplineSet
Layer: 2
SplineSet
767.169921875 1296.80761719 m 2,0,1
 803.140452255 1296.90221607 803.140452255 1296.90221607 874.107421875 1301.80664062 c 0,2,3
 896.714593228 1302.7784949 896.714593228 1302.7784949 901.259765625 1302.81152344 c 1,4,5
 915.278447765 1299.05816364 915.278447765 1299.05816364 915.997070312 1283.8359375 c 1,6,7
 915.199700297 1263.11184057 915.199700297 1263.11184057 875.416015625 1183.37792969 c 0,8,9
 863.539284495 1160.53098177 863.539284495 1160.53098177 856.90234375 1146.37402344 c 2,10,-1
 318.548828125 -4.0234375 l 1,11,-1
 287.790039062 -30.390625 l 2,12,13
 274.758363844 -41.5610887894 274.758363844 -41.5610887894 261.764360071 -40.8925934557 c 0,14,15
 259.704401968 -40.8291026864 259.704401968 -40.8291026864 258.828125 -40.810546875 c 0,16,17
 219.162042168 -40.2937422294 219.162042168 -40.2937422294 185.370117188 -21.69921875 c 1,18,19
 171.668091177 -11.978415628 171.668091177 -11.978415628 170.020507812 -4.064453125 c 2,20,-1
 169.70703125 -1.546875 l 1,21,-1
 175.849609375 7.734375 l 2,22,23
 265.652665599 143.70375722 265.652665599 143.70375722 405.704101562 413.350585938 c 0,24,25
 547.439453125 686.340332031 547.439453125 686.340332031 643.120117188 889.676757812 c 2,26,-1
 737.010742188 1089.19238281 l 1,27,-1
 230.828125 1089.19042969 l 2,28,29
 194.91252044 1088.78247961 194.91252044 1088.78247961 168.447265625 1073.25390625 c 1,30,31
 153.287996335 1042.01586703 153.287996335 1042.01586703 139.739257812 994.458984375 c 1,32,33
 128.246647541 959.959742082 128.246647541 959.959742082 75.5202140751 928.587109596 c 0,34,35
 66.4486395146 923.189453125 66.4486395146 923.189453125 64.8271484375 923.189453125 c 0,36,37
 44.1394405134 923.758869078 44.1394405134 923.758869078 26.3876953125 934.288085938 c 1,38,-1
 23.6630859375 935.655273438 l 1,39,-1
 24.2861328125 937.615234375 l 2,40,41
 78.1791992188 1107.27929688 78.1791992188 1107.27929688 106.099609375 1236.92480469 c 2,42,-1
 118.999023438 1296.81347656 l 1,43,-1
 767.169921875 1296.80761719 l 2,0,1
EndSplineSet
Layer: 3
SplineSet
742 1266 m 2,0,1
 777 1266 777 1266 849 1271 c 0,2,3
 872 1272 872 1272 876 1272 c 0,4,5
 890 1270 890 1270 890 1254 c 0,6,7
 890 1236 890 1236 851 1158 c 0,8,9
 839 1135 839 1135 832 1120 c 2,10,-1
 306 -4 l 1,11,12
 299 -10 299 -10 284 -10 c 0,13,14
 245 -10 245 -10 211 9 c 0,15,16
 197 18 197 18 196 26 c 1,17,18
 288 165 288 165 430 438.5 c 128,-1,19
 572 712 572 712 668 916 c 2,20,-1
 764 1120 l 1,21,-1
 256 1120 l 2,22,23
 185 1120 185 1120 150 1059 c 0,24,25
 131 1026 131 1026 114 966 c 0,26,27
 110 954 110 954 90 954 c 0,28,29
 70 954 70 954 52 965 c 0,30,31
 50 966 l 0,32,33
 104 1136 104 1136 132 1266 c 1,34,-1
 742 1266 l 2,0,1
EndSplineSet
Comment: "From Linux Libertine, svn trunk@143" 
Colour: aabbcc
EndChar

StartChar: eight
Encoding: 56 56 491
Width: 992
Flags: W
HStem: -18 72<379 615> 1216 70<399 590>
VStem: 114 158<154 450> 170 148<861 1112> 686 144<848 1124> 706 162<173 406>
LayerCount: 4
Fore
SplineSet
520 113.999023438 m 0,0,1
 628.822265625 114.798828125 628.822265625 114.798828125 677.385742188 177.673828125 c 1,2,3
 705.762695312 219.916015625 705.762695312 219.916015625 706 276.373046875 c 0,4,5
 704.551757812 392.626953125 704.551757812 392.626953125 541.125976562 513.90625 c 0,6,7
 505.036132812 540.586914062 505.036132812 540.586914062 468.690429688 561.8828125 c 1,8,9
 367.360351562 493.694335938 367.360351562 493.694335938 342.974609375 403.22265625 c 0,10,11
 332.12109375 362.319335938 332.12109375 362.319335938 332 314 c 0,12,13
 332.813476562 209.310546875 332.813476562 209.310546875 408.583984375 150.78125 c 1,14,15
 460.655273438 114.3125 460.655273438 114.3125 520 113.999023438 c 0,0,1
632.784179688 1107.62695312 m 1,16,17
 583.966796875 1154.95996094 583.966796875 1154.95996094 520.782714844 1154.98828125 c 128,-1,18
 457.598632812 1155.01660156 457.598632812 1155.01660156 415.884765625 1107.21582031 c 1,19,20
 379.163085938 1058.25 379.163085938 1058.25 378 995.333984375 c 1,21,22
 379.305664062 876.631835938 379.305664062 876.631835938 506.455078125 792.084960938 c 0,23,24
 525.796875 779.624023438 525.796875 779.624023438 567.6328125 755.88671875 c 1,25,26
 684.623046875 838.479492188 684.623046875 838.479492188 686 971.788085938 c 1,27,28
 685.315429688 1050.32226562 685.315429688 1050.32226562 632.784179688 1107.62695312 c 1,16,17
890 991.78125 m 1,29,30
 888.737061118 818.568246038 888.737061118 818.568246038 683.258789062 682.7109375 c 1,31,32
 800.142578125 608.486328125 800.142578125 608.486328125 863.34765625 514.646972656 c 128,-1,33
 926.552734375 420.807617188 926.552734375 420.807617188 928 334.192382812 c 1,34,35
 927.12890625 191.649414062 927.12890625 191.649414062 806.832672651 87.038641632 c 128,-1,36
 686.536439052 -17.5721307981 686.536439052 -17.5721307981 505.500641401 -17.4393857115 c 128,-1,37
 324.46484375 -17.306640625 324.46484375 -17.306640625 219.435058594 79.87109375 c 128,-1,38
 114.405273438 177.048828125 114.405273438 177.048828125 114 308 c 1,39,40
 115.282226562 477.848632812 115.282226562 477.848632812 320.938476562 617.678710938 c 0,41,42
 328.12109375 622.665039062 328.12109375 622.665039062 357.92578125 641.967773438 c 1,43,44
 171.64576334 772.599073832 171.64576334 772.599073832 171.096679688 975.32470703 c 0,45,46
 170.811523438 1080.60644531 170.811523438 1080.60644531 275.469532179 1183.15960804 c 128,-1,47
 380.127540919 1285.71277076 380.127540919 1285.71277076 537.115039991 1285.51800648 c 128,-1,48
 694.102539062 1285.32324219 694.102539062 1285.32324219 791.842285156 1200.04833985 c 128,-1,49
 889.58203125 1114.7734375 889.58203125 1114.7734375 890 991.78125 c 1,29,30
EndSplineSet
Layer: 2
SplineSet
515.173828125 84.8125 m 0,0,1
 597.582857695 84.8097870348 597.582857695 84.8097870348 648.887761891 124.003653612 c 0,2,3
 650.892479854 125.581402091 650.892479854 125.581402091 651.877929688 126.37109375 c 0,4,5
 679.740997758 177.269434476 679.740997758 177.269434476 680.00390625 246.165039062 c 0,6,7
 678.652178555 377.063092543 678.652178555 377.063092543 503.315429688 507.333007812 c 0,8,9
 463.826549937 536.529996608 463.826549937 536.529996608 424.409179688 559.275390625 c 1,10,11
 415.608460488 563.189453125 415.608460488 563.189453125 412.959960938 563.189453125 c 2,12,-1
 406.615234375 561.764648438 l 1,13,14
 363.416564207 533.88147473 363.416564207 533.88147473 342.133789062 510.65234375 c 1,15,16
 321.514467938 482.625989546 321.514467938 482.625989546 309.819335938 439.733398438 c 0,17,18
 298.119639036 395.744088349 298.119639036 395.744088349 297.994140625 343.833007812 c 0,19,20
 298.827185379 211.301295674 298.827185379 211.301295674 384.71484375 135.638671875 c 1,21,22
 445.136492259 85.1976964743 445.136492259 85.1976964743 515.173828125 84.8125 c 0,0,1
464.8203125 1185.19042969 m 1,23,24
 414.821534725 1184.23537708 414.821534725 1184.23537708 378.540039062 1155.2265625 c 1,25,26
 345.215746259 1099.8307991 345.215746259 1099.8307991 343.998046875 1025.83691406 c 1,27,28
 345.234006708 891.225846616 345.234006708 891.225846616 485.65234375 797.690429688 c 0,29,30
 506.706853467 784.11417601 506.706853467 784.11417601 551.602539062 758.717773438 c 0,31,32
 559.189967404 755.182660802 559.189967404 755.182660802 563.0625 754.810546875 c 1,33,34
 568.769479114 755.830629584 568.769479114 755.830629584 572.870117188 757.903320312 c 1,35,36
 572.735134549 757.727105035 572.735134549 757.727105035 583.985378689 766.917534722 c 128,-1,37
 595.23562283 776.10796441 595.23562283 776.10796441 606.55335829 785.386501736 c 2,38,-1
 617.87109375 794.665039062 l 1,39,40
 646.369420751 833.312575345 646.369420751 833.312575345 656.906617041 903.544350587 c 0,41,42
 659.809069181 923.849040004 659.809069181 923.849040004 660.00390625 942.166015625 c 0,43,44
 659.313681307 1041.9640337 659.313681307 1041.9640337 600.208007812 1115.44140625 c 1,45,46
 542.672635396 1183.7072926 542.672635396 1183.7072926 464.8203125 1185.19042969 c 1,23,24
527.171875 1316.80957031 m 0,47,48
 677.694672984 1316.08464996 677.694672984 1316.08464996 771.745117188 1227.61425781 c 1,49,50
 855.589134538 1145.55608466 855.589134538 1145.55608466 855.995117188 1021.83300781 c 0,51,52
 855.995117188 942.884423335 855.995117188 942.884423335 808.040955587 868.920459898 c 0,53,54
 799.754248732 856.267260557 799.754248732 856.267260557 790.791992188 843.9375 c 0,55,56
 729.016571349 759.862456047 729.016571349 759.862456047 644.905273438 699.005859375 c 1,57,58
 769.502686699 624.544734056 769.502686699 624.544734056 837.83203125 524.50390625 c 1,59,60
 892.660664292 441.802271034 892.660664292 441.802271034 893.994140625 363.833007812 c 1,61,62
 893.350999703 266.344646158 893.350999703 266.344646158 841.779296875 183.239257812 c 0,63,64
 802.805780404 121.391426164 802.805780404 121.391426164 745.153320312 66.6455078125 c 0,65,66
 641.710027505 -30.7737106312 641.710027505 -30.7737106312 511.097223864 -45.6929985795 c 0,67,68
 499.279904755 -46.9983471019 499.279904755 -46.9983471019 487.934570312 -47.806640625 c 0,69,70
 473.428960518 -48.7746394674 473.428960518 -48.7746394674 460.831054688 -48.8076171875 c 0,71,72
 281.422851562 -48.810546875 281.422851562 -48.810546875 176.248046875 56.400390625 c 1,73,74
 88.4014531017 146.433946219 88.4014531017 146.433946219 88.00390625 278.166015625 c 0,75,76
 88.00390625 355.737542366 88.00390625 355.737542366 137.650630655 431.095377059 c 0,77,78
 146.599632295 444.549088412 146.599632295 444.549088412 156.400390625 457.802734375 c 0,79,80
 227.523756339 552.979335493 227.523756339 552.979335493 329.756835938 622.182617188 c 0,81,82
 331.574387408 623.439297195 331.574387408 623.439297195 334.840820312 625.642578125 c 1,83,84
 244.871487185 684.07911504 244.871487185 684.07911504 192.146484375 769.522460938 c 1,85,86
 145.285513148 848.295021587 145.285513148 848.295021587 144.006835938 930.168945312 c 1,87,88
 144.41125145 991.52197063 144.41125145 991.52197063 167.189453125 1046.95800781 c 0,89,90
 196.562935841 1116.21661537 196.562935841 1116.21661537 266.418945312 1191.82324219 c 0,91,92
 356.239662785 1287.63332027 356.239662785 1287.63332027 451.328836886 1308.61633009 c 0,93,94
 473.304612677 1313.33976581 473.304612677 1313.33976581 498.047851562 1315.8046875 c 0,95,96
 513.574483954 1316.77657438 513.574483954 1316.77657438 527.171875 1316.80957031 c 0,47,48
EndSplineSet
Layer: 3
SplineSet
490 54 m 0,0,1
 616 54 616 54 673 146 c 0,2,3
 706 201 706 201 706 276 c 0,4,5
 706 407 706 407 529 538 c 0,6,7
 490 567 490 567 450 590 c 1,8,9
 441 594 441 594 438 594 c 0,10,11
 432 593 432 593 430 592 c 0,12,13
 312 517 312 517 284 411 c 0,14,15
 272 367 272 367 272 314 c 0,16,17
 272 181 272 181 359 105 c 0,18,19
 419 54 419 54 490 54 c 0,0,1
490 1216 m 0,20,21
 412 1216 412 1216 361 1141 c 0,22,23
 319 1078 319 1078 318 996 c 0,24,25
 318 861 318 861 460 767 c 0,26,27
 480 754 480 754 526 728 c 0,28,29
 534 724 534 724 538 724 c 0,30,31
 545 725 545 725 550 728 c 0,32,33
 685 819 685 819 686 972 c 0,34,35
 686 1072 686 1072 626 1146 c 0,36,37
 569 1215 569 1215 490 1216 c 0,20,21
502 1286 m 0,38,39
 652 1286 652 1286 746 1197 c 0,40,41
 830 1116 830 1116 830 992 c 0,42,43
 830 845 830 845 665 727 c 0,44,45
 641 710 641 710 606 688 c 1,46,47
 596 684 596 684 606 676 c 1,48,49
 740 600 740 600 812 494 c 0,50,51
 867 412 867 412 868 334 c 0,52,53
 868 192 868 192 760 90 c 0,54,55
 657 -7 657 -7 513 -17 c 0,56,57
 499 -18 499 -18 486 -18 c 0,58,59
 307 -18 307 -18 202 87 c 0,60,61
 114 176 114 176 114 308 c 0,62,63
 114 462 114 462 308 593 c 0,64,65
 315 598 315 598 374 636 c 1,66,67
 382 642 382 642 374 648 c 0,68,69
 275 707 275 707 218 800 c 0,70,71
 171 878 171 878 170 960 c 0,72,73
 170 1080 170 1080 260 1177 c 0,74,75
 350 1273 350 1273 473 1285 c 0,76,77
 488 1286 488 1286 502 1286 c 0,38,39
EndSplineSet
Comment: "From Linux Libertine, svn trunk@143" 
Colour: aabbcc
EndChar

StartChar: nine
Encoding: 57 57 492
Width: 986
Flags: W
HStem: -12 58<145 214> 492 98<370 620> 1228 66<382 572>
VStem: 90 170<713 1062> 716 172<655 1043>
LayerCount: 4
Fore
SplineSet
682.633789062 660.051757812 m 1,0,1
 689.949858673 720.75714483 689.949858673 720.75714483 690.002929688 776.163085938 c 0,2,3
 689.577840424 931.154872724 689.577840424 931.154872724 630.116210938 1055.58398438 c 1,4,5
 560.474196373 1195.41358939 560.474196373 1195.41358939 452.827148438 1197.18847656 c 0,6,7
 393.669226073 1197.18970856 393.669226073 1197.18970856 347.740962679 1161.30847979 c 0,8,9
 344.131012731 1158.37462449 344.131012731 1158.37462449 341.798828125 1156.29492188 c 0,10,11
 339.645493145 1153.11051143 339.645493145 1153.11051143 338.397460938 1151.18652344 c 0,12,13
 288.252880894 1071.49173151 288.252880894 1071.49173151 286.058286319 948.750036404 c 0,14,15
 286.014423686 945.79030724 286.014423686 945.79030724 285.995117188 943.833007812 c 0,16,17
 285.993652344 766.415527344 285.993652344 766.415527344 376.736328125 680.619140625 c 1,18,19
 441.341233231 621.182303466 441.341233231 621.182303466 537.168945312 620.807617188 c 0,20,21
 623.962139216 621.272338752 623.962139216 621.272338752 682.633789062 660.051757812 c 1,0,1
160.45703125 76.6748046875 m 2,22,23
 362.935566232 142.681726838 362.935566232 142.681726838 495.690837387 258.522521692 c 0,24,25
 519.868662415 279.820818842 519.868662415 279.820818842 537.909179688 299.708007812 c 0,26,27
 605.472677488 374.680219303 605.472677488 374.680219303 648.715761371 501.528732062 c 0,28,29
 656.766234668 525.370496496 656.766234668 525.370496496 662.921875 548.442382812 c 1,30,31
 577.3911183 481.88058154 577.3911183 481.88058154 473.063476562 465.205078125 c 0,32,33
 449.598310543 462.217644347 449.598310543 462.217644347 430.8671875 461.192382812 c 1,34,35
 224.377142153 462.2591085 224.377142153 462.2591085 125.146484375 624.526367188 c 1,36,37
 64.2809330629 727.38502762 64.2809330629 727.38502762 64.0048828125 846.166015625 c 0,38,39
 64.0036809126 970.506161568 64.0036809126 970.506161568 126.378277804 1071.57026575 c 0,40,41
 153.136241353 1114.50116156 153.136241353 1114.50116156 191.828125 1159.34179688 c 0,42,43
 293.582359596 1278.05589891 293.582359596 1278.05589891 405.007902582 1308.98469303 c 0,44,45
 435.373599665 1317.2576978 435.373599665 1317.2576978 470.981445312 1321.79882812 c 0,46,47
 496.576838399 1324.75135938 496.576838399 1324.75135938 521.172851562 1324.81152344 c 0,48,49
 686.800403626 1323.8457261 686.800403626 1323.8457261 799.791015625 1190.56738281 c 1,50,51
 896.70660097 1074.63678934 896.70660097 1074.63678934 911.989257812 918 c 0,52,53
 913.951238401 893.48837625 913.951238401 893.48837625 913.995117188 871.833984375 c 0,54,55
 913.995117188 639.660513871 913.995117188 639.660513871 812.123589984 463.163319024 c 0,56,57
 785.572731621 417.46196536 785.572731621 417.46196536 752.249023438 372.916015625 c 0,58,59
 723.374368107 334.152430042 723.374368107 334.152430042 691.639648438 299.409179688 c 0,60,61
 548.275044228 141.176741713 548.275044228 141.176741713 341.564250935 37.649270006 c 0,62,63
 332.026007544 32.886773972 332.026007544 32.886773972 323.262695312 28.62109375 c 0,64,65
 223.334771291 -19.6193840883 223.334771291 -19.6193840883 135.344726562 -42.732421875 c 0,66,-1
 134.45703125 -42.740234375 l 1,67,68
 115.215972842 -33.012687543 115.215972842 -33.012687543 110.013671875 15.9716796875 c 2,69,-1
 105.7265625 58.8330078125 l 1,70,-1
 160.45703125 76.6748046875 l 2,22,23
EndSplineSet
Layer: 2
SplineSet
707.608398438 683.701171875 m 1,0,1
 715.935546875 747.322265625 715.935546875 747.322265625 716 806 c 0,2,3
 715.576171875 947.060546875 715.576171875 947.060546875 659.00390625 1059.53222656 c 1,4,5
 597.426757812 1166.65527344 597.426757812 1166.65527344 507.862304688 1168.00390625 c 1,6,7
 425.1953125 1166.93457031 425.1953125 1166.93457031 372.334960938 1098.6484375 c 1,8,9
 321.181640625 1022.84570312 321.181640625 1022.84570312 320 913.8828125 c 1,10,11
 320.650390625 748.965820312 320.650390625 748.965820312 401.5625 671.844726562 c 1,12,13
 457.721679688 620.359375 457.721679688 620.359375 542 620 c 0,14,15
 635.014648438 620.65234375 635.014648438 620.65234375 692.505859375 669.803710938 c 0,16,17
 700.677734375 676.845703125 700.677734375 676.845703125 707.608398438 683.701171875 c 1,0,1
156.702148438 103.044921875 m 2,18,19
 546.299804688 222.713867188 546.299804688 222.713867188 665.575195312 509.9453125 c 1,20,21
 602.874023438 477.572265625 602.874023438 477.572265625 532.2734375 466.303710938 c 0,22,23
 507.302734375 463.118164062 507.302734375 463.118164062 487.577148438 462.041015625 c 2,24,-1
 486.7890625 462 l 1,25,-1
 486 462 l 1,26,27
 263.171875 463.067382812 263.171875 463.067382812 155.305664062 639.514648438 c 1,28,29
 90.27734375 749.321289062 90.27734375 749.321289062 90 876 c 0,30,31
 90.7373046875 1034.23535156 90.7373046875 1034.23535156 200.26953125 1152.94628906 c 0,32,33
 310.540039062 1271.62890625 310.540039062 1271.62890625 472.33984375 1290.98925781 c 0,34,35
 499.206054688 1294 499.206054688 1294 526 1294 c 0,36,37
 705.13671875 1293.12207031 705.13671875 1293.12207031 826.931640625 1159.94628906 c 1,38,39
 929.724609375 1045.31835938 929.724609375 1045.31835938 945.880859375 890.672851562 c 0,40,41
 947.958984375 864.782226562 947.958984375 864.782226562 948 842 c 0,42,43
 947.372070312 552.750976562 947.372070312 552.750976562 792.053710938 345.071289062 c 0,44,45
 770.71875 327.33984375 770.71875 327.33984375 748.173828125 312.018554688 c 0,46,47
 608.502929688 162.612304688 608.502929688 162.612304688 390.087890625 59 c 0,48,49
 288.436523438 11.0849609375 288.436523438 11.0849609375 197.5859375 -12 c 2,50,-1
 187.739257812 -14.5732421875 l 1,51,-1
 178.358398438 -12 l 2,52,53
 143.236328125 -1.7314453125 143.236328125 -1.7314453125 136.393554688 43.7353515625 c 0,54,55
 136.221679688 45.3642578125 136.221679688 45.3642578125 136.1484375 46.052734375 c 2,56,-1
 133.74609375 95.5625 l 1,57,-1
 156.702148438 103.044921875 l 2,18,19
EndSplineSet
Layer: 3
SplineSet
706 670 m 1,0,1
 716 740 716 740 716 806 c 0,2,3
 716 961 716 961 656 1086 c 1,4,5
 587 1227 587 1227 478 1228 c 0,6,7
 379 1228 379 1228 317 1131 c 0,8,9
 261 1042 261 1042 260 914 c 0,10,11
 260 736 260 736 351 650 c 0,12,13
 415 590 415 590 512 590 c 0,14,15
 616 590 616 590 682 647 c 0,16,17
 695 658 695 658 706 670 c 1,0,1
136 46 m 1,18,19
 590 194 590 194 690 582 c 1,20,21
 606 513 606 513 498 496 c 0,22,23
 475 493 475 493 456 492 c 0,24,25
 250 492 250 492 151 655 c 0,26,27
 90 757 90 757 90 876 c 0,28,29
 90 1034 90 1034 193 1153 c 0,30,31
 295 1272 295 1272 446 1291 c 0,32,33
 471 1294 471 1294 496 1294 c 0,34,35
 661 1294 661 1294 774 1160 c 0,36,37
 871 1045 871 1045 886 888 c 0,38,39
 888 864 888 864 888 842 c 0,40,41
 888 563 888 563 738 363 c 0,42,43
 718 336 718 336 696 312 c 0,44,45
 561 163 561 163 347 59 c 0,46,47
 248 11 248 11 160 -12 c 1,48,49
 141 -4 141 -4 136 46 c 1,18,19
EndSplineSet
Comment: "From Linux Libertine, svn trunk@143" 
Colour: aabbcc
EndChar

StartChar: less
Encoding: 60 60 312
Width: 2048
Flags: W
LayerCount: 3
Fore
SplineSet
1851.77870468 -577.471821692 m 1,0,-1
 91.0520716124 338.984821547 l 1,1,-1
 1851.77223333 1256.48427599 l 1,2,-1
 1932.44330898 1101.23050776 l 1,3,-1
 469.942911916 339.982822937 l 1,4,-1
 1932.43599894 -422.244576149 l 1,5,-1
 1851.77870468 -577.471821692 l 1,0,-1
EndSplineSet
Layer: 2
SplineSet
1839 -537 m 1,0,-1
 156 339 l 1,1,-1
 1839 1216 l 1,2,-1
 1892 1114 l 1,3,-1
 405 340 l 1,4,-1
 1892 -435 l 1,5,-1
 1839 -537 l 1,0,-1
EndSplineSet
EndChar

StartChar: greater
Encoding: 62 62 311
Width: 2048
Flags: W
LayerCount: 4
Fore
SplineSet
183.55859375 -568.26953125 m 1,0,-1
 115.831054688 -437.922851562 l 1,1,-1
 1583.43066406 326.963867188 l 1,2,-1
 129.1484375 1083.93457031 l 1,3,-1
 218.177734375 1255.2734375 l 1,4,-1
 1951.60546875 351.997070312 l 1,5,-1
 183.55859375 -568.26953125 l 1,0,-1
EndSplineSet
Layer: 2
SplineSet
196.221295316 -577.471821692 m 1,0,-1
 115.564001064 -422.244576149 l 1,1,-1
 1578.05708808 339.982822937 l 1,2,-1
 115.556691018 1101.23050776 l 1,3,-1
 196.227766668 1256.48427599 l 1,4,-1
 1956.94792839 338.984821547 l 1,5,-1
 196.221295316 -577.471821692 l 1,0,-1
EndSplineSet
Layer: 3
SplineSet
209 -537 m 1,0,-1
 156 -435 l 1,1,-1
 1643 340 l 1,2,-1
 156 1114 l 1,3,-1
 209 1216 l 1,4,-1
 1892 339 l 1,5,-1
 209 -537 l 1,0,-1
EndSplineSet
EndChar

StartChar: question
Encoding: 63 63 316
Width: 846
Flags: W
LayerCount: 3
Fore
SplineSet
171.874044861 1279.96287357 m 1,0,1
 205.689680477 1296.25051479 205.689680477 1296.25051479 261.993639702 1293.9137815 c 0,2,3
 318.297598927 1291.57704822 318.297598927 1291.57704822 352.980219532 1245.46564907 c 0,4,5
 387.662840137 1199.35424992 387.662840137 1199.35424992 387.465897928 1143.63518359 c 0,6,7
 387.268955719 1087.91611727 387.268955719 1087.91611727 346.772625629 1039.78309548 c 0,8,9
 306.276295538 991.650073684 306.276295538 991.650073684 234.434913165 990.003062612 c 0,10,11
 132.159219621 988.770825341 132.159219621 988.770825341 83.6368465619 1096.70066172 c 0,12,13
 66.4739227509 1135.55688231 66.4739227509 1135.55688231 61.2304348513 1213.78377894 c 0,14,15
 55.9869469517 1292.01067557 55.9869469517 1292.01067557 73.4466231613 1346.2042132 c 0,16,17
 119.015707071 1486.46553562 119.015707071 1486.46553562 235.042170863 1540.39169256 c 0,18,19
 305.518071114 1572.32527506 305.518071114 1572.32527506 386.061385391 1569.98140052 c 1,20,21
 580.589688099 1561.415947 580.589688099 1561.415947 706.236426628 1393.48594188 c 0,22,23
 831.883165156 1225.55593676 831.883165156 1225.55593676 759.284706446 1017.00091029 c 1,24,25
 714.197201969 893.326086417 714.197201969 893.326086417 498.071217586 714.842092931 c 0,26,27
 467.95227487 689.718352587 467.95227487 689.718352587 452.14444909 668.568572207 c 1,28,29
 446.151978889 651.060126622 446.151978889 651.060126622 442.868709066 584.893360836 c 0,30,31
 439.585439243 518.726595049 439.585439243 518.726595049 465.92177087 426.978566919 c 0,32,33
 477.219835091 384.045922882 477.219835091 384.045922882 439.808549591 366.261742373 c 0,34,35
 402.397264091 348.477561864 402.397264091 348.477561864 379.536064348 397.118228263 c 0,36,37
 333.865041501 498.989294813 333.865041501 498.989294813 345.918541443 692.357098938 c 0,38,39
 357.972041385 885.724903062 357.972041385 885.724903062 486.222499721 1138.52665222 c 1,40,41
 587.063895231 1341.13683285 587.063895231 1341.13683285 490.644150129 1434.9556631 c 1,42,43
 458.417575923 1462.2090666 458.417575923 1462.2090666 387.651973547 1469.94462383 c 0,44,45
 316.88637117 1477.68018106 316.88637117 1477.68018106 259.36556392 1446.66313281 c 1,46,47
 203.579775702 1415.1493126 203.579775702 1415.1493126 185.475345669 1363.98799289 c 0,48,49
 167.370915636 1312.82667317 167.370915636 1312.82667317 171.874044861 1279.96287357 c 1,0,1
EndSplineSet
Refer: 315 -1 N 1 0 0 1 113 65 2
Layer: 2
SplineSet
157 1232 m 1,0,1
 190 1267 190 1267 247 1265 c 0,2,3
 303 1263 303 1263 331 1226 c 0,4,5
 358 1190 358 1190 358 1144 c 0,6,7
 358 1099 358 1099 326 1060 c 0,8,9
 293 1021 293 1021 234 1020 c 0,10,11
 151 1019 151 1019 111 1109 c 0,12,13
 96 1142 96 1142 91 1215 c 0,14,15
 86 1288 86 1288 102 1337 c 0,16,17
 137 1447 137 1447 214 1495 c 24,18,19
 291 1543 291 1543 385 1540 c 0,20,21
 565 1533 565 1533 682 1377 c 0,22,23
 799 1221 799 1221 731 1027 c 0,24,25
 690 912 690 912 479 738 c 0,26,27
 445 710 445 710 427 685 c 0,28,29
 417 671 417 671 413 591 c 0,30,31
 409 516 409 516 437 419 c 0,32,33
 442 400 442 400 431 395 c 0,34,35
 416 388 416 388 408 407 c 0,36,37
 364 503 364 503 376 692 c 0,38,39
 387 877 387 877 513 1125 c 0,40,41
 625 1348 625 1348 511 1457 c 0,42,43
 473 1491 473 1491 385 1501 c 0,44,45
 311 1509 311 1509 245 1473 c 0,46,47
 179 1437 179 1437 154 1366 c 0,48,49
 126 1287 126 1287 157 1232 c 1,0,1
EndSplineSet
Refer: 315 -1 N 1 0 0 1 113 65 2
EndChar

StartChar: at
Encoding: 64 64 422
Width: 1534
Flags: W
HStem: -248 40<531 584> -14 124<973 1179> -10 198<499 724> 778 108<790 1005> 1076 80<680 1104>
VStem: 92 96<111 570> 356 246<200 436> 826 244<110 325> 1376 88<342 803>
LayerCount: 4
Fore
SplineSet
892 1156 m 0,0,1
 1189 1156 1189 1156 1342 965 c 0,2,3
 1464 812 1464 812 1464 580 c 0,4,5
 1464 378 1464 378 1357 208 c 0,6,7
 1263 58 1263 58 1131 7 c 0,8,9
 1076 -14 1076 -14 1022 -14 c 0,10,11
 914 -14 914 -14 861 52 c 0,12,13
 827 96 827 96 826 158 c 0,14,15
 826 195 826 195 834 216 c 1,16,17
 795 141 795 141 720 72 c 0,18,19
 629 -10 629 -10 550 -10 c 0,20,21
 419 -10 419 -10 377 97 c 0,22,23
 356 154 356 154 356 240 c 0,24,25
 356 406 356 406 482 581 c 0,26,27
 595 739 595 739 751 824 c 0,28,29
 866 885 866 885 970 886 c 0,30,31
 1081 886 1081 886 1167 866 c 0,32,33
 1180 863 1180 863 1188 860 c 1,34,-1
 1076 254 l 1,35,36
 1070 231 1070 231 1070 204 c 0,37,38
 1070 153 1070 153 1075 139 c 0,39,40
 1087 111 1087 111 1116 110 c 0,41,42
 1177 110 1177 110 1248 195 c 0,43,44
 1341 307 1341 307 1368 468 c 0,45,46
 1376 518 1376 518 1376 566 c 0,47,48
 1376 809 1376 809 1243 946 c 0,49,50
 1116 1076 1116 1076 892 1076 c 0,51,52
 651 1076 651 1076 458 909 c 0,53,54
 296 768 296 768 226 563 c 0,55,56
 188 450 188 450 188 340 c 0,57,58
 188 121 188 121 323 -39 c 0,59,60
 383 -110 383 -110 458 -154 c 0,61,62
 528 -195 528 -195 606 -207 c 2,63,-1
 607 -207 l 1,64,-1
 609 -207 l 1,65,-1
 610 -208 l 1,66,-1
 611 -208 l 1,67,-1
 612 -208 l 1,68,69
 612 -223 612 -223 574 -239 c 0,70,71
 550 -248 550 -248 532 -248 c 0,72,73
 488 -248 488 -248 442 -230 c 0,74,75
 299 -177 299 -177 202 -36 c 0,76,77
 92 125 92 125 92 330 c 0,78,79
 92 554 92 554 223 764 c 0,80,81
 351 969 351 969 555 1074 c 0,82,83
 715 1156 715 1156 892 1156 c 0,0,1
886 778 m 0,84,85
 777 778 777 778 695 647 c 0,86,87
 615 518 615 518 603 341 c 0,88,89
 602 318 602 318 602 296 c 0,90,91
 602 206 602 206 661 191 c 0,92,93
 671 189 671 189 682 188 c 0,94,95
 754 188 754 188 818 308 c 0,96,97
 869 405 869 405 898 548 c 2,98,-1
 938 752 l 1,99,100
 917 775 917 775 899 777 c 0,101,102
 893 778 893 778 886 778 c 0,84,85
EndSplineSet
Comment: "From Crimson Text, svn trunk@50" 
Colour: aabbcc
EndChar

StartChar: bracketleft
Encoding: 91 91 383
Width: 740
Flags: W
LayerCount: 4
Fore
SplineSet
715.995117188 1500.81054688 m 1,0,-1
 715.998046875 1339.19433594 l 1,1,-1
 425.994140625 1339.18945312 l 1,2,-1
 425.997070312 -659.188476562 l 1,3,-1
 715.995117188 -659.189453125 l 1,4,-1
 715.999023438 -820.807617188 l 1,5,-1
 274.006835938 -820.807617188 l 1,6,-1
 274.004882812 1500.80957031 l 1,7,-1
 715.995117188 1500.81054688 l 1,0,-1
EndSplineSet
Layer: 2
SplineSet
720 1500 m 1,0,-1
 720 1340 l 1,1,-1
 430 1340 l 1,2,-1
 430 -660 l 1,3,-1
 720 -660 l 1,4,-1
 720 -820 l 1,5,-1
 270 -820 l 1,6,-1
 270 1500 l 1,7,-1
 720 1500 l 1,0,-1
EndSplineSet
Layer: 3
SplineSet
690 1470 m 1,0,-1
 690 1370 l 1,1,-1
 400 1370 l 1,2,-1
 400 -690 l 1,3,-1
 690 -690 l 1,4,-1
 690 -790 l 1,5,-1
 300 -790 l 1,6,-1
 300 1470 l 1,7,-1
 690 1470 l 1,0,-1
EndSplineSet
EndChar
StartChar: backslash
Encoding: 92 92 5776
Width: 706
Flags: W
LayerCount: 3
Fore
SplineSet
62 1457 m 0,0,1
 28 1457 28 1457 24 1441 c 1,2,-1
 541 -373 l 1,3,4
 545 -388 545 -388 570 -401.5 c 128,-1,5
 595 -415 595 -415 641 -415 c 0,6,7
 654 -415 654 -415 663 -411.5 c 128,-1,8
 672 -408 672 -408 674.5 -404.5 c 2,9,-1
 677 -401 l 1,10,-1
 160 1413 l 1,11,12
 152 1429 152 1429 127 1443 c 128,-1,13
 102 1457 102 1457 62 1457 c 0,0,1
EndSplineSet
EndChar

StartChar: bracketright
Encoding: 93 93 384
Width: 740
Flags: W
LayerCount: 4
Fore
SplineSet
24.0078125 1500.81152344 m 1,0,-1
 465.997070312 1500.81152344 l 1,1,-1
 465.993164062 -820.811523438 l 1,2,-1
 24.0029296875 -820.8125 l 1,3,-1
 24.0068359375 -659.188476562 l 1,4,-1
 314.004882812 -659.190429688 l 1,5,-1
 314.005859375 1339.19238281 l 1,6,-1
 24.0029296875 1339.1875 l 1,7,-1
 24.0078125 1500.81152344 l 1,0,-1
EndSplineSet
Layer: 2
SplineSet
20 1500 m 1,0,-1
 470 1500 l 1,1,-1
 470 -820 l 1,2,-1
 20 -820 l 1,3,-1
 20 -660 l 1,4,-1
 310 -660 l 1,5,-1
 310 1340 l 1,6,-1
 20 1340 l 1,7,-1
 20 1500 l 1,0,-1
EndSplineSet
Layer: 3
SplineSet
50 1470 m 1,0,-1
 440 1470 l 1,1,-1
 440 -790 l 1,2,-1
 50 -790 l 1,3,-1
 50 -690 l 1,4,-1
 340 -690 l 1,5,-1
 340 1370 l 1,6,-1
 50 1370 l 1,7,-1
 50 1470 l 1,0,-1
EndSplineSet
EndChar

StartChar: asciicircum
Encoding: 94 94 496
Width: 780
Flags: W
HStem: 846 444
VStem: 122 500
LayerCount: 4
Fore
SplineSet
430.726343009 1277.62935331 m 1,0,1
 482.971179425 1173.3833174 482.971179425 1173.3833174 554.912008883 1051.30160582 c 0,2,3
 626.85283834 929.219894233 626.85283834 929.219894233 652 886.11047424 c 1,4,-1
 652 878 l 2,5,6
 652 834.987182058 652 834.987182058 608.114283014 819.028739521 c 0,7,8
 602.714946404 817.948872199 602.714946404 817.948872199 583.425642601 811.519104265 c 1,9,10
 475.614905226 924.588901999 475.614905226 924.588901999 371.656111095 1056.06620041 c 1,11,-1
 281.078491758 944.830527544 l 1,12,13
 218.676436378 871.257411495 218.676436378 871.257411495 167.022769108 816 c 1,14,-1
 154 816 l 1,15,16
 112.811764285 817.281485608 112.811764285 817.281485608 97.4256490995 853.182421043 c 0,17,18
 92.2292840492 866.370721714 92.2292840492 866.370721714 92 878 c 2,19,-1
 92 886.07039731 l 1,20,21
 124.888736987 942.775116253 124.888736987 942.775116253 193.842882833 1058.76488263 c 128,-1,22
 262.79702868 1174.75464901 262.79702868 1174.75464901 315.32668699 1277.73133408 c 1,23,24
 337.742337114 1318.03670169 337.742337114 1318.03670169 373.429251999 1318.06237084 c 128,-1,25
 409.116166884 1318.08803998 409.116166884 1318.08803998 430.726343009 1277.62935331 c 1,0,1
EndSplineSet
Layer: 2
SplineSet
397.1640625 1320.81054688 m 0,0,1
 416.930654792 1318.28790964 416.930654792 1318.28790964 429.881835938 1294.42480469 c 0,2,3
 481.86328125 1190.46777344 481.86328125 1190.46777344 600.860351562 989.466796875 c 0,4,5
 626.85546875 944.462402344 626.85546875 944.462402344 647.85546875 908.46484375 c 0,6,-1
 647.994140625 907.83203125 l 2,7,8
 647.994140625 906.832568051 647.994140625 906.832568051 648.55373454 905.186996758 c 0,9,10
 651.503950146 896.511437609 651.503950146 896.511437609 629.250769533 867.412121744 c 0,11,12
 627.987990233 865.770336548 627.987990233 865.770336548 627.494140625 865.12890625 c 0,13,14
 590.202499436 816.939423498 590.202499436 816.939423498 576.1163977 817.392535524 c 0,15,-1
 575.415039062 817.276367188 l 2,16,17
 570.280657159 816.16046845 570.280657159 816.16046845 567.567382812 815.331054688 c 2,18,-1
 566.610351562 815.01171875 l 1,19,-1
 566.236328125 815.404296875 l 2,20,21
 524.573775553 859.225704872 524.573775553 859.225704872 470.21484375 922.92578125 c 0,22,23
 414.209472656 987.433105469 414.209472656 987.433105469 380.196289062 1030.44921875 c 2,24,-1
 349.8515625 1068.828125 l 1,25,-1
 262.861328125 961.998046875 l 1,26,-1
 260.850585938 959.624023438 l 2,27,28
 194.80367131 881.751438064 194.80367131 881.751438064 147.384765625 830.966796875 c 2,29,-1
 132.63671875 815.189453125 l 1,30,-1
 128.828125 815.189453125 l 1,31,32
 109.270585916 816.472729539 109.270585916 816.472729539 99.111328125 834.590820312 c 1,33,34
 96.2105284548 842.295330967 96.2105284548 842.295330967 96.0048828125 848.166015625 c 2,35,-1
 96.0048828125 850.025390625 l 1,36,-1
 98.875 854.974609375 l 2,37,38
 128.470429628 905.977994909 128.470429628 905.977994909 177.2421875 988.599609375 c 0,39,40
 265.366826613 1136.25649665 265.366826613 1136.25649665 317.640625 1238.72949219 c 0,41,42
 341.966211135 1285.51574769 341.966211135 1285.51574769 385.425477682 1314.78316236 c 0,43,44
 394.108566887 1320.63074316 394.108566887 1320.63074316 397.1640625 1320.81054688 c 0,0,1
EndSplineSet
Layer: 3
SplineSet
372 1290 m 1,0,1
 391 1289 391 1289 404 1264 c 0,2,3
 456 1160 456 1160 575 959 c 0,4,5
 601 914 601 914 622 878 c 1,6,7
 622 856 622 856 600 848 c 0,8,9
 595 847 595 847 592 846 c 1,10,11
 551 889 551 889 496 953.5 c 0,12,13
 440 1018 440 1018 406 1061 c 2,14,-1
 372 1104 l 1,15,-1
 258 964 l 1,16,17
 197 892 197 892 154 846 c 1,18,19
 135 846 135 846 125 865 c 0,20,21
 122 872 122 872 122 878 c 1,22,23
 151 928 151 928 200 1011 c 0,24,25
 289 1160 289 1160 342 1264 c 0,26,27
 355 1289 355 1289 372 1290 c 1,0,1
EndSplineSet
Comment: "From Linux Libertine, svn trunk@143" 
Colour: aabbcc
EndChar

StartChar: underscore
Encoding: 95 95 497
Width: 1010
Flags: W
HStem: -86 112<36 953>
LayerCount: 4
Fore
SplineSet
-2 -63.4327323653 m 1,0,-1
 8.67981634773 -1.48979754839 l 1,1,2
 19.4647323012 38.0548942802 19.4647323012 38.0548942802 31.8215808466 46.4610498631 c 128,-1,3
 44.178429392 54.8672054459 44.178429392 54.8672054459 56.6391694844 56 c 1,4,-1
 960.201648339 56 l 1,5,6
 990.308719076 47.3979797899 990.308719076 47.3979797899 994 17.867732449 c 1,7,-1
 994 16 l 2,8,9
 993.583257244 -7.58952403252 993.583257244 -7.58952403252 972.46525277 -83.6143401829 c 1,10,11
 959.889326955 -115.054154725 959.889326955 -115.054154725 934 -116 c 2,12,-1
 36.5599625468 -116 l 1,13,-1
 16.2428948528 -108.381099615 l 1,14,15
 -1.59347928265 -87.5719964573 -1.59347928265 -87.5719964573 -2 -66 c 2,16,-1
 -2 -63.4327323653 l 1,0,-1
EndSplineSet
Layer: 2
SplineSet
916.4609375 -112.700195312 m 1,0,1
 911.552034184 -116.22661208 911.552034184 -116.22661208 908.831054688 -116.809570312 c 2,2,-1
 16.6318359375 -116.809570312 l 1,3,-1
 8.3212890625 -113.692382812 l 1,4,5
 2.33692614574 -105.539638062 2.33692614574 -105.539638062 2.00390625 -95.8359375 c 0,6,-1
 12.1005859375 -37.0302734375 l 1,7,8
 17.7269500182 -16.3984523491 17.7269500182 -16.3984523491 18.7847327979 -14.4057270188 c 0,9,10
 25.3843265943 -2.60417095771 25.3843265943 -2.60417095771 38.7431640625 14.7275390625 c 0,11,12
 76.2679339715 63.0517335842 76.2679339715 63.0517335842 83.1015625 56.8076171875 c 1,13,-1
 981.330078125 56.8095703125 l 1,14,15
 988.506632049 53.234901876 988.506632049 53.234901876 989.997070312 45.9599609375 c 1,16,17
 989.556609204 25.9701542771 989.556609204 25.9701542771 969.805664062 -45.3046875 c 2,18,-1
 969.658203125 -45.8369140625 l 1,19,-1
 969.395507812 -46.4951171875 l 2,20,21
 966.856819504 -52.204447711 966.856819504 -52.204447711 963.510742188 -57.7353515625 c 1,22,-1
 916.4609375 -112.700195312 l 1,0,1
EndSplineSet
Layer: 3
SplineSet
28 -66 m 1,0,1
 38 -8 l 1,2,3
 47 25 47 25 58 26 c 1,4,-1
 956 26 l 1,5,6
 963 24 963 24 964 16 c 1,7,8
 964 -2 964 -2 944 -74 c 0,9,10
 942 -79 942 -79 939 -82 c 0,11,12
 936 -86 936 -86 934 -86 c 2,13,-1
 932 -86 l 1,14,-1
 42 -86 l 1,15,-1
 34 -83 l 1,16,17
 28 -76 28 -76 28 -66 c 1,0,1
EndSplineSet
Comment: "From Linux Libertine, svn trunk@143" 
Colour: aabbcc
EndChar

StartChar: grave
Encoding: 96 96 498
Width: 802
VWidth: 2045
Flags: W
LayerCount: 4
Fore
SplineSet
333.78262011 1466 m 0,0,1
 353.711933526 1465.7453088 353.711933526 1465.7453088 384.920625539 1457.94313581 c 1,2,-1
 534.599157284 1187.89375685 l 1,3,4
 577.126918753 1101.3193859 577.126918753 1101.3193859 510.969075823 1075.70024867 c 1,5,6
 470.228087148 1063.39292455 470.228087148 1063.39292455 425.711263139 1105.7245797 c 0,7,8
 410.715511702 1119.9624253 410.715511702 1119.9624253 409.42055423 1121.17025713 c 2,9,-1
 164.70350679 1355.38442699 l 1,10,-1
 173.542777735 1406.21023493 l 1,11,12
 254.650641804 1464.50651219 254.650641804 1464.50651219 333.78262011 1466 c 0,0,1
EndSplineSet
Layer: 2
SplineSet
390.725585938 1462.70703125 m 1,0,-1
 533.875976562 1204.4375 l 2,1,2
 536.299050167 1199.50398543 536.299050167 1199.50398543 541.339030644 1191.4056383 c 0,3,4
 554.270859926 1170.62650177 554.270859926 1170.62650177 547.036003845 1152.95172957 c 0,5,6
 541.552379546 1140.53118925 541.552379546 1140.53118925 529.895507812 1124.59960938 c 0,7,8
 512.300021701 1100.81835938 512.300021701 1100.81835938 498.985568576 1088.00756836 c 128,-1,9
 485.671115451 1075.19677734 485.671115451 1075.19677734 481.154405382 1074.27661133 c 2,10,-1
 476.637695312 1073.35644531 l 2,11,12
 469.079569145 1071.35643566 469.079569145 1071.35643566 458.220703125 1072.19433594 c 1,13,14
 445.075645533 1074.64049871 445.075645533 1074.64049871 404.256835938 1112.3828125 c 2,15,-1
 170.888671875 1335.74023438 l 1,16,-1
 179.860351562 1387.35253906 l 1,17,-1
 222.39453125 1417.92382812 l 2,18,19
 289.561253115 1465.48547339 289.561253115 1465.48547339 359.173828125 1466.8125 c 0,20,21
 374.8658092 1466.55762685 374.8658092 1466.55762685 390.431640625 1462.78027344 c 2,22,-1
 390.725585938 1462.70703125 l 1,0,-1
EndSplineSet
Layer: 3
SplineSet
365 1432 m 1,0,-1
 508 1174 l 1,1,2
 536 1117 536 1117 501 1104 c 0,3,4
 495 1102 495 1102 483.5 1103 c 128,-1,5
 472 1104 472 1104 430 1143 c 2,6,-1
 197 1366 l 1,7,-1
 201 1389 l 1,8,9
 265 1435 265 1435 334 1436 c 0,10,11
 349 1436 349 1436 365 1432 c 1,0,-1
EndSplineSet
Comment: "From Linux Libertine, svn trunk@143" 
Colour: aabbcc
EndChar

StartChar: braceleft
Encoding: 123 123 385
Width: 814
Flags: W
LayerCount: 4
Fore
SplineSet
394.540039062 360.689453125 m 1,0,1
 512.458040234 275.169253673 512.458040234 275.169253673 539.974609375 102.112304688 c 1,2,3
 568.580435685 -85.2664033283 568.580435685 -85.2664033283 466.490234375 -256.046875 c 0,4,5
 410.15162641 -349.841785301 410.15162641 -349.841785301 404.989257812 -428.3203125 c 0,6,7
 397.010037599 -578.298469382 397.010037599 -578.298469382 539.303710938 -736.10546875 c 1,8,9
 547.760979969 -749.275820652 547.760979969 -749.275820652 542.078125 -763.088867188 c 0,10,11
 531.239213528 -785.434016014 531.239213528 -785.434016014 501.048828125 -817.014648438 c 0,12,13
 471.03573859 -847.994043088 471.03573859 -847.994043088 459.366921817 -838.478879973 c 0,14,15
 457.90763921 -837.288929671 457.90763921 -837.288929671 455.085089318 -834.317368683 c 0,16,17
 452.05938669 -831.131929901 452.05938669 -831.131929901 450.2890625 -829.640625 c 0,18,19
 293.061523438 -697.456054688 293.061523438 -697.456054688 289.00390625 -440.873046875 c 0,20,21
 287.437123056 -325.377898071 287.437123056 -325.377898071 346.482421875 -167.814453125 c 0,22,23
 402.944875156 -16.8842374372 402.944875156 -16.8842374372 412.03515625 46.5791015625 c 0,24,25
 422.011411746 122.952534198 422.011411746 122.952534198 382.359375 185.171875 c 1,26,27
 346.422149195 239.674902603 346.422149195 239.674902603 274.369140625 283.301757812 c 2,28,-1
 274.004882812 283.520507812 l 1,29,-1
 274.006835938 366.526367188 l 1,30,-1
 322.858398438 395.899414062 l 2,31,32
 362.661594674 419.986113214 362.661594674 419.986113214 386.1796875 443.216796875 c 1,33,34
 416.619981262 488.929670395 416.619981262 488.929670395 413.667190208 555.878897714 c 0,35,36
 413.148144348 565.533884858 413.148144348 565.533884858 412.0234375 573.911132812 c 0,37,38
 402.558582559 638.879147821 402.558582559 638.879147821 346.083007812 789.66015625 c 0,39,40
 287.230925511 947.145138639 287.230925511 947.145138639 289.005859375 1061.20410156 c 0,41,42
 291.575298299 1225.63391805 291.575298299 1225.63391805 356.313053865 1339.31942686 c 0,43,44
 369.050788867 1361.46756497 369.050788867 1361.46756497 383.689453125 1382.59179688 c 0,45,46
 434.117829767 1454.58909183 434.117829767 1454.58909183 494.671875 1505.78222656 c 0,47,48
 518.563190161 1525.90028237 518.563190161 1525.90028237 532.601446781 1513.18086182 c 0,49,50
 534.806599308 1511.06640407 534.806599308 1511.06640407 536.260742188 1509.59960938 c 128,-1,51
 537.705296348 1508.10774928 537.705296348 1508.10774928 540.980371989 1505.73141439 c 0,52,53
 552.12628977 1497.64414065 552.12628977 1497.64414065 544.339999859 1482.01368298 c 0,54,55
 538.146593979 1470.26959305 538.146593979 1470.26959305 525.366210938 1453.42578125 c 2,56,-1
 518.349609375 1444.24902344 l 1,57,-1
 506.823242188 1431.50488281 l 1,58,59
 420.046753235 1333.93173131 420.046753235 1333.93173131 406.525393941 1218.82492571 c 0,60,61
 403.610289316 1192.49888086 403.610289316 1192.49888086 404.991210938 1167.95996094 c 0,62,63
 410.610560535 1086.62673416 410.610560535 1086.62673416 469.850585938 988.47265625 c 0,64,65
 568.624617232 822.518851626 568.624617232 822.518851626 539.954101562 637.352539062 c 0,66,67
 524.6332433 542.270935297 524.6332433 542.270935297 482.168945312 470.750976562 c 0,68,69
 446.93318625 412.345149433 446.93318625 412.345149433 394.540039062 360.689453125 c 1,0,1
EndSplineSet
Layer: 2
SplineSet
405.229452815 340 m 1,0,1
 516.43464056 247.867525602 516.43464056 247.867525602 543.638066551 76.6459671891 c 0,2,3
 573.678031896 -119.506686304 573.678031896 -119.506686304 469.690488224 -293.492038576 c 0,4,5
 413.765063512 -386.533610115 413.765063512 -386.533610115 408.944598332 -459.822552592 c 0,6,7
 401.934406426 -593.043268629 401.934406426 -593.043268629 525.465355766 -735 c 1,8,-1
 543 -735 l 1,9,-1
 543 -757.456230287 l 1,10,11
 558.633882153 -791.519225354 558.633882153 -791.519225354 532.047206684 -819.873856475 c 0,12,13
 505.494265206 -847.283344452 505.494265206 -847.283344452 469.565843623 -830.23578803 c 0,14,15
 462.213111679 -826.422565152 462.213111679 -826.422565152 456.693949149 -821.962499876 c 0,16,17
 289.605268664 -680.207858794 289.605268664 -680.207858794 285.004110993 -411.497464258 c 0,18,19
 283.33800517 -291.080911095 283.33800517 -291.080911095 343.910124673 -129.466296752 c 0,20,21
 399.549640612 19.2427450735 399.549640612 19.2427450735 408.289177312 80.1553598165 c 0,22,23
 424.037147669 203.792219556 424.037147669 203.792219556 284.541203991 288.289581374 c 2,24,-1
 270 297.032710355 l 1,25,-1
 270 382.967289645 l 1,26,-1
 284.541203991 391.710418626 l 1,27,28
 424.768157674 477.288162346 424.768157674 477.288162346 408.292302635 599.822355058 c 0,29,30
 399.259980861 661.664759751 399.259980861 661.664759751 343.917482315 809.446697176 c 0,31,32
 283.135948125 972.091111021 283.135948125 972.091111021 285.004110993 1091.49746426 c 0,33,34
 290.028039792 1361.17128524 290.028039792 1361.17128524 456.675927627 1501.94733594 c 0,35,36
 485.370216996 1526.11094804 485.370216996 1526.11094804 517.106590108 1510.74810692 c 0,37,38
 525.746402449 1506.08371688 525.746402449 1506.08371688 532.047206684 1499.87385647 c 0,39,40
 557.22994074 1473.87877616 557.22994074 1473.87877616 544.801818931 1441.58400044 c 0,41,42
 543.717334804 1439.00310084 543.717334804 1439.00310084 543 1437.45623029 c 2,43,-1
 543 1415 l 1,44,-1
 525.465355766 1415 l 1,45,46
 401.474158929 1272.03737706 401.474158929 1272.03737706 408.944598332 1139.82255259 c 1,47,48
 414.150350473 1065.54544327 414.150350473 1065.54544327 469.690488224 973.492038576 c 0,49,50
 573.872331888 798.527315323 573.872331888 798.527315323 543.638066551 603.354032811 c 1,51,52
 515.912334371 431.175362425 515.912334371 431.175362425 405.229452815 340 c 1,0,1
EndSplineSet
Layer: 3
SplineSet
354 340 m 1,0,1
 485 257 485 257 514 72 c 256,2,3
 543 -113 543 -113 444 -278 c 0,4,5
 384 -377 384 -377 379 -458 c 0,6,7
 370 -608 370 -608 512 -765 c 0,8,-1
 513 -765 l 24,9,-1
 513 -766 l 0,10,11
 526 -783 526 -783 510.5 -799 c 128,-1,12
 495 -815 495 -815 476 -799 c 0,13,14
 319 -667 319 -667 315 -411 c 0,15,16
 313 -297 313 -297 372 -140 c 0,17,18
 429 12 429 12 438 76 c 0,19,20
 458 219 458 219 300 314 c 1,21,-1
 300 366 l 1,22,23
 458 461 458 461 438 604 c 0,24,25
 429 668 429 668 372 820 c 0,26,27
 313 977 313 977 315 1091 c 0,28,29
 319 1347 319 1347 476 1479 c 0,30,31
 495 1495 495 1495 510.5 1479 c 128,-1,32
 526 1463 526 1463 513 1446 c 0,33,-1
 513 1445 l 24,34,-1
 512 1445 l 0,35,36
 370 1288 370 1288 379 1138 c 0,37,38
 384 1057 384 1057 444 958 c 0,39,40
 543 793 543 793 514 608 c 256,41,42
 485 423 485 423 354 340 c 1,0,1
EndSplineSet
EndChar

StartChar: bar
Encoding: 124 124 387
Width: 280
Flags: W
LayerCount: 4
Fore
SplineSet
60 1500 m 1,0,-1
 220 1500 l 1,1,-1
 220 -820 l 1,2,-1
 60 -820 l 1,3,-1
 60 1500 l 1,0,-1
EndSplineSet
Layer: 2
SplineSet
64.005859375 1500.81054688 m 1,0,-1
 215.997070312 1500.8125 l 1,1,-1
 215.994140625 -820.809570312 l 1,2,-1
 64.001953125 -820.8125 l 1,3,-1
 64.005859375 1500.81054688 l 1,0,-1
EndSplineSet
Layer: 3
SplineSet
90 1470 m 1,0,-1
 190 1470 l 1,1,-1
 190 -790 l 1,2,-1
 90 -790 l 1,3,-1
 90 1470 l 1,0,-1
EndSplineSet
EndChar

StartChar: braceright
Encoding: 125 125 386
Width: 814
Flags: W
LayerCount: 4
Fore
SplineSet
408.770547185 340 m 1,0,1
 297.56535944 432.132474398 297.56535944 432.132474398 270.361933449 603.354032811 c 0,2,3
 240.321968104 799.506686304 240.321968104 799.506686304 344.309511776 973.492038576 c 0,4,5
 400.234936488 1066.53361011 400.234936488 1066.53361011 405.055401668 1139.82255259 c 0,6,7
 412.065593574 1273.04326863 412.065593574 1273.04326863 288.534644234 1415 c 1,8,-1
 271 1415 l 1,9,-1
 271 1437.45623029 l 1,10,11
 255.366117847 1471.51922535 255.366117847 1471.51922535 281.952793316 1499.87385647 c 0,12,13
 308.505734794 1527.28334445 308.505734794 1527.28334445 344.434156377 1510.23578803 c 0,14,15
 351.414765743 1506.92358207 351.414765743 1506.92358207 357.306050851 1501.96249988 c 0,16,17
 524.394731336 1360.20785879 524.394731336 1360.20785879 528.995889007 1091.49746426 c 0,18,19
 530.66199483 971.080911095 530.66199483 971.080911095 470.089875327 809.466296752 c 0,20,21
 414.450359388 660.757254926 414.450359388 660.757254926 405.710822688 599.844640184 c 0,22,23
 389.962852331 476.207780444 389.962852331 476.207780444 529.458796009 391.710418626 c 2,24,-1
 544 382.967289645 l 1,25,-1
 544 297.032710355 l 1,26,-1
 529.458796009 288.289581374 l 1,27,28
 389.231842326 202.711837654 389.231842326 202.711837654 405.707697365 80.177644942 c 0,29,30
 414.740019139 18.3352402487 414.740019139 18.3352402487 470.082517685 -129.446697176 c 0,31,32
 530.864051875 -292.091111021 530.864051875 -292.091111021 528.995889007 -411.497464258 c 0,33,34
 523.971960208 -681.171285236 523.971960208 -681.171285236 357.324072373 -821.947335944 c 0,35,36
 328.629783004 -846.110948044 328.629783004 -846.110948044 296.893409892 -830.748106922 c 0,37,38
 288.253597551 -826.083716879 288.253597551 -826.083716879 281.952793316 -819.873856475 c 0,39,40
 256.77005926 -793.878776159 256.77005926 -793.878776159 269.198181069 -761.584000436 c 0,41,42
 270.282665196 -759.003100844 270.282665196 -759.003100844 271 -757.456230287 c 2,43,-1
 271 -735 l 1,44,-1
 288.534644234 -735 l 1,45,46
 412.525841071 -592.037377058 412.525841071 -592.037377058 405.055401668 -459.822552592 c 1,47,48
 399.849649527 -385.545443273 399.849649527 -385.545443273 344.309511776 -293.492038576 c 0,49,50
 239.676779672 -119.104151735 239.676779672 -119.104151735 270.361933449 76.6459671891 c 0,51,52
 298.087665629 248.824637575 298.087665629 248.824637575 408.770547185 340 c 1,0,1
EndSplineSet
Layer: 2
SplineSet
419.4609375 319.311523438 m 1,0,1
 301.543450164 404.829907016 301.543450164 404.829907016 274.026367188 577.888671875 c 1,2,3
 245.41921896 765.266408623 245.41921896 765.266408623 347.509765625 936.048828125 c 0,4,5
 403.849239817 1029.84111256 403.849239817 1029.84111256 409.01171875 1108.32128906 c 0,6,7
 416.990859623 1258.29939008 416.990859623 1258.29939008 274.697265625 1416.10644531 c 1,8,9
 266.240238721 1429.27601863 266.240238721 1429.27601863 271.919921875 1443.08496094 c 0,10,11
 282.752376079 1465.42481475 282.752376079 1465.42481475 312.936523438 1496.99902344 c 0,12,13
 342.963984983 1527.99676816 342.963984983 1527.99676816 354.635362444 1518.47864301 c 0,14,15
 356.094252793 1517.28890333 356.094252793 1517.28890333 358.915947864 1514.3181922 c 0,16,17
 362.379174518 1510.85994841 362.379174518 1510.85994841 363.711914062 1509.64160156 c 0,18,19
 520.93359375 1377.45117188 520.93359375 1377.45117188 524.99609375 1120.87402344 c 0,20,21
 526.564272562 1005.38132711 526.564272562 1005.38132711 467.513671875 847.809570312 c 0,22,23
 411.051336185 696.878135597 411.051336185 696.878135597 401.965820312 633.421875 c 0,24,25
 391.989564816 557.048442365 391.989564816 557.048442365 431.641601562 494.829101562 c 1,26,27
 467.579944542 440.324377815 467.579944542 440.324377815 539.630859375 396.700195312 c 2,28,-1
 539.995117188 396.48046875 l 1,29,-1
 539.993164062 313.475585938 l 1,30,-1
 491.141601562 284.102539062 l 2,31,32
 451.336598753 260.014738909 451.336598753 260.014738909 427.822265625 236.78515625 c 1,33,34
 397.380984893 191.069944001 397.380984893 191.069944001 400.333799656 124.121100611 c 0,35,36
 400.85284689 114.466152544 400.85284689 114.466152544 401.977539062 106.088867188 c 0,37,38
 411.442505675 41.1215314066 411.442505675 41.1215314066 467.91796875 -109.659179688 c 0,39,40
 526.770478878 -267.146789487 526.770478878 -267.146789487 524.994140625 -381.203125 c 0,41,42
 522.424688867 -545.633762783 522.424688867 -545.633762783 457.6884828 -659.318450293 c 0,43,44
 444.950950541 -681.466602716 444.950950541 -681.466602716 430.3125 -702.590820312 c 0,45,46
 379.885476499 -774.58617056 379.885476499 -774.58617056 319.329101562 -825.78125 c 0,47,48
 295.437190275 -845.899807788 295.437190275 -845.899807788 281.399529781 -833.180157877 c 0,49,50
 279.19433881 -831.065509934 279.19433881 -831.065509934 277.740234375 -829.598632812 c 128,-1,51
 276.295798303 -828.1070513 276.295798303 -828.1070513 273.021000681 -825.731056485 c 0,52,53
 261.87452923 -817.643851891 261.87452923 -817.643851891 269.660937691 -802.012928349 c 0,54,55
 275.854357763 -790.268654756 275.854357763 -790.268654756 288.634765625 -773.424804688 c 2,56,-1
 295.651367188 -764.248046875 l 1,57,-1
 307.177734375 -751.504882812 l 1,58,59
 393.954272224 -653.930160585 393.954272224 -653.930160585 407.475582621 -538.824518248 c 0,60,61
 410.390686243 -512.498643846 410.390686243 -512.498643846 409.009765625 -487.959960938 c 0,62,63
 403.39050134 -406.62782689 403.39050134 -406.62782689 344.145507812 -308.478515625 c 0,64,65
 324.310454415 -275.418725368 324.310454415 -275.418725368 309.609297357 -241.591888364 c 128,-1,66
 294.9081403 -207.765051361 294.9081403 -207.765051361 285.31672608 -173.079478823 c 128,-1,67
 275.72531186 -138.393906285 275.72531186 -138.393906285 271.276281732 -102.891497739 c 128,-1,68
 266.827251604 -67.3890891935 266.827251604 -67.3890891935 267.516835455 -30.9984631981 c 128,-1,69
 268.206419306 5.39216279726 268.206419306 5.39216279726 274.046875 42.6494140625 c 0,70,71
 289.36544569 137.7258956 289.36544569 137.7258956 331.83203125 209.250976562 c 0,72,73
 367.064191436 267.650813601 367.064191436 267.650813601 419.4609375 319.311523438 c 1,0,1
EndSplineSet
Layer: 3
SplineSet
460 340 m 1,0,1
 329 423 329 423 300 608 c 256,2,3
 271 793 271 793 370 958 c 0,4,5
 430 1057 430 1057 435 1138 c 0,6,7
 444 1288 444 1288 302 1445 c 0,8,-1
 301 1445 l 24,9,-1
 301 1446 l 0,10,11
 288 1463 288 1463 303.5 1479 c 128,-1,12
 319 1495 319 1495 338 1479 c 0,13,14
 495 1347 495 1347 499 1091 c 0,15,16
 501 977 501 977 442 820 c 0,17,18
 385 668 385 668 376 604 c 0,19,20
 356 461 356 461 514 366 c 1,21,-1
 514 314 l 1,22,23
 356 219 356 219 376 76 c 0,24,25
 385 12 385 12 442 -140 c 0,26,27
 501 -297 501 -297 499 -411 c 0,28,29
 495 -667 495 -667 338 -799 c 0,30,31
 319 -815 319 -815 303.5 -799 c 128,-1,32
 288 -783 288 -783 301 -766 c 0,33,-1
 301 -765 l 24,34,-1
 302 -765 l 0,35,36
 444 -608 444 -608 435 -458 c 0,37,38
 430 -377 430 -377 370 -278 c 0,39,40
 271 -113 271 -113 300 72 c 256,41,42
 329 257 329 257 460 340 c 1,0,1
EndSplineSet
EndChar

StartChar: asciitilde
Encoding: 126 126 499
Width: 1140
Flags: W
HStem: 500 102<630 947> 606 102<212 522>
LayerCount: 4
Fore
SplineSet
989.052633242 536.317176422 m 1,0,1
 892.805126199 471.406204459 892.805126199 471.406204459 787.6979359 470.901535905 c 128,-1,2
 682.590745601 470.396867351 682.590745601 470.396867351 549.461791862 519.337242811 c 128,-1,3
 416.332838122 568.277618271 416.332838122 568.277618271 373.150158212 572.116043191 c 128,-1,4
 329.967478301 575.954468111 329.967478301 575.954468111 312 576 c 0,5,6
 240.751369193 575.032428263 240.751369193 575.032428263 163.695963479 507.369921022 c 1,7,-1
 133.256513136 481.278963585 l 1,8,-1
 114.789396203 492.141973545 l 1,9,10
 84.1954347579 511.329625487 84.1954347579 511.329625487 82 551.375271032 c 1,11,12
 83.3526501558 620.200565954 83.3526501558 620.200565954 179.595780802 679.745587369 c 1,13,14
 278.227932194 736.622176286 278.227932194 736.622176286 372.111835332 737.104286403 c 128,-1,15
 465.995738469 737.58639652 465.995738469 737.58639652 597.150509403 688.885612554 c 0,16,17
 728.305280336 640.184828589 728.305280336 640.184828589 776.092725208 636.113839339 c 128,-1,18
 823.880170079 632.04285009 823.880170079 632.04285009 858.170547016 632.369489407 c 0,19,20
 892.460923953 632.696128724 892.460923953 632.696128724 930.082985849 658.128926202 c 0,21,22
 967.705047744 683.56172368 967.705047744 683.56172368 1005.32429303 713.478031625 c 2,23,-1
 1021.45010256 726.305380121 l 1,24,-1
 1039.2106038 715.858026455 l 1,25,26
 1069.80456524 696.670374513 1069.80456524 696.670374513 1072 656.624728968 c 1,27,28
 1070.77396795 593.917104909 1070.77396795 593.917104909 989.052633242 536.317176422 c 1,0,1
EndSplineSet
Layer: 2
SplineSet
516.48828125 523.24609375 m 0,0,1
 397.529785156 567.2265625 397.529785156 567.2265625 326.708007812 573.196289062 c 0,2,3
 306.268474629 575.138983357 306.268474629 575.138983357 286.829101562 575.190429688 c 0,4,5
 206.416551497 574.386197854 206.416551497 574.386197854 126.696289062 504.399414062 c 2,6,-1
 126.23046875 503.987304688 l 2,7,8
 118.7890625 497.609863281 118.7890625 497.609863281 111.793945312 491.61328125 c 2,9,-1
 105.7890625 486.466796875 l 1,10,-1
 104.375976562 487.298828125 l 1,11,12
 87.4551915152 498.623292275 87.4551915152 498.623292275 86.0068359375 522.123046875 c 1,13,14
 86.0051896448 547.2487653 86.0051896448 547.2487653 107.448479215 578.101442896 c 0,15,16
 111.213626094 583.450589668 111.213626094 583.450589668 114.684570312 588.15625 c 0,17,18
 160.227992432 648.510920706 160.227992432 648.510920706 217.881835938 683.913085938 c 1,19,20
 310.869442306 737.520824347 310.869442306 737.520824347 397.171875 738.809570312 c 1,21,22
 486.099665463 738.390246242 486.099665463 738.390246242 607.534179688 694.749023438 c 0,23,24
 613.624670103 692.403273872 613.624670103 692.403273872 624.516601562 688.752929688 c 0,25,26
 632.387699066 685.823286091 632.387699066 685.823286091 635.518554688 684.75390625 c 0,27,28
 752.560683814 640.962056281 752.560683814 640.962056281 825.284179688 634.805664062 c 0,29,30
 847.732973108 632.854972593 847.732973108 632.854972593 869.171875 632.810546875 c 0,31,32
 934.273178988 633.520881917 934.273178988 633.520881917 997.640625 681.366210938 c 2,33,-1
 998.451171875 681.983398438 l 1,34,-1
 998.90625 682.286132812 l 2,35,36
 1008.11414304 689.328217294 1008.11414304 689.328217294 1043.90332031 717.791992188 c 2,37,-1
 1048.44238281 721.403320312 l 1,38,-1
 1049.62792969 720.705078125 l 1,39,40
 1066.54747048 709.380475985 1066.54747048 709.380475985 1067.99707031 685.880859375 c 1,41,42
 1067.99539275 660.348431225 1067.99539275 660.348431225 1044.40024849 626.965128558 c 0,43,44
 1041.67385827 623.148688696 1041.67385827 623.148688696 1039.51660156 620.204101562 c 0,45,46
 999.540556617 566.37075038 999.540556617 566.37075038 950.18359375 531.778320312 c 1,47,48
 859.283166942 470.498231354 859.283166942 470.498231354 760.826171875 469.1875 c 1,49,50
 660.957328088 469.60012904 660.957328088 469.60012904 536.46484375 515.25390625 c 0,51,52
 526.813555417 519.458039554 526.813555417 519.458039554 516.48828125 523.24609375 c 0,0,1
EndSplineSet
Layer: 3
SplineSet
542 554 m 0,0,1
 423 598 423 598 352 604 c 0,2,3
 332 606 332 606 312 606 c 0,4,5
 230 606 230 606 144 530 c 0,6,7
 137 524 137 524 130 518 c 1,8,9
 113 528 113 528 112 552 c 0,10,11
 112 603 112 603 195 654 c 1,12,13
 286 707 286 707 372 708 c 1,14,15
 460 708 460 708 582 664 c 0,16,17
 587 662 587 662 599 658 c 0,18,19
 607 655 607 655 610 654 c 0,20,21
 727 610 727 610 800 604 c 0,22,23
 822 602 822 602 844 602 c 0,24,25
 910 602 910 602 977 653 c 0,26,27
 980 655 980 655 1024 690 c 1,28,29
 1041 680 1041 680 1042 656 c 0,30,31
 1042 610 1042 610 972 561 c 0,32,33
 884 501 884 501 786 500 c 0,34,35
 687 500 687 500 562 546 c 0,36,37
 553 550 553 550 542 554 c 0,0,1
EndSplineSet
Comment: "From Linux Libertine, svn trunk@143" 
Colour: aabbcc
EndChar

StartChar: brokenbar
Encoding: 166 166 387
Width: 280
Flags: W
LayerCount: 3
Fore
SplineSet
220 170 m 1,0,-1
 220 -820 l 1,1,-1
 60 -820 l 1,2,-1
 60 170 l 1,3,-1
 220 170 l 1,0,-1
60 510 m 1,4,-1
 60 1500 l 1,5,-1
 220 1500 l 1,6,-1
 220 510 l 1,7,-1
 60 510 l 1,4,-1
EndSplineSet
Layer: 2
SplineSet
190 140 m 1,0,-1
 190 -790 l 1,1,-1
 90 -790 l 1,2,-1
 90 140 l 1,3,-1
 190 140 l 1,0,-1
90 540 m 1,4,-1
 90 1470 l 1,5,-1
 190 1470 l 1,6,-1
 190 540 l 1,7,-1
 90 540 l 1,4,-1
EndSplineSet
EndChar

StartChar: plusminus
Encoding: 177 177 308
Width: 2050
Flags: W
LayerCount: 4
Fore
SplineSet
250 -435 m 1,0,-1
 250 -255 l 1,1,-1
 935 -255 l 1,2,-1
 935 250 l 1,3,-1
 250 250 l 1,4,-1
 250 430 l 1,5,-1
 935 430 l 1,6,-1
 935 1115 l 1,7,-1
 1115 1115 l 1,8,-1
 1115 430 l 1,9,-1
 1800 430 l 1,10,-1
 1800 250 l 1,11,-1
 1115 250 l 1,12,-1
 1115 -255 l 1,13,-1
 1800 -255 l 1,14,-1
 1800 -435 l 1,15,-1
 250 -435 l 1,0,-1
EndSplineSet
Layer: 2
SplineSet
254.005859375 -435.80859375 m 1,0,-1
 254.001953125 -254.19140625 l 1,1,-1
 939.005859375 -254.189453125 l 1,2,-1
 939.00390625 249.189453125 l 1,3,-1
 254.006835938 249.193359375 l 1,4,-1
 254.002929688 430.810546875 l 1,5,-1
 939.006835938 430.811523438 l 1,6,-1
 939.002929688 1115.80566406 l 1,7,-1
 1110.99707031 1115.8125 l 1,8,-1
 1110.99609375 430.811523438 l 1,9,-1
 1795.99316406 430.807617188 l 1,10,-1
 1795.99609375 249.190429688 l 1,11,-1
 1110.99316406 249.188476562 l 1,12,-1
 1110.99511719 -254.190429688 l 1,13,-1
 1795.99707031 -254.1875 l 1,14,-1
 1795.99316406 -435.811523438 l 1,15,-1
 254.005859375 -435.80859375 l 1,0,-1
EndSplineSet
Layer: 3
SplineSet
280 -405 m 1,0,-1
 280 -285 l 1,1,-1
 965 -285 l 1,2,-1
 965 280 l 1,3,-1
 280 280 l 1,4,-1
 280 400 l 1,5,-1
 965 400 l 1,6,-1
 965 1085 l 1,7,-1
 1085 1085 l 1,8,-1
 1085 400 l 1,9,-1
 1770 400 l 1,10,-1
 1770 280 l 1,11,-1
 1085 280 l 1,12,-1
 1085 -285 l 1,13,-1
 1770 -285 l 1,14,-1
 1770 -405 l 1,15,-1
 280 -405 l 1,0,-1
EndSplineSet
EndChar

StartChar: periodcentered
Encoding: 183 183 500
Width: 512
VWidth: 2045
Flags: MW
LayerCount: 3
Fore
SplineSet
116 532 m 0,0,1
 117.046750677 607.220974897 117.046750677 607.220974897 178.686591974 648.177059791 c 1,2,3
 214.42385016 670.4806799 214.42385016 670.4806799 255.545558847 672 c 1,4,5
 331.234311262 670.955364832 331.234311262 670.955364832 372.177059791 609.313408026 c 1,6,7
 394.4806799 573.57614984 394.4806799 573.57614984 396 532.454441153 c 1,8,9
 394.955364832 456.765688738 394.955364832 456.765688738 333.313408026 415.822940209 c 1,10,11
 297.57614984 393.5193201 297.57614984 393.5193201 256.454441153 392 c 1,12,13
 180.78147986 393.032768487 180.78147986 393.032768487 140.026855445 454.374346769 c 0,14,15
 116.329472772 490.36408868 116.329472772 490.36408868 116 532 c 0,0,1
EndSplineSet
Layer: 2
SplineSet
146 532 m 0,0,1
 146 591 146 591 195 623 c 0,2,3
 223 641 223 641 256 642 c 0,4,5
 315 642 315 642 347 593 c 0,6,7
 365 565 365 565 366 532 c 0,8,9
 366 473 366 473 317 441 c 0,10,11
 289 423 289 423 256 422 c 0,12,13
 197 422 197 422 165 471 c 0,14,15
 146 499 146 499 146 532 c 0,0,1
EndSplineSet
EndChar

StartChar: multiply
Encoding: 215 215 305
Width: 1699
Flags: W
LayerCount: 4
Fore
SplineSet
341.122070312 -260.4765625 m 1,0,-1
 247.477539062 -166.833007812 l 1,1,-1
 732.4765625 317.166015625 l 1,2,-1
 247.259765625 802.384765625 l 1,3,-1
 388.950195312 942.407226562 l 1,4,-1
 872.892578125 458.465820312 l 1,5,-1
 1357.88085938 942.453125 l 1,6,-1
 1451.51660156 849.91796875 l 1,7,-1
 966.485351562 364.88671875 l 1,8,-1
 1451.48339844 -119.114257812 l 1,9,-1
 1310.12304688 -260.475585938 l 1,10,-1
 825.124023438 223.525390625 l 1,11,-1
 341.122070312 -260.4765625 l 1,0,-1
EndSplineSet
Layer: 2
SplineSet
407.552734375 -249.212890625 m 1,0,-1
 280.103515625 -121.743164062 l 1,1,-1
 765.103515625 341.021484375 l 1,2,-1
 280 804.787109375 l 1,3,-1
 407.677734375 930.962890625 l 1,4,-1
 891.57421875 468.404296875 l 1,5,-1
 1376.44921875 930.94140625 l 1,6,-1
 1504.10449219 804.787109375 l 1,7,-1
 1019.00097656 341.021484375 l 1,8,-1
 1504.00097656 -121.743164062 l 1,9,-1
 1376.57421875 -249.169921875 l 1,10,-1
 891.57421875 213.595703125 l 1,11,-1
 407.552734375 -249.212890625 l 1,0,-1
EndSplineSet
Layer: 3
SplineSet
365 -228 m 1,0,-1
 280 -143 l 1,1,-1
 765 341 l 1,2,-1
 280 826 l 1,3,-1
 365 910 l 1,4,-1
 849 426 l 1,5,-1
 1334 910 l 1,6,-1
 1419 826 l 1,7,-1
 934 341 l 1,8,-1
 1419 -143 l 1,9,-1
 1334 -228 l 1,10,-1
 849 256 l 1,11,-1
 365 -228 l 1,0,-1
EndSplineSet
EndChar
StartChar: uni030A
Encoding: 778 778 5774
Width: 0
GlyphClass: 4
Flags: W
AnchorPoint: "TashkilAbove" 254 1640 mark 0
AnchorPoint: "MarkAbove" 254 1640 mark 0
AnchorPoint: "TashkilTashkilAbove" 256 2214 basemark 0
LayerCount: 3
Back
SplineSet
88 1898 m 0,0,1
 89 1836 89 1836 128 1789 c 0,2,3
 179 1732 179 1732 254 1732 c 0,4,5
 316 1733 316 1733 363 1772 c 0,6,7
 420 1823 420 1823 420 1898 c 0,8,9
 419 1960 419 1960 380 2007 c 0,10,11
 329 2064 329 2064 254 2064 c 0,12,13
 192 2063 192 2063 145 2024 c 0,14,15
 88 1973 88 1973 88 1898 c 0,0,1
12 1898 m 0,16,17
 13 2009 13 2009 97 2081 c 0,18,19
 166 2140 166 2140 254 2140 c 0,20,21
 365 2139 365 2139 437 2055 c 0,22,23
 494 1986 494 1986 496 1898 c 0,24,25
 495 1787 495 1787 411 1715 c 0,26,27
 342 1658 342 1658 254 1656 c 0,28,29
 143 1657 143 1657 71 1741 c 0,30,31
 13 1810 13 1810 12 1898 c 0,16,17
EndSplineSet
Fore
SplineSet
98 1898.08063992 m 0,0,1
 99.6415100783 1839.38884356 99.6415100783 1839.38884356 135.576644104 1795.52910222 c 0,2,3
 184.261912854 1742.44473501 184.261912854 1742.44473501 253.919360083 1742 c 0,4,5
 312.611156443 1743.64151008 312.611156443 1743.64151008 356.470897782 1779.5766441 c 0,6,7
 409.555264986 1828.26191285 409.555264986 1828.26191285 410 1897.91936008 c 0,8,9
 408.358489922 1956.61115644 408.358489922 1956.61115644 372.423355896 2000.47089778 c 0,10,11
 323.738087146 2053.55526499 323.738087146 2053.55526499 254.080639917 2054 c 0,12,13
 195.388843557 2052.35848992 195.388843557 2052.35848992 151.529102218 2016.4233559 c 0,14,15
 98.4429782095 1967.73271503 98.4429782095 1967.73271503 98 1898.08063992 c 0,0,1
1.9994881383 1897.98822748 m 0,16,17
 3.94758098797 2013.80682932 3.94758098797 2013.80682932 90.5011620698 2088.60033588 c 0,18,19
 162.983859978 2149.62311422 162.983859978 2149.62311422 254.045044131 2150 c 0,20,21
 369.808391605 2148.05074619 369.808391605 2148.05074619 444.651723987 2061.43889611 c 0,22,23
 503.58360055 1989.01098776 503.58360055 1989.01098776 506.00102365 1898.06858107 c 0,24,25
 504.0509273 1782.18950108 504.0509273 1782.18950108 417.438896111 1707.34827601 c 0,26,27
 345.010987757 1648.41639945 345.010987757 1648.41639945 254.068581072 1645.99897635 c 0,28,29
 138.190911365 1647.948216 138.190911365 1647.948216 63.3761090042 1734.52863207 c 0,30,31
 3.39870783869 1806.98143894 3.39870783869 1806.98143894 1.9994881383 1897.98822748 c 0,16,17
EndSplineSet
EndChar

StartChar: uni0600
Encoding: 1536 1536 4827
Width: 2168
VWidth: 0
Flags: W
LayerCount: 3
Fore
SplineSet
1890 -128 m 1,0,1
 1781 -101 1781 -101 1782 -29 c 0,2,3
 1784 117 1784 117 1892 237 c 0,4,5
 1966 320 1966 320 2035 326 c 0,6,7
 2100 332 2100 332 2069 262 c 2,8,-1
 2025 163 l 2,9,10
 2007 124 2007 124 1966 114.5 c 128,-1,11
 1925 105 1925 105 1905 89 c 1,12,13
 1964 60 1964 60 2043.5 53.5 c 128,-1,14
 2123 47 2123 47 2122 -30 c 0,15,16
 2121 -83 2121 -83 2047 -182 c 0,17,18
 1909 -365 1909 -365 997 -365 c 0,19,20
 324 -365 324 -365 234 -328 c 0,21,22
 184 -307 184 -307 151 -269 c 1,23,-1
 84 -195 l 2,24,25
 47 -155 47 -155 64 -132 c 128,-1,26
 81 -109 81 -109 116 -118 c 0,27,28
 289 -162 289 -162 988.5 -161.5 c 128,-1,29
 1688 -161 1688 -161 1890 -128 c 1,0,1
EndSplineSet
Layer: 2
SplineSet
1964 -128 m 17,0,1
 1873 -192 1873 -192 1097 -192 c 128,-1,2
 321 -192 321 -192 94 -152 c 0,3,4
 60 -146 60 -146 60 -154.5 c 128,-1,5
 60 -163 60 -163 71 -175 c 2,6,-1
 138 -249 l 2,7,8
 167 -282 167 -282 211 -300 c 0,9,10
 293 -335 293 -335 1107 -335 c 128,-1,11
 1921 -335 1921 -335 2049 -164 c 0,12,13
 2108 -85 2108 -85 2108 -30 c 128,-1,14
 2108 25 2108 25 2042 34.5 c 128,-1,15
 1976 44 1976 44 1934 61 c 128,-1,16
 1892 78 1892 78 1904 93 c 0,17,18
 1925 120 1925 120 1985 136 c 0,19,20
 1996 139 1996 139 2007 165 c 2,21,-1
 2051 273 l 2,22,23
 2060 296 2060 296 2045 296 c 0,24,25
 1985 296 1985 296 1914 217 c 0,26,27
 1805 96 1805 96 1805 -29 c 0,28,29
 1805 -90 1805 -90 1905 -114 c 2,30,-1
 1964 -128 l 17,0,1
EndSplineSet
EndChar

StartChar: uni0601
Encoding: 1537 1537 4943
Width: 3651
VWidth: 0
Flags: W
LayerCount: 4
Back
SplineSet
3524 -71 m 0,0,1
 3591 -71 3591 -71 3591 -117 c 0,2,3
 3591 -143 3591 -143 3575 -192.5 c 128,-1,4
 3559 -242 3559 -242 3526 -278.5 c 128,-1,5
 3493 -315 3493 -315 3402 -412 c 128,-1,6
 3311 -509 3311 -509 3250 -596 c 0,7,8
 3229 -625 3229 -625 3220.5 -615 c 128,-1,9
 3212 -605 3212 -605 3225 -581 c 1,10,11
 3301 -454 3301 -454 3371 -378.5 c 128,-1,12
 3441 -303 3441 -303 3511 -237 c 1,13,14
 3498 -207 3498 -207 3458.5 -207 c 128,-1,15
 3419 -207 3419 -207 3359 -232 c 0,16,17
 2994 -381 2994 -381 2770 -452 c 0,18,19
 2302 -601 2302 -601 1842 -601 c 0,20,21
 1530 -601 1530 -601 1341 -542 c 128,-1,22
 1152 -483 1152 -483 1010 -365 c 1,23,24
 994 -354 994 -354 983 -371 c 0,25,26
 927 -465 927 -465 855 -506 c 0,27,28
 810 -532 810 -532 767 -532 c 0,29,30
 690 -532 690 -532 616 -451 c 0,31,32
 605 -438 605 -438 570 -394.5 c 128,-1,33
 535 -351 535 -351 497 -351 c 128,-1,34
 459 -351 459 -351 414.5 -410 c 128,-1,35
 370 -469 370 -469 358.5 -497 c 128,-1,36
 347 -525 347 -525 322.5 -592.5 c 128,-1,37
 298 -660 298 -660 271.5 -694 c 128,-1,38
 245 -728 245 -728 208 -729 c 1,39,40
 133 -728 133 -728 96.5 -636.5 c 128,-1,41
 60 -545 60 -545 60 -299 c 0,42,43
 60 -279 60 -279 73.5 -274.5 c 128,-1,44
 87 -270 87 -270 91 -284.5 c 128,-1,45
 95 -299 95 -299 96 -392 c 0,46,47
 98 -600 98 -600 198 -615 c 1,48,-1
 203 -615 l 2,49,50
 243 -615 243 -615 285 -527 c 0,51,52
 296 -504 296 -504 315 -460 c 0,53,54
 418 -209 418 -209 532 -209 c 0,55,56
 570 -209 570 -209 624 -274 c 128,-1,57
 678 -339 678 -339 714 -362.5 c 128,-1,58
 750 -386 750 -386 797 -386 c 0,59,60
 910 -386 910 -386 1004 -233 c 0,61,62
 1033 -186 1033 -186 1054 -186 c 0,63,64
 1069 -186 1069 -186 1091 -221 c 0,65,66
 1161 -334 1161 -334 1377 -394.5 c 128,-1,67
 1593 -455 1593 -455 1945 -455 c 0,68,69
 2368 -455 2368 -455 2903 -277 c 0,70,71
 2974 -253 2974 -253 3201.5 -162 c 128,-1,72
 3429 -71 3429 -71 3524 -71 c 0,0,1
395 341 m 2,0,1
 397 346 397 346 400 346 c 0,2,3
 452 346 452 346 530 288 c 0,4,5
 538 282 538 282 533 275 c 1,6,-1
 471 151 l 1,7,8
 537 134 537 134 590 93 c 0,9,10
 598 87 598 87 592 79 c 1,11,-1
 524 -51 l 2,12,13
 524 -52 524 -52 516 -52 c 128,-1,14
 508 -52 508 -52 387 13 c 0,15,16
 380 17 380 17 384 23 c 2,17,-1
 453 143 l 1,18,19
 449 148 449 148 329 207 c 0,20,21
 322 211 322 211 326 216 c 1,22,-1
 395 341 l 2,0,1
884 194 m 2,23,24
 887 200 887 200 891 200 c 2,25,-1
 897 200 l 1,26,27
 965 189 965 189 1023 152 c 0,28,29
 1031 147 1031 147 1027 138 c 2,30,-1
 971 3 l 2,31,32
 971 2 971 2 961 2 c 128,-1,33
 951 2 951 2 829 54 c 0,34,35
 822 57 822 57 825 63 c 2,36,-1
 884 194 l 2,23,24
-69.705078125 234.931640625 m 1,121,122
 -41.1533203125 261.182617188 -41.1533203125 261.182617188 -4.9140625 240.67578125 c 0,123,124
 100.018554688 179.93359375 100.018554688 179.93359375 138.591796875 97.4619140625 c 0,125,126
 156.196289062 59.009765625 156.196289062 59.009765625 156.9609375 19.7890625 c 0,127,128
 157.544921875 -63.2646484375 157.544921875 -63.2646484375 120.227539062 -100.331054688 c 0,129,130
 105.034179688 -115.157226562 105.034179688 -115.157226562 82.056640625 -113.444335938 c 0,131,132
 48.5751953125 -110.685546875 48.5751953125 -110.685546875 -7.9365234375 -90.3857421875 c 1,133,134
 -39.51171875 -175.513671875 -39.51171875 -175.513671875 -121.845703125 -253.180664062 c 0,135,136
 -139.487304688 -269.6875 -139.487304688 -269.6875 -156.599609375 -282.923828125 c 0,137,138
 -298.381835938 -392.041992188 -298.381835938 -392.041992188 -464.967773438 -476.419921875 c 0,139,140
 -468.303710938 -478.106445312 -468.303710938 -478.106445312 -470.890625 -479.411132812 c 0,141,142
 -484.8359375 -486.436523438 -484.8359375 -486.436523438 -485.282226562 -477.55859375 c 1,143,144
 -484.665039062 -469.91796875 -484.665039062 -469.91796875 -476.025390625 -462.81640625 c 0,145,146
 -449.131835938 -442.361328125 -449.131835938 -442.361328125 -393.522460938 -401.76953125 c 0,147,148
 -261.239257812 -305.086914062 -261.239257812 -305.086914062 -197.763671875 -248.477539062 c 0,149,150
 -77.388671875 -140.557617188 -77.388671875 -140.557617188 -45.4033203125 -76.80859375 c 1,151,152
 -81.6181640625 -61.357421875 -81.6181640625 -61.357421875 -112.013671875 -42.1103515625 c 0,153,154
 -157.182617188 -12.2314453125 -157.182617188 -12.2314453125 -144.784179688 48.9619140625 c 0,155,156
 -143.373046875 55.7001953125 -143.373046875 55.7001953125 -141.09375 69.5966796875 c 0,157,158
 -136.213867188 98.50390625 -136.213867188 98.50390625 -131.549804688 112.0390625 c 0,159,160
 -113.33984375 162.59765625 -113.33984375 162.59765625 -89.921875 186.928710938 c 1,161,162
 -85.6318359375 219.1640625 -85.6318359375 219.1640625 -69.705078125 234.931640625 c 1,121,122
-56.22265625 118.19140625 m 0,163,164
 -75.73046875 120.120117188 -75.73046875 120.120117188 -87.9677734375 95.1083984375 c 0,165,166
 -100.205078125 68.330078125 -100.205078125 68.330078125 -85.400390625 50.96484375 c 0,167,168
 -73.0478515625 37.28515625 -73.0478515625 37.28515625 -32.7412109375 24.7998046875 c 0,169,170
 -30.4462890625 24.0849609375 -30.4462890625 24.0849609375 -29.234375 23.7060546875 c 0,171,172
 -21.875 23 -21.875 23 -20.7578125 28.880859375 c 0,173,174
 -14.51953125 113.3515625 -14.51953125 113.3515625 -56.22265625 118.19140625 c 0,163,164
48.7939453125 97.0888671875 m 1,175,176
 33.9609375 108.62890625 33.9609375 108.62890625 34.9609375 95.2890625 c 0,177,178
 39.1357421875 63.279296875 39.1357421875 63.279296875 21.64453125 7.2236328125 c 1,179,180
 53.669921875 -9.236328125 53.669921875 -9.236328125 80.0576171875 -12.7265625 c 0,181,182
 96.609375 -14.8154296875 96.609375 -14.8154296875 98.4921875 -11.4091796875 c 0,183,184
 100.047851562 -7.40234375 100.047851562 -7.40234375 100.118164062 3.3359375 c 0,185,186
 99.396484375 52.794921875 99.396484375 52.794921875 48.7939453125 97.0888671875 c 1,175,176
EndSplineSet
Fore
SplineSet
1002.09853751 -397.292704461 m 1,0,1
 898.221042931 -561.216895992 898.221042931 -561.216895992 767 -562 c 1,2,3
 676.346157312 -560.99397603 676.346157312 -560.99397603 593.466745636 -470.813571295 c 0,4,5
 580.784357502 -455.750503373 580.784357502 -455.750503373 550.70861382 -418.375251687 c 128,-1,6
 520.632870138 -381 520.632870138 -381 496.86438091 -381.947598539 c 128,-1,7
 473.095891682 -382.895197078 473.095891682 -382.895197078 434.878661981 -433.297705669 c 128,-1,8
 396.661432281 -483.700214259 396.661432281 -483.700214259 385.628912716 -510.318985602 c 128,-1,9
 374.596393151 -536.937756945 374.596393151 -536.937756945 349.423315257 -605.856834875 c 128,-1,10
 324.250237362 -674.775912804 324.250237362 -674.775912804 291.713673841 -715.926734012 c 128,-1,11
 259.177110321 -757.077555219 259.177110321 -757.077555219 208.205358784 -759.005404665 c 1,12,13
 112.670627327 -756.291937623 112.670627327 -756.291937623 71.384237239 -652.939079443 c 128,-1,14
 30.0978471509 -549.586221263 30.0978471509 -549.586221263 30 -299 c 0,15,16
 30 -258.204256613 30 -258.204256613 61.0902373596 -247.427327552 c 0,17,18
 107.486159953 -231.344929702 107.486159953 -231.344929702 121.268781262 -282.635820038 c 0,19,20
 124.978229667 -296.440226839 124.978229667 -296.440226839 125.998449252 -391.6944948 c 0,21,22
 128.325160752 -570.80759518 128.325160752 -570.80759518 200.437172415 -585 c 1,23,-1
 203 -585 l 2,24,25
 228.298918934 -585 228.298918934 -585 287.349736734 -448.357934092 c 1,26,27
 397.491504232 -179.954209411 397.491504232 -179.954209411 532 -179 c 1,28,29
 584.735624058 -180.151809131 584.735624058 -180.151809131 641.491511185 -248.09696015 c 128,-1,30
 698.247398311 -316.042111169 698.247398311 -316.042111169 728.966665925 -335.886044072 c 128,-1,31
 759.68593354 -355.729976974 759.68593354 -355.729976974 797 -356 c 0,32,33
 893.660702543 -354.377998045 893.660702543 -354.377998045 978.453828817 -217.27123769 c 0,34,35
 1050.59752607 -100.34869385 1050.59752607 -100.34869385 1116.13195667 -204.324047184 c 128,-1,36
 1181.66638727 -308.299400519 1181.66638727 -308.299400519 1389.82596947 -366.59597875 c 128,-1,37
 1597.98555166 -424.892556982 1597.98555166 -424.892556982 1980.90163209 -424.759952629 c 128,-1,38
 2363.81771251 -424.627348277 2363.81771251 -424.627348277 2893.46109385 -248.556821363 c 0,39,40
 2964.89954709 -224.313990513 2964.89954709 -224.313990513 3194.06103749 -132.656995257 c 128,-1,41
 3423.22252789 -41 3423.22252789 -41 3508.1849732 -41 c 0,42,43
 3620.04282311 -41 3620.04282311 -41 3621 -117 c 0,44,45
 3620.60773305 -148.663526505 3620.60773305 -148.663526505 3602.79702202 -203.141234181 c 128,-1,46
 3584.98631098 -257.618941857 3584.98631098 -257.618941857 3549.47062515 -297.060012267 c 128,-1,47
 3513.95493933 -336.501082678 3513.95493933 -336.501082678 3424.0605317 -432.446436599 c 128,-1,48
 3334.16612408 -528.391790521 3334.16612408 -528.391790521 3299.01242405 -577.966764075 c 128,-1,49
 3263.85872402 -627.541737629 3263.85872402 -627.541737629 3249.24298478 -640.454646468 c 128,-1,50
 3234.62724555 -653.367555307 3234.62724555 -653.367555307 3219.15940648 -647.233793855 c 0,51,52
 3166.59895535 -626.390981394 3166.59895535 -626.390981394 3198.92733307 -566.146412501 c 1,53,54
 3277.20846825 -435.751614658 3277.20846825 -435.751614658 3342.65308156 -365.11207928 c 128,-1,55
 3408.09769488 -294.472543902 3408.09769488 -294.472543902 3466.94528481 -237.569177605 c 1,56,57
 3433.22552507 -233.780833064 3433.22552507 -233.780833064 3370.43850036 -259.733958181 c 0,58,59
 3004.07124624 -409.222428853 3004.07124624 -409.222428853 2779.08282289 -480.592004097 c 0,60,61
 2306.17307342 -630.839445774 2306.17307342 -630.839445774 1842 -631 c 0,62,63
 1525.27912957 -630.760730995 1525.27912957 -630.760730995 1335.0324352 -571.25702486 c 128,-1,64
 1144.78574084 -511.753318725 1144.78574084 -511.753318725 1002.09853751 -397.292704461 c 1,0,1
EndSplineSet
Layer: 2
SplineSet
3549.17382812 -40.1884765625 m 1,0,1
 3616.01264899 -41.584675236 3616.01264899 -41.584675236 3616.99609375 -87.1650390625 c 1,2,3
 3616.57404693 -114.708790184 3616.57404693 -114.708790184 3600.69824219 -164.1640625 c 0,4,5
 3579.72797329 -226.492809787 3579.72797329 -226.492809787 3522.38183594 -290.270507812 c 0,6,7
 3486.58727135 -329.808979306 3486.58727135 -329.808979306 3395.08203125 -427.35546875 c 0,8,9
 3317.95952536 -509.799376632 3317.95952536 -509.799376632 3267.81933594 -581.15234375 c 2,10,-1
 3266.98828125 -582.336914062 l 1,11,-1
 3266.09179688 -583.57421875 l 2,12,13
 3255.94908113 -597.580701783 3255.94908113 -597.580701783 3246.83194913 -608.605171931 c 128,-1,14
 3237.71481714 -619.629642079 3237.71481714 -619.629642079 3230.99117347 -626.410962704 c 128,-1,15
 3224.26752981 -633.192283328 3224.26752981 -633.192283328 3218.45631138 -637.816257481 c 128,-1,16
 3212.64509295 -642.440231634 3212.64509295 -642.440231634 3208.76477041 -644.411082283 c 128,-1,17
 3204.88444788 -646.381932931 3204.88444788 -646.381932931 3201.82668765 -646.969079548 c 128,-1,18
 3198.76892743 -647.556226164 3198.76892743 -647.556226164 3197.17947067 -647.080275295 c 128,-1,19
 3195.59001391 -646.604324425 3195.59001391 -646.604324425 3194.70996094 -645.569335938 c 0,20,21
 3186.429241 -633.162786757 3186.429241 -633.162786757 3201.06835938 -605.463867188 c 2,22,-1
 3201.64550781 -604.397460938 l 1,23,-1
 3202.37402344 -603.1796875 l 2,24,25
 3288.40822838 -459.907854623 3288.40822838 -459.907854623 3376.91113281 -364.223632812 c 0,26,27
 3427.33160865 -309.920783881 3427.33160865 -309.920783881 3479.8515625 -257.981445312 c 1,28,29
 3463.89851263 -238.165325152 3463.89851263 -238.165325152 3433.32714844 -237.811523438 c 0,30,31
 3393.44565449 -238.312513412 3393.44565449 -238.312513412 3334.86425781 -262.55859375 c 0,32,33
 2969.74169922 -411.609375 2969.74169922 -411.609375 2745.51953125 -482.681640625 c 0,34,35
 2276.63378366 -631.650193861 2276.63378366 -631.650193861 1816.83007812 -631.807617188 c 0,36,37
 1504.69677734 -631.812011719 1504.69677734 -631.812011719 1315.52246094 -572.768554688 c 0,38,39
 1126.10446342 -513.191621231 1126.10446342 -513.191621231 984.3125 -395.662109375 c 0,40,41
 981.132053943 -393.66496879 981.132053943 -393.66496879 977.408203125 -392.159179688 c 1,42,43
 904.429847072 -494.340633757 904.429847072 -494.340633757 831.932617188 -536.01953125 c 0,44,45
 785.105031907 -562.522841827 785.105031907 -562.522841827 741.830078125 -562.80859375 c 0,46,47
 663.960847949 -561.745455717 663.960847949 -561.745455717 590.209960938 -481.567382812 c 0,48,49
 579.198730469 -468.547851562 579.198730469 -468.547851562 544.203125 -425.05078125 c 0,50,51
 508.862302972 -382.402872403 508.862302972 -382.402872403 471.830078125 -381.80859375 c 0,52,53
 449.282345245 -382.172959952 449.282345245 -382.172959952 427.79296875 -401.328125 c 1,54,55
 392.384434283 -449.121442268 392.384434283 -449.121442268 383.836914062 -469.647460938 c 0,56,57
 372.073972839 -498.446828776 372.073972839 -498.446828776 348.063476562 -564.555664062 c 0,58,59
 322.778016899 -634.221027665 322.778016899 -634.221027665 290.257040455 -678.137943411 c 0,60,61
 286.027017789 -683.798955667 286.027017789 -683.798955667 282.3125 -688.586914062 c 0,62,63
 229.050839466 -756.92293767 229.050839466 -756.92293767 192.707511204 -759.484502308 c 0,64,65
 189.579579809 -759.660611109 189.579579809 -759.660611109 182.8359375 -759.8125 c 0,66,67
 107.280806646 -757.180199573 107.280806646 -757.180199573 70.591796875 -666.854492188 c 1,68,69
 34.1115081257 -573.965277397 34.1115081257 -573.965277397 34.0068359375 -328.831054688 c 0,70,71
 34.0068359375 -327.394305456 34.0068359375 -327.394305456 33.424617233 -325.274860912 c 0,72,73
 31.38227707 -317.840151784 31.38227707 -317.840151784 45.7230728734 -297.286314135 c 0,74,75
 46.8396957304 -295.69846016 46.8396957304 -295.69846016 47.2529296875 -295.111328125 c 0,76,77
 81.9165577968 -246.294777842 81.9165577968 -246.294777842 97.93359375 -243.830078125 c 0,78,79
 112.456159772 -240.670478605 112.456159772 -240.670478605 116.9453125 -254.247070312 c 1,80,81
 120.974997953 -270.513498097 120.974997953 -270.513498097 121.997070312 -362.141601562 c 0,82,83
 124.865577553 -568.499219874 124.865577553 -568.499219874 223.264648438 -584.188476562 c 1,84,-1
 228.170898438 -584.19140625 l 2,85,86
 237.386306178 -583.77735063 237.386306178 -583.77735063 246.58203125 -579.27734375 c 1,87,88
 254.078155454 -565.940665676 254.078155454 -565.940665676 260.198242188 -553.16015625 c 0,89,90
 271.373508228 -529.666559959 271.373508228 -529.666559959 289.7265625 -487.200195312 c 0,91,92
 339.812903631 -365.14328703 339.812903631 -365.14328703 401.378681281 -287.445979437 c 0,93,94
 404.190774424 -283.916264052 404.190774424 -283.916264052 406.232421875 -281.383789062 c 0,95,96
 482.708476398 -186.843462156 482.708476398 -186.843462156 539.884624911 -179.245374243 c 0,97,98
 548.410339603 -178.240347155 548.410339603 -178.240347155 557.170898438 -178.190429688 c 0,99,100
 596.35108119 -179.586305791 596.35108119 -179.586305791 649.791992188 -243.439453125 c 0,101,102
 703.928121543 -308.171506021 703.928121543 -308.171506021 739.649414062 -331.814453125 c 0,103,104
 775.464246561 -355.189453125 775.464246561 -355.189453125 822.171875 -355.189453125 c 0,105,106
 886.664736767 -355.19077022 886.664736767 -355.19077022 941.392192522 -306.797622932 c 0,107,108
 944.439642803 -304.037769472 944.439642803 -304.037769472 946.412109375 -302.176757812 c 0,109,110
 960.914615008 -288.26599703 960.914615008 -288.26599703 980.624394337 -256.381160997 c 0,111,112
 981.578733504 -254.832561991 981.578733504 -254.832561991 981.916015625 -254.28515625 c 0,113,114
 1022.78976237 -188.044641467 1022.78976237 -188.044641467 1065.24461534 -161.065494637 c 0,115,116
 1074.49125609 -155.189453125 1074.49125609 -155.189453125 1079.17285156 -155.189453125 c 0,117,118
 1095.44153306 -157.032199454 1095.44153306 -157.032199454 1116.84667969 -190.517578125 c 0,119,120
 1187.97534397 -303.329509951 1187.97534397 -303.329509951 1402.45410156 -363.725585938 c 0,121,122
 1618.29003906 -424.176757812 1618.29003906 -424.176757812 1970.171875 -424.190429688 c 0,123,124
 2393.5385832 -423.819079793 2393.5385832 -423.819079793 2927.41601562 -246.3359375 c 0,125,126
 2999.58737156 -221.846960412 2999.58737156 -221.846960412 3225.67285156 -131.42578125 c 0,127,128
 3453.65257751 -40.4738256781 3453.65257751 -40.4738256781 3549.17382812 -40.1884765625 c 1,0,1
EndSplineSet
Layer: 3
SplineSet
3524 -71 m 0,0,1
 3591 -71 3591 -71 3591 -117 c 0,2,3
 3591 -143 3591 -143 3575 -192.5 c 128,-1,4
 3559 -242 3559 -242 3526 -278.5 c 128,-1,5
 3493 -315 3493 -315 3402 -412 c 128,-1,6
 3311 -509 3311 -509 3250 -596 c 0,7,8
 3229 -625 3229 -625 3220.5 -615 c 128,-1,9
 3212 -605 3212 -605 3225 -581 c 1,10,11
 3301 -454 3301 -454 3371 -378.5 c 128,-1,12
 3441 -303 3441 -303 3511 -237 c 1,13,14
 3498 -207 3498 -207 3458.5 -207 c 128,-1,15
 3419 -207 3419 -207 3359 -232 c 0,16,17
 2994 -381 2994 -381 2770 -452 c 0,18,19
 2302 -601 2302 -601 1842 -601 c 0,20,21
 1530 -601 1530 -601 1341 -542 c 128,-1,22
 1152 -483 1152 -483 1010 -365 c 1,23,24
 994 -354 994 -354 983 -371 c 0,25,26
 927 -465 927 -465 855 -506 c 0,27,28
 810 -532 810 -532 767 -532 c 0,29,30
 690 -532 690 -532 616 -451 c 0,31,32
 605 -438 605 -438 570 -394.5 c 128,-1,33
 535 -351 535 -351 497 -351 c 128,-1,34
 459 -351 459 -351 414.5 -410 c 128,-1,35
 370 -469 370 -469 358.5 -497 c 128,-1,36
 347 -525 347 -525 322.5 -592.5 c 128,-1,37
 298 -660 298 -660 271.5 -694 c 128,-1,38
 245 -728 245 -728 208 -729 c 1,39,40
 133 -728 133 -728 96.5 -636.5 c 128,-1,41
 60 -545 60 -545 60 -299 c 0,42,43
 60 -279 60 -279 73.5 -274.5 c 128,-1,44
 87 -270 87 -270 91 -284.5 c 128,-1,45
 95 -299 95 -299 96 -392 c 0,46,47
 98 -600 98 -600 198 -615 c 1,48,-1
 203 -615 l 2,49,50
 243 -615 243 -615 285 -527 c 0,51,52
 296 -504 296 -504 315 -460 c 0,53,54
 418 -209 418 -209 532 -209 c 0,55,56
 570 -209 570 -209 624 -274 c 128,-1,57
 678 -339 678 -339 714 -362.5 c 128,-1,58
 750 -386 750 -386 797 -386 c 0,59,60
 910 -386 910 -386 1004 -233 c 0,61,62
 1033 -186 1033 -186 1054 -186 c 0,63,64
 1069 -186 1069 -186 1091 -221 c 0,65,66
 1161 -334 1161 -334 1377 -394.5 c 128,-1,67
 1593 -455 1593 -455 1945 -455 c 0,68,69
 2368 -455 2368 -455 2903 -277 c 0,70,71
 2974 -253 2974 -253 3201.5 -162 c 128,-1,72
 3429 -71 3429 -71 3524 -71 c 0,0,1
EndSplineSet
EndChar

StartChar: uni0602
Encoding: 1538 1538 4830
Width: 1664
VWidth: 1000
Flags: W
LayerCount: 3
Fore
SplineSet
307.66852857 -148.573964507 m 1,0,1
 299.684438581 -46.7503212621 299.684438581 -46.7503212621 247.728037916 -35.0496529736 c 128,-1,2
 195.771637251 -23.3489846851 195.771637251 -23.3489846851 186.324627927 -51.3997622551 c 1,3,4
 169.828788923 -106.881152349 169.828788923 -106.881152349 220.185506441 -125.132726096 c 0,5,6
 257.371012882 -138.610451543 257.371012882 -138.610451543 307.66852857 -148.573964507 c 1,0,1
169.148050118 -305.107708544 m 0,7,8
 122.992685642 -282.59039869 122.992685642 -282.59039869 88.1829108886 -240.937716221 c 128,-1,9
 53.3731361352 -199.285033753 53.3731361352 -199.285033753 53 -142 c 0,10,11
 53.7678419967 -24.4336233106 53.7678419967 -24.4336233106 135.505247501 69.8498557114 c 1,12,13
 233.822211782 177.944011496 233.822211782 177.944011496 347.261532907 110.828791625 c 0,14,15
 416.71118577 69.0049370578 416.71118577 69.0049370578 417 -82 c 0,16,17
 416.907235648 -120.987736165 416.907235648 -120.987736165 412.835535672 -166.684137965 c 1,18,19
 541.344613846 -179.965182259 541.344613846 -179.965182259 868.532479968 -178.912505845 c 128,-1,20
 1195.72034609 -177.85982943 1195.72034609 -177.85982943 1529.88568162 -120.439140075 c 0,21,22
 1554.5146024 -116.28670294 1554.5146024 -116.28670294 1568.16029812 -116.009084173 c 1,23,-1
 1587.2142251 -117.23814226 l 1,24,25
 1610.11193431 -125.115255332 1610.11193431 -125.115255332 1610.55596715 -150.095124298 c 128,-1,26
 1611 -175.074993264 1611 -175.074993264 1582.32282322 -193.002164797 c 0,27,28
 1576.70939403 -196.56618547 1576.70939403 -196.56618547 1575.02088833 -197.704405662 c 2,29,-1
 1489.92484047 -255.769944206 l 2,30,31
 1446.91687287 -284.729006325 1446.91687287 -284.729006325 1395.40483566 -298.071785369 c 0,32,33
 1146.84968962 -360.908502699 1146.84968962 -360.908502699 717.193309318 -360.844405243 c 128,-1,34
 287.536929016 -360.780307788 287.536929016 -360.780307788 169.148050118 -305.107708544 c 0,7,8
EndSplineSet
Layer: 2
SplineSet
226 -2 m 0,0,1
 153 -2 153 -2 153 -80 c 0,2,3
 153 -133 153 -133 222 -159 c 1,4,5
 256 -170 256 -170 339 -185 c 1,6,7
 339 -2 339 -2 226 -2 c 0,0,1
182 -278 m 0,8,9
 142 -259 142 -259 112.5 -224 c 128,-1,10
 83 -189 83 -189 83 -142 c 0,11,12
 83 -36 83 -36 158 50 c 0,13,14
 208 106 208 106 252.5 106 c 128,-1,15
 297 106 297 106 332 85 c 0,16,17
 387 53 387 53 387 -82 c 0,18,19
 387 -131 387 -131 380 -193 c 1,20,21
 507 -210 507 -210 791 -210 c 0,22,23
 1198 -208 1198 -208 1535 -150 c 0,24,25
 1581 -142 1581 -142 1581 -150 c 256,26,27
 1581 -157 1581 -157 1558 -173 c 2,28,-1
 1473 -231 l 2,29,30
 1435 -257 1435 -257 1388 -269 c 0,31,32
 1144 -331 1144 -331 719 -331 c 128,-1,33
 294 -331 294 -331 182 -278 c 0,8,9
EndSplineSet
EndChar

StartChar: uni0603
Encoding: 1539 1539 4941
Width: 2272
Flags: W
LayerCount: 4
Fore
SplineSet
30 -122 m 0,0,1
 30 -72.1578312148 30 -72.1578312148 97.124622799 -89.8534432064 c 0,2,3
 99.9068245373 -90.5868963029 99.9068245373 -90.5868963029 99.9728755097 -90.6004950325 c 0,4,5
 546.254351665 -179.885178366 546.254351665 -179.885178366 878 -180 c 0,6,7
 1354.78715714 -179.722614803 1354.78715714 -179.722614803 1547.61058689 -84.1536868914 c 0,8,9
 1578.18054007 -68.8687103011 1578.18054007 -68.8687103011 1609.54989283 -107.286430438 c 128,-1,10
 1640.91924558 -145.704150574 1640.91924558 -145.704150574 1705.56647696 -156.033503311 c 1,11,12
 1895.52023607 115.193683524 1895.52023607 115.193683524 2070.90909174 117 c 1,13,14
 2110.76707833 116.265346204 2110.76707833 116.265346204 2176.05801791 73.3725722685 c 128,-1,15
 2241.34895748 30.479798333 2241.34895748 30.479798333 2241.38349808 -37.4924171865 c 128,-1,16
 2241.41803869 -105.464632706 2241.41803869 -105.464632706 2201.04323246 -177.287385137 c 128,-1,17
 2160.66842624 -249.110137567 2160.66842624 -249.110137567 2142.21648047 -263.836290712 c 0,18,19
 2025.22377588 -351.726714408 2025.22377588 -351.726714408 1828 -352 c 0,20,21
 1764.46706856 -351.789954927 1764.46706856 -351.789954927 1708.00306226 -339.070693842 c 1,22,23
 1698.5270812 -365.208374642 1698.5270812 -365.208374642 1689.44997519 -406.151362696 c 128,-1,24
 1680.37286918 -447.094350749 1680.37286918 -447.094350749 1642.87406751 -447.547175375 c 128,-1,25
 1605.37526585 -448 1605.37526585 -448 1594.70881287 -411.382015982 c 128,-1,26
 1584.0423599 -374.764031964 1584.0423599 -374.764031964 1607.63509991 -308.243559922 c 1,27,28
 1562.56612564 -293.958506356 1562.56612564 -293.958506356 1523.10307618 -265.64463371 c 1,29,30
 1327.99134508 -363.868591678 1327.99134508 -363.868591678 823 -364 c 0,31,32
 481.666140372 -363.761064937 481.666140372 -363.761064937 218.06699965 -291.932118924 c 0,33,34
 147.580084682 -272.037164847 147.580084682 -272.037164847 115.711849186 -237.080928925 c 2,35,-1
 48.8230018034 -163.203694502 l 2,36,37
 30.5124809145 -141.926790701 30.5124809145 -141.926790701 30 -122 c 0,0,1
2089.45730644 -141.37259735 m 1,38,39
 1984.34885834 10.5155147059 1984.34885834 10.5155147059 1828.52262671 -175.725038049 c 1,40,41
 1885.42109003 -177.086569422 1885.42109003 -177.086569422 1972.88505435 -166.991897817 c 128,-1,42
 2060.34901867 -156.897226212 2060.34901867 -156.897226212 2089.45730644 -141.37259735 c 1,38,39
EndSplineSet
Layer: 2
SplineSet
1618.83007812 -448.807617188 m 1,0,1
 1594.74316131 -446.846093349 1594.74316131 -446.846093349 1594.00683594 -416.33203125 c 1,2,3
 1594.53986987 -384.391235328 1594.53986987 -384.391235328 1621.33984375 -317.57421875 c 1,4,5
 1555.71421432 -305.507640904 1555.71421432 -305.507640904 1500.92675781 -261.166015625 c 1,6,7
 1316.02502391 -364.670348427 1316.02502391 -364.670348427 797.829101562 -364.809570312 c 0,8,9
 460.685058594 -364.806640625 460.685058594 -364.806640625 200.547851562 -293.778320312 c 0,10,11
 138.456790006 -276.254978664 138.456790006 -276.254978664 112.228515625 -247.579101562 c 2,12,-1
 45.228515625 -173.584960938 l 2,13,14
 34.4747614956 -160.934356053 34.4747614956 -160.934356053 34.0048828125 -151.833984375 c 0,15,16
 34.0088994009 -135.316166241 34.0088994009 -135.316166241 78.9070322169 -106.590406975 c 0,17,18
 109.31819536 -87.133389575 109.31819536 -87.133389575 119.392578125 -89.2080078125 c 0,19,20
 568.323242188 -179.197753906 568.323242188 -179.197753906 903.172851562 -179.188476562 c 0,21,22
 1386.46407226 -178.902434692 1386.46407226 -178.902434692 1584.64160156 -80.6689453125 c 0,23,24
 1594.10221917 -75.9367519246 1594.10221917 -75.9367519246 1610.63971102 -94.5721134126 c 0,25,26
 1612.96060187 -97.2027174107 1612.96060187 -97.2027174107 1615.77929688 -100.42578125 c 0,27,28
 1656.74941392 -145.786839808 1656.74941392 -145.786839808 1735.15722656 -156.108398438 c 1,29,30
 1758.2716186 -124.741146254 1758.2716186 -124.741146254 1779.85351562 -98.12109375 c 0,31,32
 1937.88646587 96.5012812033 1937.88646587 96.5012812033 2065.11791379 115.422555549 c 0,33,34
 2081.03400333 117.650861019 2081.03400333 117.650861019 2096.171875 117.809570312 c 0,35,36
 2127.40698281 116.974247571 2127.40698281 116.974247571 2182.15039062 81.689453125 c 1,37,38
 2237.40186689 44.6247255938 2237.40186689 44.6247255938 2237.99511719 -11.1669921875 c 1,39,40
 2237.34089343 -69.6197855537 2237.34089343 -69.6197855537 2197.99804688 -139.822265625 c 0,41,42
 2172.57126224 -184.684181096 2172.57126224 -184.684181096 2155.39160156 -209.17578125 c 0,43,44
 2126.00000285 -250.357271516 2126.00000285 -250.357271516 2103.42285156 -268.318359375 c 0,45,46
 1991.21560482 -352.559838931 1991.21560482 -352.559838931 1802.82910156 -352.807617188 c 0,47,48
 1744.48778876 -352.613494633 1744.48778876 -352.613494633 1692.99121094 -341.44140625 c 1,49,50
 1688.64150081 -358.349325873 1688.64150081 -358.349325873 1684.90625 -374.9140625 c 0,51,52
 1680.33724331 -396.22308217 1680.33724331 -396.22308217 1636.38737541 -436.056452612 c 0,53,54
 1622.84513218 -447.985819623 1622.84513218 -447.985819623 1618.83007812 -448.807617188 c 1,0,1
2086.71777344 -152.491210938 m 1,55,56
 2031.23540977 -74.3431418986 2031.23540977 -74.3431418986 1951.32910156 -73.80859375 c 0,57,58
 1926.14107931 -74.2637677788 1926.14107931 -74.2637677788 1900.40722656 -85.6572265625 c 0,59,60
 1848.64661943 -109.599251693 1848.64661943 -109.599251693 1800.4296875 -170.833007812 c 1,61,62
 1831.89256426 -175.141383549 1831.89256426 -175.141383549 1874.67285156 -175.189453125 c 0,63,64
 1923.12160366 -175.035949863 1923.12160366 -175.035949863 2022.48828125 -163.704101562 c 0,65,66
 2058.86213095 -159.431469565 2058.86213095 -159.431469565 2086.71777344 -152.491210938 c 1,55,56
EndSplineSet
Layer: 3
SplineSet
1644 -418 m 0,0,1
 1620 -418 1620 -418 1620 -386.5 c 128,-1,2
 1620 -355 1620 -355 1648 -287 c 1,3,4
 1582 -276 1582 -276 1526 -230 c 1,5,6
 1345 -334 1345 -334 823 -334 c 0,7,8
 486 -334 486 -334 226 -263 c 0,9,10
 164 -246 164 -246 138 -217 c 2,11,-1
 71 -143 l 2,12,13
 60 -131 60 -131 60 -122 c 128,-1,14
 60 -113 60 -113 94 -120 c 0,15,16
 543 -210 543 -210 878 -210 c 0,17,18
 1362 -210 1362 -210 1561 -111 c 0,19,20
 1569 -107 1569 -107 1590 -131 c 0,21,22
 1633 -180 1633 -180 1720 -188 c 1,23,24
 1906 86 1906 86 2071 87 c 0,25,26
 2101 87 2101 87 2156.5 51 c 128,-1,27
 2212 15 2212 15 2212 -41 c 128,-1,28
 2212 -97 2212 -97 2174.5 -163.5 c 128,-1,29
 2137 -230 2137 -230 2124 -240 c 0,30,31
 2016 -322 2016 -322 1828 -322 c 0,32,33
 1755 -322 1755 -322 1692 -304 c 1,34,35
 1677 -324 1677 -324 1659 -404 c 16,36,37
 1656 -418 1656 -418 1644 -418 c 0,0,1
2124 -140 m 0,38,39
 2067 -43 2067 -43 1976.5 -43 c 128,-1,40
 1886 -43 1886 -43 1771 -201 c 1,41,42
 1802 -206 1802 -206 1849.5 -206 c 128,-1,43
 1897 -206 1897 -206 1997.5 -194.5 c 128,-1,44
 2098 -183 2098 -183 2124 -152 c 0,45,46
 2126 -150 2126 -150 2126 -147 c 128,-1,47
 2126 -144 2126 -144 2124 -140 c 0,38,39
EndSplineSet
EndChar

StartChar: uni0608
Encoding: 1544 1544 4734
Width: 1763
Flags: W
LayerCount: 3
Fore
SplineSet
1177.83461463 238.734889284 m 1,0,1
 1158.22687334 269.948816912 1158.22687334 269.948816912 1131.56468533 270.005086824 c 1,2,-1
 1129.87272242 269.943174847 l 1,3,4
 1141.22937637 250.868819111 1141.22937637 250.868819111 1177.83461463 238.734889284 c 1,0,1
1261.708375 -74.5230497678 m 1,5,6
 1264.79933011 -62.4844513679 1264.79933011 -62.4844513679 1258.09186649 -29.151462874 c 1,7,8
 1079.95185355 -20.3299323409 1079.95185355 -20.3299323409 1012.91070726 39.7194488825 c 1,9,10
 927.402202497 118.480575801 927.402202497 118.480575801 1040.40620377 330.886783896 c 1,11,12
 1105.07122574 457.48450297 1105.07122574 457.48450297 1163.01798446 479.943185879 c 0,13,14
 1179.19107628 485.813796057 1179.19107628 485.813796057 1195 486 c 0,15,16
 1339.73374793 484.205176216 1339.73374793 484.205176216 1391.06728949 218.18168689 c 1,17,18
 1489.57657016 221.718709372 1489.57657016 221.718709372 1572.04531853 249.450286154 c 128,-1,19
 1654.51406689 277.181862936 1654.51406689 277.181862936 1678.7677141 268.416087592 c 0,20,21
 1724.64366105 250.960568221 1724.64366105 250.960568221 1701.01565834 187.270334188 c 2,22,-1
 1629.06563962 0.400146667757 l 2,23,24
 1616.50762955 -33.5064805143 1616.50762955 -33.5064805143 1585.25323543 -38.5656692074 c 0,25,26
 1553.9988413 -43.6248579006 1553.9988413 -43.6248579006 1540.53641908 -27.9305028285 c 128,-1,27
 1527.07399686 -12.2361477565 1527.07399686 -12.2361477565 1524.6992966 1.07570160985 c 1,28,29
 1454.80759188 -18.9751167119 1454.80759188 -18.9751167119 1385.91302742 -26.0008728339 c 1,30,31
 1345.82287558 -207.402690488 1345.82287558 -207.402690488 1286.85891526 -284.187838039 c 0,32,33
 1115.37110493 -510.915526391 1115.37110493 -510.915526391 787.679865162 -551.773454492 c 0,34,35
 599.52681234 -574.442616216 599.52681234 -574.442616216 465.062015355 -498.016541981 c 1,36,37
 350.924925422 -431.098996164 350.924925422 -431.098996164 312.24951643 -302.834412855 c 128,-1,38
 273.574107438 -174.569829546 273.574107438 -174.569829546 317.926483781 -23.1315922106 c 1,39,40
 224.678884195 -81.6141614773 224.678884195 -81.6141614773 121.214227572 -96.7027572348 c 1,41,42
 94.6544710559 -99.4630749947 94.6544710559 -99.4630749947 76.5123399839 -84.0759661502 c 128,-1,43
 58.370208912 -68.6888573057 58.370208912 -68.6888573057 60.0518133558 -36.2368219856 c 2,44,-1
 64.0475059383 33.6877982088 l 2,45,46
 66.9702033598 70.4215504833 66.9702033598 70.4215504833 85.5025150007 87.1491346775 c 1,47,48
 98.8074264255 97.8010210534 98.8074264255 97.8010210534 115.557819055 98.9653151848 c 0,49,50
 291.99485702 108.302838192 291.99485702 108.302838192 449.349505768 254.762702716 c 0,51,52
 496.338672408 298.077489733 496.338672408 298.077489733 533.267689036 270.002371429 c 0,53,54
 570.196705663 241.927253126 570.196705663 241.927253126 540.585978031 197.809023173 c 0,55,56
 374.117944981 -41.6121419162 374.117944981 -41.6121419162 479.114463615 -202.59053709 c 1,57,58
 535.846140028 -287.728285611 535.846140028 -287.728285611 700.730337167 -308.265467462 c 128,-1,59
 865.614534305 -328.802649313 865.614534305 -328.802649313 1034.00688362 -261.818414668 c 128,-1,60
 1202.39923293 -194.834180022 1202.39923293 -194.834180022 1261.708375 -74.5230497678 c 1,5,6
EndSplineSet
Layer: 2
SplineSet
1226 198 m 1,0,1
 1198 301 1198 301 1131 300 c 0,2,3
 1087 299 1087 299 1101 261 c 0,4,5
 1121 212 1121 212 1226 198 c 1,0,1
1289 -87 m 0,6,7
 1299 -65 1299 -65 1282 0 c 1,8,9
 1096 5 1096 5 1033 62 c 0,10,11
 964 124 964 124 1067 317 c 0,12,13
 1138 456 1138 456 1195 456 c 0,14,15
 1321 456 1321 456 1366 188 c 1,16,17
 1478 186 1478 186 1620 234 c 0,18,19
 1697 261 1697 261 1673 198 c 2,20,-1
 1601 11 l 2,21,22
 1591 -16 1591 -16 1568 -9 c 0,23,24
 1548 -3 1548 -3 1557 22 c 2,25,-1
 1566 46 l 1,26,27
 1463 9 1463 9 1361 2 c 1,28,29
 1352 -46 1352 -46 1332 -113 c 0,30,31
 1304 -213 1304 -213 1263 -266 c 0,32,33
 1100 -483 1100 -483 784 -522 c 0,34,35
 606 -544 606 -544 480 -472 c 0,36,37
 376 -412 376 -412 342 -299 c 0,38,39
 292 -134 292 -134 383 64 c 1,40,41
 261 -46 261 -46 117 -67 c 0,42,43
 88 -71 88 -71 90 -38 c 2,44,-1
 94 32 l 2,45,46
 96 68 96 68 117 69 c 0,47,48
 304 78 304 78 470 233 c 0,49,50
 498 260 498 260 512 249 c 0,51,52
 530 235 530 235 516 215 c 0,53,54
 337 -41 337 -41 454 -219 c 0,55,56
 517 -316 517 -316 695 -338 c 0,57,58
 869 -360 869 -360 1045 -290 c 0,59,60
 1225 -219 1225 -219 1289 -87 c 0,6,7
EndSplineSet
EndChar

StartChar: uni060B
Encoding: 1547 1547 4735
Width: 1026
Flags: W
LayerCount: 3
Fore
SplineSet
693.778926769 867.998087864 m 0,0,1
 734.129336203 868.675566479 734.129336203 868.675566479 782.765160001 826.568629703 c 0,2,3
 976.052473545 655.279332177 976.052473545 655.279332177 965.973073452 397.728496057 c 1,4,5
 960.07730684 275.325493962 960.07730684 275.325493962 898.287666287 177.858936412 c 0,6,7
 737.146902846 -72.0674418694 737.146902846 -72.0674418694 158.187828957 -19.8680758847 c 0,8,9
 96.121070618 -13.8127823881 96.121070618 -13.8127823881 83.6860975568 39.6206452762 c 2,10,-1
 62.6690087061 136.699579491 l 2,11,12
 54.5597717414 178.143194099 54.5597717414 178.143194099 77.0208136528 204.77050423 c 0,13,14
 99.4818555643 231.397814361 99.4818555643 231.397814361 154.526940814 224.792598954 c 0,15,16
 627.245500226 172.514987323 627.245500226 172.514987323 814.751398965 342.673386343 c 1,17,18
 811.894310151 367.495841608 811.894310151 367.495841608 807.526270853 382.52497386 c 1,19,20
 765.502064966 303.789779096 765.502064966 303.789779096 700.593009312 289.323755677 c 0,21,22
 489.682587236 242.31898763 489.682587236 242.31898763 456.521035094 394.810669534 c 0,23,24
 423.359482951 547.302351438 423.359482951 547.302351438 535.275212229 734.434872663 c 0,25,26
 614.615656172 866.668945901 614.615656172 866.668945901 693.778926769 867.998087864 c 0,0,1
605.71787914 549.373550476 m 1,27,28
 648.746950577 544.712426762 648.746950577 544.712426762 672.325913136 551.558220668 c 1,29,30
 618.940349581 620.460214913 618.940349581 620.460214913 605.71787914 549.373550476 c 1,27,28
EndSplineSet
Refer: 192 -1 N 1 0 0 1 621 1010 2
Refer: 262 1648 N 1 0 0 1 240 -2510 2
Layer: 2
SplineSet
697 838 m 0,0,1
 724 838 724 838 763 804 c 0,2,3
 946 643 946 643 936 399 c 0,4,5
 931 285 931 285 873 194 c 0,6,7
 723 -41 723 -41 161 10 c 0,8,9
 120 14 120 14 113 46 c 2,10,-1
 92 143 l 2,11,12
 79 204 79 204 151 195 c 0,13,14
 652 139 652 139 846 331 c 1,15,16
 841 392 841 392 827 412 c 0,17,18
 813 432 813 432 804 430 c 0,19,20
 795 428 795 428 792 421 c 0,21,22
 757 332 757 332 686 316 c 0,23,24
 461 268 461 268 480 490 c 0,25,26
 489 599 489 599 561 719 c 0,27,28
 633 839 633 839 697 838 c 0,0,1
573 524 m 1,29,30
 683 504 683 504 714 544 c 1,31,32
 667 618 667 618 629 616 c 0,33,34
 577 614 577 614 573 524 c 1,29,30
EndSplineSet
Refer: 262 1648 N 1 0 0 1 240 -2510 2
Refer: 192 -1 N 1 0 0 1 621 1010 2
EndChar

StartChar: uni060C
Encoding: 1548 1548 168
Width: 756
Flags: W
LayerCount: 3
Fore
SplineSet
404 838 m 1,0,1
 436 858 436 858 460 852 c 0,2,3
 508 840 508 840 514 796 c 1,4,5
 516 766 516 766 492 740 c 0,6,7
 264 502 264 502 318 308 c 1,8,9
 370 353 370 353 444 353.5 c 128,-1,10
 518 354 518 354 572 300 c 128,-1,11
 626 246 626 246 625 169 c 128,-1,12
 624 92 624 92 566 36 c 1,13,14
 507 -19 507 -19 425.5 -16.5 c 128,-1,15
 344 -14 344 -14 292 26 c 0,16,17
 152 136 152 136 174 422 c 1,18,19
 186 552 186 552 262.5 672 c 128,-1,20
 339 792 339 792 404 838 c 1,0,1
EndSplineSet
Layer: 2
SplineSet
422 813 m 0,0,1
 455 836 455 836 476.5 812 c 128,-1,2
 498 788 498 788 470 759 c 0,3,4
 217 499 217 499 297 277 c 24,5,6
 306 253 306 253 320 268 c 0,7,8
 367 325 367 325 441 325 c 0,9,10
 505 325 505 325 550.5 279.5 c 128,-1,11
 596 234 596 234 596 170 c 128,-1,12
 596 106 596 106 546.5 59 c 128,-1,13
 497 12 497 12 433 14 c 0,14,15
 355 16 355 16 310 51 c 0,16,17
 181 151 181 151 204 420 c 0,18,19
 215 542 215 542 288.5 656.5 c 128,-1,20
 362 771 362 771 422 813 c 0,0,1
EndSplineSet
EndChar

StartChar: uni060D
Encoding: 1549 1549 4938
Width: 648
Flags: W
LayerCount: 4
Fore
SplineSet
573.971679688 968.517578125 m 2,0,-1
 543.961914062 902.499023438 l 2,1,2
 528.437324093 870.601573561 528.437324093 870.601573561 504.6015625 841.250976562 c 0,3,4
 452.035632344 776.994435509 452.035632344 776.994435509 427.453215793 790.110228892 c 0,5,6
 422.81783211 792.951713487 422.81783211 792.951713487 410.28515625 804.366210938 c 0,7,8
 371.037077338 838.115546451 371.037077338 838.115546451 314.267188969 796.163615489 c 0,9,10
 304.642877785 788.823966876 304.642877785 788.823966876 296.6015625 781.008789062 c 2,11,-1
 295.8828125 780.298828125 l 1,12,-1
 295.189453125 779.631835938 l 2,13,14
 237.487957754 723.456997468 237.487957754 723.456997468 158.0390625 595.21484375 c 0,15,16
 114.651871747 524.708360777 114.651871747 524.708360777 76.3209566687 513.711267035 c 0,17,18
 69.7369498246 512.2454479 69.7369498246 512.2454479 66.4228515625 513.274414062 c 0,19,20
 43.5096321814 527.238235484 43.5096321814 527.238235484 64.759765625 578.875 c 1,21,22
 121.102670799 708.612347413 121.102670799 708.612347413 241.21875 883.764648438 c 2,23,-1
 242.025390625 884.939453125 l 1,24,-1
 242.904296875 886.174804688 l 2,25,26
 263.839624923 915.458125399 263.839624923 915.458125399 285.209960938 941.627929688 c 0,27,28
 404.631854413 1087.47158644 404.631854413 1087.47158644 500.1756394 1096.28579326 c 0,29,30
 523.311541743 1098.42015112 523.311541743 1098.42015112 548.376953125 1093.79296875 c 0,31,32
 624.382465647 1077.81677771 624.382465647 1077.81677771 573.971679688 968.517578125 c 2,0,-1
EndSplineSet
Layer: 2
SplineSet
576.245750392 929.442375021 m 2,0,-1
 546.236351718 863.421697938 l 2,1,2
 533.089571649 836.078566139 533.089571649 836.078566139 519.335656891 819.886670123 c 0,3,4
 495.729242939 793.923581547 495.729242939 793.923581547 468.237308187 791.86489055 c 1,5,6
 440.722160738 791.109712401 440.722160738 791.109712401 416.252630239 812.414568969 c 1,7,8
 386.070021686 835.236078943 386.070021686 835.236078943 329.937277245 780.513553526 c 0,9,10
 253.042032007 705.992513795 253.042032007 705.992513795 161.532458918 558.248980032 c 1,11,12
 122.957663758 498.449780734 122.957663758 498.449780734 79.6890596801 516.642354845 c 1,13,-1
 78.8950088588 516.999677714 l 1,14,-1
 78.1230197991 517.402454615 l 1,15,16
 31.3821286209 542.939767205 31.3821286209 542.939767205 62.3995326755 617.757440825 c 1,17,18
 118.221863532 746.302724125 118.221863532 746.302724125 235.407612925 917.183630954 c 1,19,20
 380.191203608 1119.05040375 380.191203608 1119.05040375 528.434872884 1092.50359566 c 0,21,22
 543.071942194 1089.55251353 543.071942194 1089.55251353 554.246287342 1084.55869589 c 0,23,24
 627.316148323 1050.91021199 627.316148323 1050.91021199 581.549736038 941.419077989 c 0,25,26
 578.810095842 934.977548535 578.810095842 934.977548535 576.245750392 929.442375021 c 2,0,-1
EndSplineSet
Layer: 3
SplineSet
549 942 m 2,0,-1
 519 876 l 2,1,2
 481 795 481 795 436 835 c 0,3,4
 386 878 386 878 309 802 c 0,5,6
 230 726 230 726 136 574 c 0,7,8
 112 535 112 535 92 544 c 0,9,10
 69 556 69 556 90 606 c 0,11,12
 144 731 144 731 260 900 c 0,13,14
 393 1087 393 1087 523 1063 c 0,15,16
 599 1049 599 1049 549 942 c 2,0,-1
EndSplineSet
EndChar
